<svg width="480" height="316" viewBox="0 0 480 316" fill="none" xmlns="http://www.w3.org/2000/svg">
<g clip-path="url(#clip0_15560_42287)">
<mask id="path-1-inside-1_15560_42287" fill="white">
<path d="M8 24C8 15.1634 15.1634 8 24 8H456C464.837 8 472 15.1634 472 24V292C472 300.837 464.837 308 456 308H24C15.1635 308 8 300.837 8 292V24Z"/>
</mask>
<path d="M8 24C8 15.1634 15.1634 8 24 8H456C464.837 8 472 15.1634 472 24V292C472 300.837 464.837 308 456 308H24C15.1635 308 8 300.837 8 292V24Z" fill="white"/>
<mask id="path-3-outside-2_15560_42287" maskUnits="userSpaceOnUse" x="8" y="8" width="464" height="235" fill="black">
<rect fill="white" x="8" y="8" width="464" height="235"/>
<path d="M8 8H472V242H8V8Z"/>
</mask>
<path d="M472 242V241H8V242V243H472V242Z" fill="#EBEBEB" mask="url(#path-3-outside-2_15560_42287)"/>
<path d="M38.264 55L32.432 38.2H35.576L40.112 52.096L41.912 46.48L39.008 38.2H42.104L43.976 44.08L45.824 38.2H48.944L46.016 46.48L47.816 52.096L52.352 38.2H55.496L49.664 55H46.016L43.976 48.904L41.912 55H38.264ZM59.8271 55.288C58.5791 55.288 57.4991 55.016 56.5871 54.472C55.6911 53.928 54.9951 53.184 54.4991 52.24C54.0031 51.296 53.7551 50.232 53.7551 49.048C53.7551 47.784 54.0111 46.688 54.5231 45.76C55.0351 44.832 55.7471 44.112 56.6591 43.6C57.5711 43.072 58.6271 42.808 59.8271 42.808C61.0111 42.808 62.0431 43.064 62.9231 43.576C63.8191 44.088 64.5151 44.792 65.0111 45.688C65.5231 46.584 65.7791 47.616 65.7791 48.784C65.7791 48.992 65.7711 49.2 65.7551 49.408C65.7391 49.6 65.7151 49.784 65.6831 49.96H56.8511C56.8991 50.52 57.0431 51.016 57.2831 51.448C57.5391 51.864 57.8751 52.192 58.2911 52.432C58.7231 52.656 59.2111 52.768 59.7551 52.768C60.3151 52.768 60.7951 52.648 61.1951 52.408C61.6111 52.168 61.9391 51.8 62.1791 51.304H65.4671C65.2431 52.008 64.8831 52.664 64.3871 53.272C63.8911 53.88 63.2591 54.368 62.4911 54.736C61.7391 55.104 60.8511 55.288 59.8271 55.288ZM56.8751 47.92H62.6111C62.5951 47.12 62.2991 46.488 61.7231 46.024C61.1631 45.56 60.4991 45.328 59.7311 45.328C59.0751 45.328 58.4671 45.536 57.9071 45.952C57.3471 46.352 57.0031 47.008 56.8751 47.92ZM66.9247 55V38.2H69.9967V55H66.9247ZM77.1695 55.288C75.9695 55.288 74.9215 55.024 74.0255 54.496C73.1295 53.952 72.4335 53.216 71.9375 52.288C71.4415 51.344 71.1935 50.264 71.1935 49.048C71.1935 47.848 71.4335 46.776 71.9135 45.832C72.4095 44.888 73.1055 44.152 74.0015 43.624C74.8975 43.08 75.9535 42.808 77.1695 42.808C78.6095 42.808 79.8255 43.168 80.8175 43.888C81.8255 44.608 82.5055 45.672 82.8575 47.08H79.5695C79.4255 46.616 79.1455 46.224 78.7295 45.904C78.3295 45.568 77.8015 45.4 77.1455 45.4C76.4895 45.4 75.9535 45.568 75.5375 45.904C75.1215 46.24 74.8095 46.688 74.6015 47.248C74.4095 47.792 74.3135 48.392 74.3135 49.048C74.3135 49.704 74.4095 50.312 74.6015 50.872C74.8095 51.416 75.1215 51.856 75.5375 52.192C75.9535 52.512 76.4895 52.672 77.1455 52.672C77.7695 52.672 78.2815 52.536 78.6815 52.264C79.0815 51.976 79.3775 51.56 79.5695 51.016H82.8575C82.6495 51.912 82.2735 52.68 81.7295 53.32C81.2015 53.96 80.5455 54.448 79.7615 54.784C78.9935 55.12 78.1295 55.288 77.1695 55.288ZM89.9602 55.288C88.7602 55.288 87.6882 55.032 86.7442 54.52C85.8162 53.992 85.0882 53.256 84.5602 52.312C84.0322 51.368 83.7682 50.28 83.7682 49.048C83.7682 47.752 84.0482 46.64 84.6082 45.712C85.1842 44.768 85.9442 44.048 86.8882 43.552C87.8482 43.056 88.9042 42.808 90.0562 42.808C91.2562 42.808 92.3282 43.072 93.2722 43.6C94.2162 44.112 94.9602 44.832 95.5042 45.76C96.0642 46.688 96.3442 47.784 96.3442 49.048C96.3442 50.248 96.0722 51.32 95.5282 52.264C94.9842 53.208 94.2322 53.952 93.2722 54.496C92.3282 55.024 91.2242 55.288 89.9602 55.288ZM90.0082 52.624C90.6482 52.624 91.2002 52.464 91.6642 52.144C92.1442 51.808 92.5202 51.368 92.7922 50.824C93.0642 50.264 93.2002 49.656 93.2002 49C93.2002 48.248 93.0482 47.608 92.7442 47.08C92.4562 46.552 92.0722 46.152 91.5922 45.88C91.1122 45.608 90.5842 45.472 90.0082 45.472C89.3842 45.472 88.8322 45.624 88.3522 45.928C87.8882 46.232 87.5202 46.656 87.2482 47.2C86.9922 47.728 86.8642 48.344 86.8642 49.048C86.8642 49.752 87.0002 50.376 87.2722 50.92C87.5602 51.464 87.9442 51.888 88.4242 52.192C88.9042 52.48 89.4322 52.624 90.0082 52.624ZM97.6409 55V43.096H100.689V44.464C101.089 43.904 101.601 43.488 102.225 43.216C102.849 42.944 103.505 42.808 104.193 42.808C105.089 42.808 105.921 43 106.689 43.384C107.473 43.752 108.081 44.336 108.513 45.136C108.913 44.4 109.465 43.832 110.169 43.432C110.889 43.016 111.673 42.808 112.521 42.808C113.433 42.808 114.257 43 114.993 43.384C115.745 43.752 116.337 44.32 116.769 45.088C117.201 45.856 117.417 46.816 117.417 47.968V55H114.369V48.4C114.369 47.504 114.153 46.792 113.721 46.264C113.289 45.736 112.625 45.472 111.729 45.472C110.849 45.472 110.185 45.736 109.737 46.264C109.289 46.792 109.065 47.504 109.065 48.4V55H106.017V48.4C106.017 47.488 105.785 46.776 105.321 46.264C104.873 45.736 104.225 45.472 103.377 45.472C102.657 45.472 102.025 45.704 101.481 46.168C100.953 46.616 100.689 47.36 100.689 48.4V55H97.6409ZM124.599 55.288C123.351 55.288 122.271 55.016 121.359 54.472C120.463 53.928 119.767 53.184 119.271 52.24C118.775 51.296 118.527 50.232 118.527 49.048C118.527 47.784 118.783 46.688 119.295 45.76C119.807 44.832 120.519 44.112 121.431 43.6C122.343 43.072 123.399 42.808 124.599 42.808C125.783 42.808 126.815 43.064 127.695 43.576C128.591 44.088 129.287 44.792 129.783 45.688C130.295 46.584 130.551 47.616 130.551 48.784C130.551 48.992 130.543 49.2 130.527 49.408C130.511 49.6 130.487 49.784 130.455 49.96H121.623C121.671 50.52 121.815 51.016 122.055 51.448C122.311 51.864 122.647 52.192 123.063 52.432C123.495 52.656 123.983 52.768 124.527 52.768C125.087 52.768 125.567 52.648 125.967 52.408C126.383 52.168 126.711 51.8 126.951 51.304H130.239C130.015 52.008 129.655 52.664 129.159 53.272C128.663 53.88 128.031 54.368 127.263 54.736C126.511 55.104 125.623 55.288 124.599 55.288ZM121.647 47.92H127.383C127.367 47.12 127.071 46.488 126.495 46.024C125.935 45.56 125.271 45.328 124.503 45.328C123.847 45.328 123.239 45.536 122.679 45.952C122.119 46.352 121.775 47.008 121.647 47.92ZM141.428 55C140.148 55 139.18 54.688 138.524 54.064C137.884 53.44 137.564 52.504 137.564 51.256V45.664H136.028V43.096H137.564V40.192H140.636V43.096H143.348V45.664H140.636V51.28C140.636 51.728 140.756 52.032 140.996 52.192C141.236 52.352 141.548 52.432 141.932 52.432H143.348V55H141.428ZM150.185 55.288C148.985 55.288 147.913 55.032 146.969 54.52C146.041 53.992 145.313 53.256 144.785 52.312C144.257 51.368 143.993 50.28 143.993 49.048C143.993 47.752 144.273 46.64 144.833 45.712C145.409 44.768 146.169 44.048 147.113 43.552C148.073 43.056 149.129 42.808 150.281 42.808C151.481 42.808 152.553 43.072 153.497 43.6C154.441 44.112 155.185 44.832 155.729 45.76C156.289 46.688 156.569 47.784 156.569 49.048C156.569 50.248 156.297 51.32 155.753 52.264C155.209 53.208 154.457 53.952 153.497 54.496C152.553 55.024 151.449 55.288 150.185 55.288ZM150.233 52.624C150.873 52.624 151.425 52.464 151.889 52.144C152.369 51.808 152.745 51.368 153.017 50.824C153.289 50.264 153.425 49.656 153.425 49C153.425 48.248 153.273 47.608 152.969 47.08C152.681 46.552 152.297 46.152 151.817 45.88C151.337 45.608 150.809 45.472 150.233 45.472C149.609 45.472 149.057 45.624 148.577 45.928C148.113 46.232 147.745 46.656 147.473 47.2C147.217 47.728 147.089 48.344 147.089 49.048C147.089 49.752 147.225 50.376 147.497 50.92C147.785 51.464 148.169 51.888 148.649 52.192C149.129 52.48 149.657 52.624 150.233 52.624ZM170.981 55.288C169.253 55.288 167.781 54.912 166.565 54.16C165.349 53.408 164.421 52.384 163.781 51.088C163.141 49.776 162.821 48.288 162.821 46.624C162.821 44.96 163.133 43.472 163.757 42.16C164.381 40.848 165.301 39.816 166.517 39.064C167.733 38.296 169.221 37.912 170.981 37.912C172.997 37.912 174.645 38.416 175.925 39.424C177.221 40.416 178.029 41.816 178.349 43.624H174.965C174.757 42.712 174.309 42 173.621 41.488C172.949 40.96 172.053 40.696 170.933 40.696C169.909 40.696 169.021 40.936 168.269 41.416C167.533 41.896 166.965 42.576 166.565 43.456C166.165 44.336 165.965 45.392 165.965 46.624C165.965 47.84 166.165 48.896 166.565 49.792C166.965 50.672 167.533 51.352 168.269 51.832C169.021 52.296 169.909 52.528 170.933 52.528C172.053 52.528 172.949 52.288 173.621 51.808C174.309 51.312 174.757 50.632 174.965 49.768H178.349C178.029 51.496 177.221 52.848 175.925 53.824C174.645 54.8 172.997 55.288 170.981 55.288ZM179.922 55V38.2H182.97V44.488C183.386 43.928 183.938 43.512 184.626 43.24C185.33 42.952 186.034 42.808 186.738 42.808C188.114 42.808 189.242 43.256 190.122 44.152C191.002 45.032 191.442 46.312 191.442 47.992V55H188.394V48.4C188.394 47.504 188.162 46.784 187.698 46.24C187.25 45.68 186.586 45.4 185.706 45.4C184.826 45.4 184.146 45.68 183.666 46.24C183.202 46.784 182.97 47.504 182.97 48.4V55H179.922ZM196.566 55.288C195.862 55.288 195.206 55.144 194.598 54.856C193.99 54.568 193.494 54.16 193.11 53.632C192.742 53.088 192.558 52.448 192.558 51.712C192.558 50.832 192.774 50.112 193.206 49.552C193.638 48.992 194.23 48.576 194.982 48.304C195.75 48.032 196.606 47.896 197.55 47.896H200.382C200.382 47.352 200.294 46.896 200.118 46.528C199.958 46.16 199.71 45.88 199.374 45.688C199.054 45.48 198.654 45.376 198.174 45.376C197.614 45.376 197.11 45.504 196.662 45.76C196.23 46 195.966 46.408 195.87 46.984H192.798C192.878 46.12 193.174 45.376 193.686 44.752C194.198 44.128 194.854 43.648 195.654 43.312C196.454 42.976 197.31 42.808 198.222 42.808C199.342 42.808 200.286 43.016 201.054 43.432C201.838 43.848 202.438 44.44 202.854 45.208C203.27 45.96 203.478 46.856 203.478 47.896V51.52C203.51 51.872 203.638 52.112 203.862 52.24C204.086 52.368 204.382 52.432 204.75 52.432V55C203.998 55 203.366 54.928 202.854 54.784C202.358 54.64 201.95 54.432 201.63 54.16C201.31 53.872 201.038 53.512 200.814 53.08C200.446 53.704 199.87 54.232 199.086 54.664C198.318 55.08 197.478 55.288 196.566 55.288ZM197.454 52.816C197.982 52.816 198.462 52.696 198.894 52.456C199.342 52.216 199.702 51.88 199.974 51.448C200.246 51.016 200.382 50.52 200.382 49.96V49.864H197.742C197.39 49.864 197.054 49.92 196.734 50.032C196.414 50.128 196.158 50.288 195.966 50.512C195.774 50.72 195.678 51.008 195.678 51.376C195.678 51.872 195.846 52.24 196.182 52.48C196.534 52.704 196.958 52.816 197.454 52.816ZM213.815 55.288C212.087 55.288 210.615 54.912 209.399 54.16C208.183 53.408 207.255 52.384 206.615 51.088C205.975 49.776 205.655 48.288 205.655 46.624C205.655 44.96 205.967 43.472 206.591 42.16C207.215 40.848 208.135 39.816 209.351 39.064C210.567 38.296 212.055 37.912 213.815 37.912C215.831 37.912 217.479 38.416 218.759 39.424C220.055 40.416 220.863 41.816 221.183 43.624H217.799C217.591 42.712 217.143 42 216.455 41.488C215.783 40.96 214.887 40.696 213.767 40.696C212.743 40.696 211.855 40.936 211.103 41.416C210.367 41.896 209.799 42.576 209.399 43.456C208.999 44.336 208.799 45.392 208.799 46.624C208.799 47.84 208.999 48.896 209.399 49.792C209.799 50.672 210.367 51.352 211.103 51.832C211.855 52.296 212.743 52.528 213.767 52.528C214.887 52.528 215.783 52.288 216.455 51.808C217.143 51.312 217.591 50.632 217.799 49.768H221.183C220.863 51.496 220.055 52.848 218.759 53.824C217.479 54.8 215.831 55.288 213.815 55.288ZM222.755 55V38.2H225.803V44.488C226.219 43.928 226.771 43.512 227.459 43.24C228.163 42.952 228.867 42.808 229.571 42.808C230.947 42.808 232.075 43.256 232.955 44.152C233.835 45.032 234.275 46.312 234.275 47.992V55H231.227V48.4C231.227 47.504 230.995 46.784 230.531 46.24C230.083 45.68 229.419 45.4 228.539 45.4C227.659 45.4 226.979 45.68 226.499 46.24C226.035 46.784 225.803 47.504 225.803 48.4V55H222.755ZM237.408 41.56C236.864 41.56 236.392 41.368 235.992 40.984C235.608 40.584 235.416 40.112 235.416 39.568C235.416 39.008 235.608 38.536 235.992 38.152C236.392 37.768 236.864 37.576 237.408 37.576C237.968 37.576 238.44 37.768 238.824 38.152C239.208 38.536 239.4 39.008 239.4 39.568C239.4 40.112 239.208 40.584 238.824 40.984C238.44 41.368 237.968 41.56 237.408 41.56ZM235.872 55V43.096H238.944V55H235.872ZM240.709 55V43.096H243.757V44.488C244.173 43.928 244.725 43.512 245.413 43.24C246.117 42.952 246.821 42.808 247.525 42.808C248.901 42.808 250.029 43.256 250.909 44.152C251.789 45.032 252.229 46.312 252.229 47.992V55H249.181V48.4C249.181 47.504 248.949 46.784 248.485 46.24C248.037 45.68 247.373 45.4 246.493 45.4C245.613 45.4 244.933 45.68 244.453 46.24C243.989 46.784 243.757 47.504 243.757 48.4V55H240.709ZM258.774 60.568C257.686 60.568 256.71 60.448 255.846 60.208C254.982 59.968 254.294 59.576 253.782 59.032C253.286 58.504 253.038 57.808 253.038 56.944C253.038 56.384 253.158 55.896 253.398 55.48C253.638 55.08 254.006 54.728 254.502 54.424C254.086 54.184 253.774 53.88 253.566 53.512C253.358 53.144 253.254 52.72 253.254 52.24C253.254 51.184 253.75 50.368 254.742 49.792C254.39 49.424 254.118 49.008 253.926 48.544C253.734 48.064 253.638 47.568 253.638 47.056C253.638 46.192 253.846 45.448 254.262 44.824C254.678 44.184 255.254 43.688 255.99 43.336C256.726 42.984 257.566 42.808 258.51 42.808C259.198 42.808 259.83 42.904 260.406 43.096H264.678V45.4H263.022C263.118 45.672 263.198 45.944 263.262 46.216C263.342 46.488 263.382 46.768 263.382 47.056C263.382 47.888 263.166 48.624 262.734 49.264C262.302 49.904 261.718 50.408 260.982 50.776C260.262 51.128 259.438 51.304 258.51 51.304C258.11 51.304 257.742 51.272 257.406 51.208C257.07 51.128 256.742 51.008 256.422 50.848C256.07 51.024 255.894 51.304 255.894 51.688C255.894 52.392 256.478 52.744 257.646 52.744H259.83C260.79 52.744 261.606 52.88 262.278 53.152C262.966 53.408 263.486 53.816 263.838 54.376C264.19 54.936 264.366 55.648 264.366 56.512C264.366 57.344 264.118 58.064 263.622 58.672C263.126 59.28 262.454 59.744 261.606 60.064C260.758 60.4 259.814 60.568 258.774 60.568ZM258.774 58.168C259.542 58.168 260.19 58.04 260.718 57.784C261.262 57.544 261.534 57.176 261.534 56.68C261.534 55.736 260.878 55.264 259.566 55.264H257.838C257.198 55.264 256.702 55.384 256.35 55.624C256.014 55.864 255.846 56.216 255.846 56.68C255.846 57.048 255.982 57.336 256.254 57.544C256.526 57.768 256.886 57.928 257.334 58.024C257.782 58.12 258.262 58.168 258.774 58.168ZM258.486 48.904C259.094 48.904 259.59 48.736 259.974 48.4C260.374 48.048 260.574 47.6 260.574 47.056C260.574 46.528 260.374 46.088 259.974 45.736C259.59 45.384 259.094 45.208 258.486 45.208C257.878 45.208 257.382 45.384 256.998 45.736C256.63 46.088 256.446 46.528 256.446 47.056C256.446 47.6 256.622 48.048 256.974 48.4C257.342 48.736 257.846 48.904 258.486 48.904Z" fill="#141414"/>
<path d="M33.184 81V69.8H40.112V70.904H34.528V74.536H39.408V75.624H34.528V79.896H40.112V81H33.184ZM41.9753 81V73.064H43.1913L43.2713 74.488C43.5273 73.9867 43.8953 73.592 44.3753 73.304C44.8553 73.016 45.3993 72.872 46.0073 72.872C46.9459 72.872 47.6926 73.16 48.2473 73.736C48.8126 74.3013 49.0953 75.176 49.0953 76.36V81H47.7513V76.504C47.7513 75.6827 47.5806 75.064 47.2393 74.648C46.8979 74.232 46.3859 74.024 45.7033 74.024C45.0206 74.024 44.4499 74.2747 43.9913 74.776C43.5433 75.2667 43.3193 75.9707 43.3193 76.888V81H41.9753ZM54.1231 81C53.3978 81 52.8271 80.824 52.4111 80.472C51.9951 80.12 51.7871 79.4853 51.7871 78.568V74.2H50.4111V73.064H51.7871V71.16H53.1311V73.064H55.3551V74.2H53.1311V78.568C53.1311 79.0693 53.2325 79.4107 53.4351 79.592C53.6378 79.7627 53.9951 79.848 54.5071 79.848H55.3551V81H54.1231ZM60.3639 81.192C59.6279 81.192 58.9612 81.0213 58.3639 80.68C57.7772 80.3387 57.3132 79.8587 56.9719 79.24C56.6305 78.6107 56.4599 77.8747 56.4599 77.032C56.4599 76.2 56.6199 75.4747 56.9399 74.856C57.2705 74.2267 57.7292 73.7413 58.3159 73.4C58.9132 73.048 59.6065 72.872 60.3959 72.872C61.1425 72.872 61.7932 73.0373 62.3479 73.368C62.9025 73.6987 63.3345 74.1467 63.6439 74.712C63.9639 75.2667 64.1239 75.8907 64.1239 76.584C64.1239 76.7333 64.1239 76.8507 64.1239 76.936C64.1239 77.0213 64.1185 77.1547 64.1079 77.336H57.7879C57.8199 77.8587 57.9425 78.328 58.1559 78.744C58.3799 79.1493 58.6785 79.4693 59.0519 79.704C59.4359 79.9387 59.8732 80.056 60.3639 80.056C60.9185 80.056 61.3825 79.928 61.7559 79.672C62.1292 79.416 62.4012 79.0693 62.5719 78.632H63.8999C63.7612 79.1227 63.5319 79.56 63.2119 79.944C62.8919 80.328 62.4919 80.632 62.0119 80.856C61.5425 81.08 60.9932 81.192 60.3639 81.192ZM57.8039 76.296H62.7959C62.7639 75.5813 62.5185 75.0213 62.0599 74.616C61.6012 74.2107 61.0359 74.008 60.3639 74.008C59.7239 74.008 59.1532 74.2053 58.6519 74.6C58.1612 74.984 57.8785 75.5493 57.8039 76.296ZM65.7453 81V73.064H66.9613L67.0733 74.584C67.3186 74.0613 67.6919 73.6453 68.1933 73.336C68.6946 73.0267 69.3133 72.872 70.0493 72.872V74.28H69.6813C68.8066 74.28 68.1559 74.5147 67.7293 74.984C67.3026 75.4533 67.0893 76.1253 67.0893 77V81H65.7453ZM76.3361 84.52L78.0961 80.68L74.6881 73.064H76.1441L78.7681 79.24L81.5521 73.064H82.9441L77.7441 84.52H76.3361ZM87.1168 81.192C86.3914 81.192 85.7248 81.032 85.1168 80.712C84.5088 80.3813 84.0234 79.9067 83.6608 79.288C83.2981 78.6587 83.1168 77.9013 83.1168 77.016C83.1168 76.1733 83.2928 75.4427 83.6448 74.824C84.0074 74.2053 84.4928 73.7253 85.1008 73.384C85.7194 73.0427 86.4128 72.872 87.1808 72.872C87.9168 72.872 88.5888 73.032 89.1968 73.352C89.8154 73.672 90.3114 74.1413 90.6848 74.76C91.0581 75.3787 91.2448 76.1307 91.2448 77.016C91.2448 77.8267 91.0688 78.5467 90.7168 79.176C90.3648 79.8053 89.8741 80.3013 89.2448 80.664C88.6261 81.016 87.9168 81.192 87.1168 81.192ZM87.1168 80.024C87.6394 80.024 88.1088 79.9013 88.5248 79.656C88.9408 79.4 89.2714 79.048 89.5168 78.6C89.7621 78.152 89.8848 77.624 89.8848 77.016C89.8848 76.44 89.7781 75.928 89.5648 75.48C89.3514 75.032 89.0421 74.68 88.6368 74.424C88.2314 74.168 87.7408 74.04 87.1648 74.04C86.5781 74.04 86.0821 74.1733 85.6768 74.44C85.2821 74.7067 84.9834 75.064 84.7808 75.512C84.5781 75.96 84.4768 76.4613 84.4768 77.016C84.4768 77.72 84.6048 78.296 84.8608 78.744C85.1168 79.1813 85.4474 79.5067 85.8528 79.72C86.2581 79.9227 86.6794 80.024 87.1168 80.024ZM95.861 81.192C95.2423 81.192 94.6983 81.0693 94.229 80.824C93.7703 80.568 93.413 80.184 93.157 79.672C92.901 79.1493 92.773 78.4933 92.773 77.704V73.064H94.117V77.56C94.117 78.3813 94.2877 79 94.629 79.416C94.9703 79.832 95.4823 80.04 96.165 80.04C96.8477 80.04 97.413 79.7947 97.861 79.304C98.3197 78.8027 98.549 78.0933 98.549 77.176V73.064H99.893V81H98.677L98.597 79.576C98.341 80.0773 97.973 80.472 97.493 80.76C97.013 81.048 96.469 81.192 95.861 81.192ZM101.945 81V73.064H103.161L103.273 74.584C103.519 74.0613 103.892 73.6453 104.393 73.336C104.895 73.0267 105.513 72.872 106.249 72.872V74.28H105.881C105.007 74.28 104.356 74.5147 103.929 74.984C103.503 75.4533 103.289 76.1253 103.289 77V81H101.945ZM113.272 81L110.952 73.064H112.296L113.976 79.288L115.832 73.064H117.352L119.224 79.288L120.888 73.064H122.248L119.928 81H118.552L116.6 74.456L114.648 81H113.272ZM126.942 81.192C126.216 81.192 125.55 81.032 124.942 80.712C124.334 80.3813 123.848 79.9067 123.486 79.288C123.123 78.6587 122.942 77.9013 122.942 77.016C122.942 76.1733 123.118 75.4427 123.47 74.824C123.832 74.2053 124.318 73.7253 124.926 73.384C125.544 73.0427 126.238 72.872 127.006 72.872C127.742 72.872 128.414 73.032 129.022 73.352C129.64 73.672 130.136 74.1413 130.51 74.76C130.883 75.3787 131.07 76.1307 131.07 77.016C131.07 77.8267 130.894 78.5467 130.542 79.176C130.19 79.8053 129.699 80.3013 129.07 80.664C128.451 81.016 127.742 81.192 126.942 81.192ZM126.942 80.024C127.464 80.024 127.934 79.9013 128.35 79.656C128.766 79.4 129.096 79.048 129.342 78.6C129.587 78.152 129.71 77.624 129.71 77.016C129.71 76.44 129.603 75.928 129.39 75.48C129.176 75.032 128.867 74.68 128.462 74.424C128.056 74.168 127.566 74.04 126.99 74.04C126.403 74.04 125.907 74.1733 125.502 74.44C125.107 74.7067 124.808 75.064 124.606 75.512C124.403 75.96 124.302 76.4613 124.302 77.016C124.302 77.72 124.43 78.296 124.686 78.744C124.942 79.1813 125.272 79.5067 125.678 79.72C126.083 79.9227 126.504 80.024 126.942 80.024ZM132.774 81V73.064H133.99L134.102 74.584C134.347 74.0613 134.721 73.6453 135.222 73.336C135.723 73.0267 136.342 72.872 137.078 72.872V74.28H136.71C135.835 74.28 135.185 74.5147 134.758 74.984C134.331 75.4533 134.118 76.1253 134.118 77V81H132.774ZM138.427 81V69.8H139.771V76.408L143.019 73.064H144.667L141.147 76.648L145.115 81H143.403L139.771 76.888V81H138.427ZM153.971 81.192C153.235 81.192 152.569 81.0213 151.971 80.68C151.385 80.3387 150.921 79.8587 150.579 79.24C150.238 78.6107 150.067 77.8747 150.067 77.032C150.067 76.2 150.227 75.4747 150.547 74.856C150.878 74.2267 151.337 73.7413 151.923 73.4C152.521 73.048 153.214 72.872 154.003 72.872C154.75 72.872 155.401 73.0373 155.955 73.368C156.51 73.6987 156.942 74.1467 157.251 74.712C157.571 75.2667 157.731 75.8907 157.731 76.584C157.731 76.7333 157.731 76.8507 157.731 76.936C157.731 77.0213 157.726 77.1547 157.715 77.336H151.395C151.427 77.8587 151.55 78.328 151.763 78.744C151.987 79.1493 152.286 79.4693 152.659 79.704C153.043 79.9387 153.481 80.056 153.971 80.056C154.526 80.056 154.99 79.928 155.363 79.672C155.737 79.416 156.009 79.0693 156.179 78.632H157.507C157.369 79.1227 157.139 79.56 156.819 79.944C156.499 80.328 156.099 80.632 155.619 80.856C155.15 81.08 154.601 81.192 153.971 81.192ZM151.411 76.296H156.403C156.371 75.5813 156.126 75.0213 155.667 74.616C155.209 74.2107 154.643 74.008 153.971 74.008C153.331 74.008 152.761 74.2053 152.259 74.6C151.769 74.984 151.486 75.5493 151.411 76.296ZM159.353 81V73.064H160.569L160.665 74.216C160.921 73.7893 161.262 73.4587 161.689 73.224C162.115 72.9893 162.595 72.872 163.129 72.872C163.758 72.872 164.297 73 164.745 73.256C165.203 73.512 165.555 73.9013 165.801 74.424C166.078 73.944 166.457 73.5653 166.937 73.288C167.427 73.0107 167.955 72.872 168.521 72.872C169.161 72.872 169.71 73 170.169 73.256C170.638 73.5013 171.001 73.8853 171.257 74.408C171.513 74.92 171.641 75.5707 171.641 76.36V81H170.313V76.504C170.313 75.6827 170.147 75.064 169.817 74.648C169.486 74.232 169.011 74.024 168.393 74.024C167.753 74.024 167.219 74.2747 166.793 74.776C166.377 75.2667 166.169 75.9707 166.169 76.888V81H164.825V76.504C164.825 75.6827 164.659 75.064 164.329 74.648C163.998 74.232 163.523 74.024 162.905 74.024C162.275 74.024 161.747 74.2747 161.321 74.776C160.905 75.2667 160.697 75.9707 160.697 76.888V81H159.353ZM176.145 81.192C175.601 81.192 175.105 81.1013 174.657 80.92C174.209 80.7387 173.852 80.4667 173.585 80.104C173.329 79.7307 173.201 79.2773 173.201 78.744C173.201 78.1253 173.361 77.6347 173.681 77.272C174.001 76.8987 174.423 76.632 174.945 76.472C175.479 76.3013 176.049 76.216 176.657 76.216H178.801C178.801 75.6613 178.705 75.224 178.513 74.904C178.332 74.584 178.092 74.3547 177.793 74.216C177.495 74.0773 177.164 74.008 176.801 74.008C176.279 74.008 175.825 74.136 175.441 74.392C175.068 74.6373 174.833 75.0213 174.737 75.544H173.361C173.415 74.968 173.607 74.4827 173.937 74.088C174.268 73.6933 174.684 73.3947 175.185 73.192C175.697 72.9787 176.236 72.872 176.801 72.872C177.601 72.872 178.247 73.0213 178.737 73.32C179.228 73.608 179.585 73.9973 179.809 74.488C180.033 74.9787 180.145 75.5227 180.145 76.12V78.552C180.145 78.9467 180.193 79.2453 180.289 79.448C180.385 79.6507 180.631 79.7733 181.025 79.816V81C180.673 81 180.353 80.9573 180.065 80.872C179.777 80.776 179.532 80.6267 179.329 80.424C179.137 80.2107 178.999 79.9333 178.913 79.592C178.647 80.04 178.279 80.4187 177.809 80.728C177.351 81.0373 176.796 81.192 176.145 81.192ZM176.353 80.056C176.887 80.056 177.335 79.9227 177.697 79.656C178.06 79.3787 178.332 79.0267 178.513 78.6C178.705 78.1733 178.801 77.7307 178.801 77.272V77.256H176.769C176.396 77.256 176.044 77.2987 175.713 77.384C175.383 77.4587 175.116 77.6027 174.913 77.816C174.711 78.0187 174.609 78.3067 174.609 78.68C174.609 79.16 174.78 79.512 175.121 79.736C175.463 79.9493 175.873 80.056 176.353 80.056ZM183.302 71.304C183.035 71.304 182.811 71.2187 182.63 71.048C182.459 70.8667 182.374 70.6427 182.374 70.376C182.374 70.12 182.459 69.9067 182.63 69.736C182.811 69.5653 183.035 69.48 183.302 69.48C183.558 69.48 183.777 69.5653 183.958 69.736C184.139 69.9067 184.23 70.12 184.23 70.376C184.23 70.6427 184.139 70.8667 183.958 71.048C183.777 71.2187 183.558 71.304 183.302 71.304ZM182.63 81V73.064H183.974V81H182.63ZM186.154 81V69.8H187.498V81H186.154ZM196.751 81C196.026 81 195.455 80.824 195.039 80.472C194.623 80.12 194.415 79.4853 194.415 78.568V74.2H193.039V73.064H194.415V71.16H195.759V73.064H197.983V74.2H195.759V78.568C195.759 79.0693 195.861 79.4107 196.063 79.592C196.266 79.7627 196.623 79.848 197.135 79.848H197.983V81H196.751ZM203.088 81.192C202.363 81.192 201.696 81.032 201.088 80.712C200.48 80.3813 199.995 79.9067 199.632 79.288C199.269 78.6587 199.088 77.9013 199.088 77.016C199.088 76.1733 199.264 75.4427 199.616 74.824C199.979 74.2053 200.464 73.7253 201.072 73.384C201.691 73.0427 202.384 72.872 203.152 72.872C203.888 72.872 204.56 73.032 205.168 73.352C205.787 73.672 206.283 74.1413 206.656 74.76C207.029 75.3787 207.216 76.1307 207.216 77.016C207.216 77.8267 207.04 78.5467 206.688 79.176C206.336 79.8053 205.845 80.3013 205.216 80.664C204.597 81.016 203.888 81.192 203.088 81.192ZM203.088 80.024C203.611 80.024 204.08 79.9013 204.496 79.656C204.912 79.4 205.243 79.048 205.488 78.6C205.733 78.152 205.856 77.624 205.856 77.016C205.856 76.44 205.749 75.928 205.536 75.48C205.323 75.032 205.013 74.68 204.608 74.424C204.203 74.168 203.712 74.04 203.136 74.04C202.549 74.04 202.053 74.1733 201.648 74.44C201.253 74.7067 200.955 75.064 200.752 75.512C200.549 75.96 200.448 76.4613 200.448 77.016C200.448 77.72 200.576 78.296 200.832 78.744C201.088 79.1813 201.419 79.5067 201.824 79.72C202.229 79.9227 202.651 80.024 203.088 80.024ZM216.147 84.712C215.517 84.712 214.915 84.632 214.339 84.472C213.763 84.312 213.293 84.04 212.931 83.656C212.579 83.2827 212.403 82.7813 212.403 82.152C212.403 81.7147 212.504 81.352 212.707 81.064C212.909 80.776 213.176 80.5573 213.507 80.408C213.251 80.2587 213.043 80.072 212.883 79.848C212.723 79.624 212.643 79.368 212.643 79.08C212.643 78.44 212.931 77.9227 213.507 77.528C213.293 77.2827 213.123 77.0107 212.995 76.712C212.877 76.4027 212.819 76.0613 212.819 75.688C212.819 75.1013 212.952 74.6 213.219 74.184C213.496 73.7573 213.869 73.432 214.339 73.208C214.819 72.984 215.363 72.872 215.971 72.872C216.419 72.872 216.84 72.936 217.235 73.064H219.939V74.2H218.707C218.845 74.4133 218.947 74.648 219.011 74.904C219.085 75.1493 219.123 75.4107 219.123 75.688C219.123 76.296 218.979 76.808 218.691 77.224C218.413 77.64 218.035 77.96 217.555 78.184C217.085 78.3973 216.557 78.504 215.971 78.504C215.672 78.504 215.4 78.472 215.155 78.408C214.909 78.344 214.664 78.2533 214.419 78.136C214.141 78.2747 214.003 78.488 214.003 78.776C214.003 79.3093 214.451 79.576 215.347 79.576H216.675C217.272 79.576 217.8 79.656 218.259 79.816C218.717 79.9653 219.075 80.216 219.331 80.568C219.597 80.9093 219.731 81.3787 219.731 81.976C219.731 82.584 219.56 83.0907 219.219 83.496C218.877 83.9013 218.435 84.2053 217.891 84.408C217.347 84.6107 216.765 84.712 216.147 84.712ZM216.115 83.592C216.755 83.592 217.299 83.4693 217.747 83.224C218.195 82.9893 218.419 82.6267 218.419 82.136C218.419 81.2187 217.864 80.76 216.755 80.76H215.395C214.872 80.76 214.461 80.872 214.163 81.096C213.864 81.3307 213.715 81.6773 213.715 82.136C213.715 82.488 213.827 82.7707 214.051 82.984C214.275 83.1973 214.568 83.352 214.931 83.448C215.293 83.544 215.688 83.592 216.115 83.592ZM215.939 77.384C216.493 77.384 216.947 77.224 217.299 76.904C217.651 76.584 217.827 76.1787 217.827 75.688C217.827 75.1973 217.651 74.792 217.299 74.472C216.947 74.152 216.493 73.992 215.939 73.992C215.384 73.992 214.936 74.152 214.595 74.472C214.264 74.792 214.099 75.1973 214.099 75.688C214.099 76.1787 214.259 76.584 214.579 76.904C214.909 77.224 215.363 77.384 215.939 77.384ZM224.746 81.192C224.01 81.192 223.344 81.0213 222.746 80.68C222.16 80.3387 221.696 79.8587 221.354 79.24C221.013 78.6107 220.842 77.8747 220.842 77.032C220.842 76.2 221.002 75.4747 221.322 74.856C221.653 74.2267 222.112 73.7413 222.698 73.4C223.296 73.048 223.989 72.872 224.778 72.872C225.525 72.872 226.176 73.0373 226.73 73.368C227.285 73.6987 227.717 74.1467 228.026 74.712C228.346 75.2667 228.506 75.8907 228.506 76.584C228.506 76.7333 228.506 76.8507 228.506 76.936C228.506 77.0213 228.501 77.1547 228.49 77.336H222.17C222.202 77.8587 222.325 78.328 222.538 78.744C222.762 79.1493 223.061 79.4693 223.434 79.704C223.818 79.9387 224.256 80.056 224.746 80.056C225.301 80.056 225.765 79.928 226.138 79.672C226.512 79.416 226.784 79.0693 226.954 78.632H228.282C228.144 79.1227 227.914 79.56 227.594 79.944C227.274 80.328 226.874 80.632 226.394 80.856C225.925 81.08 225.376 81.192 224.746 81.192ZM222.186 76.296H227.178C227.146 75.5813 226.901 75.0213 226.442 74.616C225.984 74.2107 225.418 74.008 224.746 74.008C224.106 74.008 223.536 74.2053 223.034 74.6C222.544 74.984 222.261 75.5493 222.186 76.296ZM232.998 81C232.273 81 231.702 80.824 231.286 80.472C230.87 80.12 230.662 79.4853 230.662 78.568V74.2H229.286V73.064H230.662V71.16H232.006V73.064H234.23V74.2H232.006V78.568C232.006 79.0693 232.107 79.4107 232.31 79.592C232.513 79.7627 232.87 79.848 233.382 79.848H234.23V81H232.998ZM243.004 81.192C242.375 81.192 241.809 81.0853 241.308 80.872C240.807 80.648 240.401 80.3387 240.092 79.944C239.793 79.5387 239.607 79.064 239.532 78.52H240.908C240.993 78.936 241.212 79.2987 241.564 79.608C241.927 79.9067 242.412 80.056 243.02 80.056C243.585 80.056 244.001 79.9387 244.268 79.704C244.535 79.4587 244.668 79.1707 244.668 78.84C244.668 78.52 244.588 78.2747 244.428 78.104C244.279 77.9333 244.055 77.8053 243.756 77.72C243.468 77.624 243.111 77.5333 242.684 77.448C242.236 77.352 241.799 77.224 241.372 77.064C240.945 76.8933 240.593 76.664 240.316 76.376C240.039 76.088 239.9 75.7093 239.9 75.24C239.9 74.7707 240.017 74.36 240.252 74.008C240.487 73.656 240.817 73.3787 241.244 73.176C241.681 72.9733 242.193 72.872 242.78 72.872C243.623 72.872 244.311 73.0853 244.844 73.512C245.388 73.928 245.703 74.5253 245.788 75.304H244.46C244.407 74.8987 244.231 74.584 243.932 74.36C243.644 74.1253 243.255 74.008 242.764 74.008C242.284 74.008 241.911 74.1093 241.644 74.312C241.388 74.5147 241.26 74.7813 241.26 75.112C241.26 75.3253 241.335 75.5067 241.484 75.656C241.633 75.8053 241.847 75.9333 242.124 76.04C242.412 76.1467 242.748 76.2427 243.132 76.328C243.665 76.4347 244.151 76.568 244.588 76.728C245.025 76.888 245.377 77.1227 245.644 77.432C245.911 77.7307 246.044 78.1627 246.044 78.728C246.055 79.1973 245.932 79.6187 245.676 79.992C245.431 80.3653 245.079 80.6587 244.62 80.872C244.172 81.0853 243.633 81.192 243.004 81.192ZM250.581 81C249.855 81 249.285 80.824 248.869 80.472C248.453 80.12 248.245 79.4853 248.245 78.568V74.2H246.869V73.064H248.245V71.16H249.589V73.064H251.813V74.2H249.589V78.568C249.589 79.0693 249.69 79.4107 249.893 79.592C250.095 79.7627 250.453 79.848 250.965 79.848H251.813V81H250.581ZM256.112 81.192C255.568 81.192 255.072 81.1013 254.624 80.92C254.176 80.7387 253.819 80.4667 253.552 80.104C253.296 79.7307 253.168 79.2773 253.168 78.744C253.168 78.1253 253.328 77.6347 253.648 77.272C253.968 76.8987 254.389 76.632 254.912 76.472C255.445 76.3013 256.016 76.216 256.624 76.216H258.768C258.768 75.6613 258.672 75.224 258.48 74.904C258.299 74.584 258.059 74.3547 257.76 74.216C257.461 74.0773 257.131 74.008 256.768 74.008C256.245 74.008 255.792 74.136 255.408 74.392C255.035 74.6373 254.8 75.0213 254.704 75.544H253.328C253.381 74.968 253.573 74.4827 253.904 74.088C254.235 73.6933 254.651 73.3947 255.152 73.192C255.664 72.9787 256.203 72.872 256.768 72.872C257.568 72.872 258.213 73.0213 258.704 73.32C259.195 73.608 259.552 73.9973 259.776 74.488C260 74.9787 260.112 75.5227 260.112 76.12V78.552C260.112 78.9467 260.16 79.2453 260.256 79.448C260.352 79.6507 260.597 79.7733 260.992 79.816V81C260.64 81 260.32 80.9573 260.032 80.872C259.744 80.776 259.499 80.6267 259.296 80.424C259.104 80.2107 258.965 79.9333 258.88 79.592C258.613 80.04 258.245 80.4187 257.776 80.728C257.317 81.0373 256.763 81.192 256.112 81.192ZM256.32 80.056C256.853 80.056 257.301 79.9227 257.664 79.656C258.027 79.3787 258.299 79.0267 258.48 78.6C258.672 78.1733 258.768 77.7307 258.768 77.272V77.256H256.736C256.363 77.256 256.011 77.2987 255.68 77.384C255.349 77.4587 255.083 77.6027 254.88 77.816C254.677 78.0187 254.576 78.3067 254.576 78.68C254.576 79.16 254.747 79.512 255.088 79.736C255.429 79.9493 255.84 80.056 256.32 80.056ZM262.453 81V73.064H263.669L263.781 74.584C264.026 74.0613 264.399 73.6453 264.901 73.336C265.402 73.0267 266.021 72.872 266.757 72.872V74.28H266.389C265.514 74.28 264.863 74.5147 264.437 74.984C264.01 75.4533 263.797 76.1253 263.797 77V81H262.453ZM271.241 81C270.516 81 269.945 80.824 269.529 80.472C269.113 80.12 268.905 79.4853 268.905 78.568V74.2H267.529V73.064H268.905V71.16H270.249V73.064H272.473V74.2H270.249V78.568C270.249 79.0693 270.351 79.4107 270.553 79.592C270.756 79.7627 271.113 79.848 271.625 79.848H272.473V81H271.241ZM277.482 81.192C276.746 81.192 276.079 81.0213 275.482 80.68C274.895 80.3387 274.431 79.8587 274.09 79.24C273.749 78.6107 273.578 77.8747 273.578 77.032C273.578 76.2 273.738 75.4747 274.058 74.856C274.389 74.2267 274.847 73.7413 275.434 73.4C276.031 73.048 276.725 72.872 277.514 72.872C278.261 72.872 278.911 73.0373 279.466 73.368C280.021 73.6987 280.453 74.1467 280.762 74.712C281.082 75.2667 281.242 75.8907 281.242 76.584C281.242 76.7333 281.242 76.8507 281.242 76.936C281.242 77.0213 281.237 77.1547 281.226 77.336H274.906C274.938 77.8587 275.061 78.328 275.274 78.744C275.498 79.1493 275.797 79.4693 276.17 79.704C276.554 79.9387 276.991 80.056 277.482 80.056C278.037 80.056 278.501 79.928 278.874 79.672C279.247 79.416 279.519 79.0693 279.69 78.632H281.018C280.879 79.1227 280.65 79.56 280.33 79.944C280.01 80.328 279.61 80.632 279.13 80.856C278.661 81.08 278.111 81.192 277.482 81.192ZM274.922 76.296H279.914C279.882 75.5813 279.637 75.0213 279.178 74.616C278.719 74.2107 278.154 74.008 277.482 74.008C276.842 74.008 276.271 74.2053 275.77 74.6C275.279 74.984 274.997 75.5493 274.922 76.296ZM286.463 81.192C285.653 81.192 284.954 81.0053 284.367 80.632C283.781 80.2587 283.327 79.7573 283.007 79.128C282.687 78.4987 282.527 77.7947 282.527 77.016C282.527 76.248 282.682 75.5493 282.991 74.92C283.311 74.2907 283.765 73.7947 284.351 73.432C284.938 73.0587 285.647 72.872 286.479 72.872C287.13 72.872 287.706 73.0053 288.207 73.272C288.709 73.5387 289.098 73.912 289.375 74.392V69.8H290.719V81H289.503L289.375 79.688C289.119 80.072 288.751 80.4187 288.271 80.728C287.791 81.0373 287.189 81.192 286.463 81.192ZM286.607 80.024C287.194 80.024 287.69 79.8907 288.095 79.624C288.501 79.3467 288.805 78.984 289.007 78.536C289.221 78.0773 289.327 77.576 289.327 77.032C289.327 76.456 289.221 75.944 289.007 75.496C288.794 75.048 288.485 74.696 288.079 74.44C287.674 74.1733 287.183 74.04 286.607 74.04C286.095 74.04 285.637 74.1627 285.231 74.408C284.826 74.6533 284.501 75 284.255 75.448C284.021 75.8853 283.903 76.4133 283.903 77.032C283.903 77.6507 284.026 78.184 284.271 78.632C284.517 79.08 284.842 79.4267 285.247 79.672C285.663 79.9067 286.117 80.024 286.607 80.024Z" fill="#525252"/>
<path d="M438 101.5C443.799 101.5 448.5 106.201 448.5 112V152C448.5 157.799 443.799 162.5 438 162.5H42C36.201 162.5 31.5 157.799 31.5 152V112C31.5 106.201 36.201 101.5 42 101.5H438Z" fill="white"/>
<path d="M438 101.5C443.799 101.5 448.5 106.201 448.5 112V152C448.5 157.799 443.799 162.5 438 162.5H42C36.201 162.5 31.5 157.799 31.5 152V112C31.5 106.201 36.201 101.5 42 101.5H438Z" stroke="#DCDEE0"/>
<path d="M49.968 137V132.744L46.32 125.8H47.84L50.64 131.464L53.44 125.8H54.944L51.312 132.744V137H49.968ZM58.483 137.192C57.7577 137.192 57.091 137.032 56.483 136.712C55.875 136.381 55.3897 135.907 55.027 135.288C54.6643 134.659 54.483 133.901 54.483 133.016C54.483 132.173 54.659 131.443 55.011 130.824C55.3737 130.205 55.859 129.725 56.467 129.384C57.0857 129.043 57.779 128.872 58.547 128.872C59.283 128.872 59.955 129.032 60.563 129.352C61.1817 129.672 61.6777 130.141 62.051 130.76C62.4243 131.379 62.611 132.131 62.611 133.016C62.611 133.827 62.435 134.547 62.083 135.176C61.731 135.805 61.2403 136.301 60.611 136.664C59.9923 137.016 59.283 137.192 58.483 137.192ZM58.483 136.024C59.0057 136.024 59.475 135.901 59.891 135.656C60.307 135.4 60.6377 135.048 60.883 134.6C61.1283 134.152 61.251 133.624 61.251 133.016C61.251 132.44 61.1443 131.928 60.931 131.48C60.7177 131.032 60.4083 130.68 60.003 130.424C59.5977 130.168 59.107 130.04 58.531 130.04C57.9443 130.04 57.4483 130.173 57.043 130.44C56.6483 130.707 56.3497 131.064 56.147 131.512C55.9443 131.96 55.843 132.461 55.843 133.016C55.843 133.72 55.971 134.296 56.227 134.744C56.483 135.181 56.8137 135.507 57.219 135.72C57.6243 135.923 58.0457 136.024 58.483 136.024ZM67.2273 137.192C66.6086 137.192 66.0646 137.069 65.5953 136.824C65.1366 136.568 64.7793 136.184 64.5233 135.672C64.2673 135.149 64.1393 134.493 64.1393 133.704V129.064H65.4833V133.56C65.4833 134.381 65.6539 135 65.9953 135.416C66.3366 135.832 66.8486 136.04 67.5313 136.04C68.2139 136.04 68.7793 135.795 69.2273 135.304C69.6859 134.803 69.9153 134.093 69.9153 133.176V129.064H71.2593V137H70.0433L69.9633 135.576C69.7073 136.077 69.3393 136.472 68.8593 136.76C68.3793 137.048 67.8353 137.192 67.2273 137.192ZM73.3115 137V129.064H74.5275L74.6395 130.584C74.8848 130.061 75.2582 129.645 75.7595 129.336C76.2608 129.027 76.8795 128.872 77.6155 128.872V130.28H77.2475C76.3728 130.28 75.7222 130.515 75.2955 130.984C74.8688 131.453 74.6555 132.125 74.6555 133V137H73.3115ZM86.6064 137.192C85.8704 137.192 85.2037 137.021 84.6064 136.68C84.0197 136.339 83.5557 135.859 83.2144 135.24C82.873 134.611 82.7024 133.875 82.7024 133.032C82.7024 132.2 82.8624 131.475 83.1824 130.856C83.513 130.227 83.9717 129.741 84.5584 129.4C85.1557 129.048 85.849 128.872 86.6384 128.872C87.385 128.872 88.0357 129.037 88.5904 129.368C89.145 129.699 89.577 130.147 89.8864 130.712C90.2064 131.267 90.3664 131.891 90.3664 132.584C90.3664 132.733 90.3664 132.851 90.3664 132.936C90.3664 133.021 90.361 133.155 90.3504 133.336H84.0304C84.0624 133.859 84.185 134.328 84.3984 134.744C84.6224 135.149 84.921 135.469 85.2944 135.704C85.6784 135.939 86.1157 136.056 86.6064 136.056C87.161 136.056 87.625 135.928 87.9984 135.672C88.3717 135.416 88.6437 135.069 88.8144 134.632H90.1424C90.0037 135.123 89.7744 135.56 89.4544 135.944C89.1344 136.328 88.7344 136.632 88.2544 136.856C87.785 137.08 87.2357 137.192 86.6064 137.192ZM84.0464 132.296H89.0384C89.0064 131.581 88.761 131.021 88.3024 130.616C87.8437 130.211 87.2784 130.008 86.6064 130.008C85.9664 130.008 85.3957 130.205 84.8944 130.6C84.4037 130.984 84.121 131.549 84.0464 132.296ZM91.9878 137V129.064H93.2038L93.2998 130.216C93.5558 129.789 93.8971 129.459 94.3238 129.224C94.7504 128.989 95.2304 128.872 95.7638 128.872C96.3931 128.872 96.9318 129 97.3798 129.256C97.8384 129.512 98.1904 129.901 98.4358 130.424C98.7131 129.944 99.0918 129.565 99.5718 129.288C100.062 129.011 100.59 128.872 101.156 128.872C101.796 128.872 102.345 129 102.804 129.256C103.273 129.501 103.636 129.885 103.892 130.408C104.148 130.92 104.276 131.571 104.276 132.36V137H102.948V132.504C102.948 131.683 102.782 131.064 102.452 130.648C102.121 130.232 101.646 130.024 101.028 130.024C100.388 130.024 99.8544 130.275 99.4278 130.776C99.0118 131.267 98.8038 131.971 98.8038 132.888V137H97.4598V132.504C97.4598 131.683 97.2944 131.064 96.9638 130.648C96.6331 130.232 96.1584 130.024 95.5398 130.024C94.9104 130.024 94.3824 130.275 93.9558 130.776C93.5398 131.267 93.3318 131.971 93.3318 132.888V137H91.9878ZM108.78 137.192C108.236 137.192 107.74 137.101 107.292 136.92C106.844 136.739 106.487 136.467 106.22 136.104C105.964 135.731 105.836 135.277 105.836 134.744C105.836 134.125 105.996 133.635 106.316 133.272C106.636 132.899 107.058 132.632 107.58 132.472C108.114 132.301 108.684 132.216 109.292 132.216H111.436C111.436 131.661 111.34 131.224 111.148 130.904C110.967 130.584 110.727 130.355 110.428 130.216C110.13 130.077 109.799 130.008 109.436 130.008C108.914 130.008 108.46 130.136 108.076 130.392C107.703 130.637 107.468 131.021 107.372 131.544H105.996C106.05 130.968 106.242 130.483 106.572 130.088C106.903 129.693 107.319 129.395 107.82 129.192C108.332 128.979 108.871 128.872 109.436 128.872C110.236 128.872 110.882 129.021 111.372 129.32C111.863 129.608 112.22 129.997 112.444 130.488C112.668 130.979 112.78 131.523 112.78 132.12V134.552C112.78 134.947 112.828 135.245 112.924 135.448C113.02 135.651 113.266 135.773 113.66 135.816V137C113.308 137 112.988 136.957 112.7 136.872C112.412 136.776 112.167 136.627 111.964 136.424C111.772 136.211 111.634 135.933 111.548 135.592C111.282 136.04 110.914 136.419 110.444 136.728C109.986 137.037 109.431 137.192 108.78 137.192ZM108.988 136.056C109.522 136.056 109.97 135.923 110.332 135.656C110.695 135.379 110.967 135.027 111.148 134.6C111.34 134.173 111.436 133.731 111.436 133.272V133.256H109.404C109.031 133.256 108.679 133.299 108.348 133.384C108.018 133.459 107.751 133.603 107.548 133.816C107.346 134.019 107.244 134.307 107.244 134.68C107.244 135.16 107.415 135.512 107.756 135.736C108.098 135.949 108.508 136.056 108.988 136.056ZM115.937 127.304C115.67 127.304 115.446 127.219 115.265 127.048C115.094 126.867 115.009 126.643 115.009 126.376C115.009 126.12 115.094 125.907 115.265 125.736C115.446 125.565 115.67 125.48 115.937 125.48C116.193 125.48 116.412 125.565 116.593 125.736C116.774 125.907 116.865 126.12 116.865 126.376C116.865 126.643 116.774 126.867 116.593 127.048C116.412 127.219 116.193 127.304 115.937 127.304ZM115.265 137V129.064H116.609V137H115.265ZM118.789 137V125.8H120.133V137H118.789Z" fill="#525252"/>
<path d="M32 196C32 190.477 36.4772 186 42 186H438C443.523 186 448 190.477 448 196V208C448 213.523 443.523 218 438 218H42C36.4771 218 32 213.523 32 208V196Z" fill="#0A7350"/>
<path d="M183.047 207.168C182.048 207.168 181.194 206.949 180.485 206.51C179.785 206.062 179.248 205.46 178.875 204.704C178.511 203.939 178.329 203.071 178.329 202.1C178.329 201.139 178.511 200.275 178.875 199.51C179.239 198.745 179.771 198.143 180.471 197.704C181.18 197.256 182.039 197.032 183.047 197.032C184.195 197.032 185.133 197.312 185.861 197.872C186.589 198.432 187.051 199.216 187.247 200.224H185.609C185.469 199.655 185.184 199.202 184.755 198.866C184.326 198.53 183.752 198.362 183.033 198.362C182.352 198.362 181.773 198.521 181.297 198.838C180.821 199.155 180.462 199.594 180.219 200.154C179.976 200.714 179.855 201.363 179.855 202.1C179.855 202.847 179.976 203.5 180.219 204.06C180.471 204.62 180.835 205.059 181.311 205.376C181.787 205.684 182.361 205.838 183.033 205.838C183.752 205.838 184.326 205.679 184.755 205.362C185.184 205.035 185.469 204.597 185.609 204.046H187.247C187.051 205.026 186.589 205.791 185.861 206.342C185.133 206.893 184.195 207.168 183.047 207.168ZM191.82 207.168C191.148 207.168 190.541 207.023 190 206.734C189.468 206.435 189.043 206.011 188.726 205.46C188.418 204.909 188.264 204.261 188.264 203.514C188.264 202.767 188.422 202.123 188.74 201.582C189.066 201.041 189.5 200.625 190.042 200.336C190.592 200.037 191.204 199.888 191.876 199.888C192.548 199.888 193.154 200.033 193.696 200.322C194.237 200.611 194.671 201.027 194.998 201.568C195.324 202.109 195.488 202.758 195.488 203.514C195.488 204.223 195.329 204.853 195.012 205.404C194.704 205.955 194.274 206.389 193.724 206.706C193.173 207.014 192.538 207.168 191.82 207.168ZM191.834 205.88C192.244 205.88 192.608 205.777 192.926 205.572C193.252 205.367 193.509 205.087 193.696 204.732C193.882 204.368 193.976 203.957 193.976 203.5C193.976 203.033 193.882 202.627 193.696 202.282C193.518 201.927 193.271 201.657 192.954 201.47C192.636 201.274 192.268 201.176 191.848 201.176C191.409 201.176 191.031 201.279 190.714 201.484C190.406 201.689 190.168 201.969 190 202.324C189.841 202.669 189.762 203.066 189.762 203.514C189.762 204.027 189.855 204.461 190.042 204.816C190.238 205.171 190.494 205.437 190.812 205.614C191.129 205.791 191.47 205.88 191.834 205.88ZM196.674 207V200.056H198.102L198.13 201.078C198.364 200.695 198.686 200.401 199.096 200.196C199.516 199.991 199.96 199.888 200.426 199.888C201.238 199.888 201.896 200.145 202.4 200.658C202.904 201.162 203.156 201.918 203.156 202.926V207H201.672V203.108C201.672 202.483 201.532 202.002 201.252 201.666C200.972 201.321 200.552 201.148 199.992 201.148C199.442 201.148 198.998 201.339 198.662 201.722C198.326 202.095 198.158 202.613 198.158 203.276V207H196.674ZM207.236 207C206.545 207 206.013 206.832 205.64 206.496C205.266 206.16 205.08 205.609 205.08 204.844V201.302H204.03V200.056H205.08V198.376H206.564V200.056H208.328V201.302H206.564V204.844C206.564 205.199 206.643 205.437 206.802 205.558C206.96 205.679 207.208 205.74 207.544 205.74H208.328V207H207.236ZM210.359 198.838C210.089 198.838 209.855 198.745 209.659 198.558C209.473 198.362 209.379 198.124 209.379 197.844C209.379 197.573 209.473 197.345 209.659 197.158C209.855 196.971 210.089 196.878 210.359 196.878C210.639 196.878 210.873 196.971 211.059 197.158C211.255 197.345 211.353 197.573 211.353 197.844C211.353 198.124 211.255 198.362 211.059 198.558C210.873 198.745 210.639 198.838 210.359 198.838ZM209.617 207V200.056H211.101V207H209.617ZM212.647 207V200.056H214.075L214.103 201.078C214.336 200.695 214.658 200.401 215.069 200.196C215.489 199.991 215.932 199.888 216.399 199.888C217.211 199.888 217.869 200.145 218.373 200.658C218.877 201.162 219.129 201.918 219.129 202.926V207H217.645V203.108C217.645 202.483 217.505 202.002 217.225 201.666C216.945 201.321 216.525 201.148 215.965 201.148C215.414 201.148 214.971 201.339 214.635 201.722C214.299 202.095 214.131 202.613 214.131 203.276V207H212.647ZM223.096 207.168C222.527 207.168 222.037 207.051 221.626 206.818C221.215 206.575 220.898 206.23 220.674 205.782C220.45 205.325 220.338 204.779 220.338 204.144V200.056H221.808V203.948C221.808 204.564 221.948 205.045 222.228 205.39C222.517 205.735 222.937 205.908 223.488 205.908C224.057 205.908 224.505 205.721 224.832 205.348C225.159 204.965 225.322 204.443 225.322 203.78V200.056H226.806V207H225.378L225.35 205.964C225.117 206.347 224.799 206.645 224.398 206.86C224.006 207.065 223.572 207.168 223.096 207.168ZM231.487 207.168C230.806 207.168 230.204 207.014 229.681 206.706C229.159 206.398 228.748 205.969 228.449 205.418C228.16 204.867 228.015 204.237 228.015 203.528C228.015 202.791 228.16 202.151 228.449 201.61C228.739 201.069 229.145 200.649 229.667 200.35C230.199 200.042 230.811 199.888 231.501 199.888C232.173 199.888 232.761 200.037 233.265 200.336C233.769 200.625 234.161 201.022 234.441 201.526C234.731 202.03 234.875 202.604 234.875 203.248C234.875 203.379 234.871 203.491 234.861 203.584C234.861 203.677 234.852 203.789 234.833 203.92H229.499C229.527 204.312 229.625 204.662 229.793 204.97C229.961 205.269 230.19 205.507 230.479 205.684C230.769 205.852 231.1 205.936 231.473 205.936C231.875 205.936 232.215 205.847 232.495 205.67C232.785 205.483 232.999 205.222 233.139 204.886H234.679C234.558 205.306 234.353 205.689 234.063 206.034C233.783 206.379 233.429 206.655 232.999 206.86C232.57 207.065 232.066 207.168 231.487 207.168ZM229.513 202.87H233.363C233.345 202.329 233.153 201.904 232.789 201.596C232.425 201.279 231.982 201.12 231.459 201.12C230.993 201.12 230.568 201.265 230.185 201.554C229.803 201.843 229.579 202.282 229.513 202.87ZM240.708 207L238.664 200.056H240.148L241.506 205.418L242.99 200.056H244.6L246.084 205.404L247.428 200.056H248.884L246.84 206.986H245.272L243.774 201.708L242.276 207H240.708ZM250.521 198.838C250.251 198.838 250.017 198.745 249.821 198.558C249.635 198.362 249.541 198.124 249.541 197.844C249.541 197.573 249.635 197.345 249.821 197.158C250.017 196.971 250.251 196.878 250.521 196.878C250.801 196.878 251.035 196.971 251.221 197.158C251.417 197.345 251.515 197.573 251.515 197.844C251.515 198.124 251.417 198.362 251.221 198.558C251.035 198.745 250.801 198.838 250.521 198.838ZM249.779 207V200.056H251.263V207H249.779ZM255.553 207C254.862 207 254.33 206.832 253.957 206.496C253.584 206.16 253.397 205.609 253.397 204.844V201.302H252.347V200.056H253.397V198.376H254.881V200.056H256.645V201.302H254.881V204.844C254.881 205.199 254.96 205.437 255.119 205.558C255.278 205.679 255.525 205.74 255.861 205.74H256.645V207H255.553ZM257.837 207V197.2H259.321V201.05C259.554 200.677 259.881 200.392 260.301 200.196C260.721 199.991 261.16 199.888 261.617 199.888C262.42 199.888 263.068 200.145 263.563 200.658C264.067 201.162 264.319 201.918 264.319 202.926V207H262.849V203.108C262.849 202.483 262.709 202.002 262.429 201.666C262.149 201.321 261.734 201.148 261.183 201.148C260.623 201.148 260.17 201.339 259.825 201.722C259.489 202.095 259.321 202.613 259.321 203.276V207H257.837ZM272.193 207.168C271.512 207.168 270.91 207.014 270.387 206.706C269.864 206.398 269.454 205.969 269.155 205.418C268.866 204.867 268.721 204.237 268.721 203.528C268.721 202.791 268.866 202.151 269.155 201.61C269.444 201.069 269.85 200.649 270.373 200.35C270.905 200.042 271.516 199.888 272.207 199.888C272.879 199.888 273.467 200.037 273.971 200.336C274.475 200.625 274.867 201.022 275.147 201.526C275.436 202.03 275.581 202.604 275.581 203.248C275.581 203.379 275.576 203.491 275.567 203.584C275.567 203.677 275.558 203.789 275.539 203.92H270.205C270.233 204.312 270.331 204.662 270.499 204.97C270.667 205.269 270.896 205.507 271.185 205.684C271.474 205.852 271.806 205.936 272.179 205.936C272.58 205.936 272.921 205.847 273.201 205.67C273.49 205.483 273.705 205.222 273.845 204.886H275.385C275.264 205.306 275.058 205.689 274.769 206.034C274.489 206.379 274.134 206.655 273.705 206.86C273.276 207.065 272.772 207.168 272.193 207.168ZM270.219 202.87H274.069C274.05 202.329 273.859 201.904 273.495 201.596C273.131 201.279 272.688 201.12 272.165 201.12C271.698 201.12 271.274 201.265 270.891 201.554C270.508 201.843 270.284 202.282 270.219 202.87ZM276.681 207V200.056H278.109L278.151 200.952C278.375 200.607 278.669 200.345 279.033 200.168C279.406 199.981 279.812 199.888 280.251 199.888C280.783 199.888 281.259 200 281.679 200.224C282.108 200.439 282.439 200.779 282.673 201.246C282.915 200.817 283.247 200.485 283.667 200.252C284.087 200.009 284.544 199.888 285.039 199.888C285.58 199.888 286.061 200 286.481 200.224C286.901 200.439 287.227 200.77 287.461 201.218C287.703 201.666 287.825 202.231 287.825 202.912V207H286.355V203.108C286.355 202.483 286.219 202.002 285.949 201.666C285.678 201.33 285.277 201.162 284.745 201.162C284.213 201.162 283.788 201.349 283.471 201.722C283.153 202.095 282.995 202.613 282.995 203.276V207H281.525V203.108C281.525 202.483 281.385 202.002 281.105 201.666C280.825 201.33 280.428 201.162 279.915 201.162C279.429 201.162 279.014 201.339 278.669 201.694C278.333 202.039 278.165 202.567 278.165 203.276V207H276.681ZM291.386 207.168C290.938 207.168 290.527 207.089 290.154 206.93C289.78 206.762 289.482 206.519 289.258 206.202C289.034 205.885 288.922 205.502 288.922 205.054C288.922 204.522 289.052 204.097 289.314 203.78C289.584 203.453 289.944 203.215 290.392 203.066C290.849 202.907 291.348 202.828 291.89 202.828H293.654C293.654 202.427 293.588 202.105 293.458 201.862C293.327 201.61 293.15 201.428 292.926 201.316C292.702 201.195 292.44 201.134 292.142 201.134C291.75 201.134 291.404 201.227 291.106 201.414C290.816 201.591 290.634 201.876 290.56 202.268H289.062C289.108 201.764 289.276 201.335 289.566 200.98C289.864 200.625 290.242 200.355 290.7 200.168C291.157 199.981 291.642 199.888 292.156 199.888C292.828 199.888 293.383 200.014 293.822 200.266C294.27 200.509 294.601 200.849 294.816 201.288C295.04 201.727 295.152 202.226 295.152 202.786V204.914C295.161 205.185 295.217 205.385 295.32 205.516C295.432 205.637 295.628 205.707 295.908 205.726V207C295.534 207 295.208 206.958 294.928 206.874C294.657 206.79 294.433 206.664 294.256 206.496C294.078 206.319 293.938 206.095 293.836 205.824C293.612 206.197 293.285 206.515 292.856 206.776C292.426 207.037 291.936 207.168 291.386 207.168ZM291.736 205.95C292.118 205.95 292.454 205.857 292.744 205.67C293.033 205.474 293.257 205.222 293.416 204.914C293.574 204.597 293.654 204.256 293.654 203.892V203.864H292.002C291.731 203.864 291.474 203.897 291.232 203.962C290.998 204.027 290.807 204.139 290.658 204.298C290.518 204.447 290.448 204.657 290.448 204.928C290.448 205.283 290.574 205.544 290.826 205.712C291.078 205.871 291.381 205.95 291.736 205.95ZM297.707 198.838C297.437 198.838 297.203 198.745 297.007 198.558C296.821 198.362 296.727 198.124 296.727 197.844C296.727 197.573 296.821 197.345 297.007 197.158C297.203 196.971 297.437 196.878 297.707 196.878C297.987 196.878 298.221 196.971 298.407 197.158C298.603 197.345 298.701 197.573 298.701 197.844C298.701 198.124 298.603 198.362 298.407 198.558C298.221 198.745 297.987 198.838 297.707 198.838ZM296.965 207V200.056H298.449V207H296.965ZM299.995 207V197.2H301.479V207H299.995Z" fill="white"/>
<mask id="path-11-outside-3_15560_42287" maskUnits="userSpaceOnUse" x="8" y="242" width="464" height="67" fill="black">
<rect fill="white" x="8" y="242" width="464" height="67"/>
<path d="M8 242H472V308H8V242Z"/>
</mask>
<path d="M472 308V307H8V308V309H472V308Z" fill="#EBEBEB" mask="url(#path-11-outside-3_15560_42287)"/>
<path d="M133.92 280L137.532 270.2H138.778L142.376 280H141.13L140.234 277.48H136.062L135.152 280H133.92ZM136.412 276.528H139.884L138.148 271.684L136.412 276.528ZM143.623 280V270.2H144.799V280H143.623ZM146.586 280V273.056H147.65L147.748 274.386C147.963 273.929 148.29 273.565 148.728 273.294C149.167 273.023 149.708 272.888 150.352 272.888V274.12H150.03C149.265 274.12 148.696 274.325 148.322 274.736C147.949 275.147 147.762 275.735 147.762 276.5V280H146.586ZM154.395 280.168C153.751 280.168 153.167 280.019 152.645 279.72C152.131 279.421 151.725 279.001 151.427 278.46C151.128 277.909 150.979 277.265 150.979 276.528C150.979 275.8 151.119 275.165 151.399 274.624C151.688 274.073 152.089 273.649 152.603 273.35C153.125 273.042 153.732 272.888 154.423 272.888C155.076 272.888 155.645 273.033 156.131 273.322C156.616 273.611 156.994 274.003 157.265 274.498C157.545 274.983 157.685 275.529 157.685 276.136C157.685 276.267 157.685 276.369 157.685 276.444C157.685 276.519 157.68 276.635 157.671 276.794H152.141C152.169 277.251 152.276 277.662 152.463 278.026C152.659 278.381 152.92 278.661 153.247 278.866C153.583 279.071 153.965 279.174 154.395 279.174C154.88 279.174 155.286 279.062 155.613 278.838C155.939 278.614 156.177 278.311 156.327 277.928H157.489C157.367 278.357 157.167 278.74 156.887 279.076C156.607 279.412 156.257 279.678 155.837 279.874C155.426 280.07 154.945 280.168 154.395 280.168ZM152.155 275.884H156.523C156.495 275.259 156.28 274.769 155.879 274.414C155.477 274.059 154.983 273.882 154.395 273.882C153.835 273.882 153.335 274.055 152.897 274.4C152.467 274.736 152.22 275.231 152.155 275.884ZM161.413 280.168C160.937 280.168 160.503 280.089 160.111 279.93C159.719 279.771 159.407 279.533 159.173 279.216C158.949 278.889 158.837 278.493 158.837 278.026C158.837 277.485 158.977 277.055 159.257 276.738C159.537 276.411 159.906 276.178 160.363 276.038C160.83 275.889 161.329 275.814 161.861 275.814H163.737C163.737 275.329 163.653 274.946 163.485 274.666C163.327 274.386 163.117 274.185 162.855 274.064C162.594 273.943 162.305 273.882 161.987 273.882C161.53 273.882 161.133 273.994 160.797 274.218C160.471 274.433 160.265 274.769 160.181 275.226H158.977C159.024 274.722 159.192 274.297 159.481 273.952C159.771 273.607 160.135 273.345 160.573 273.168C161.021 272.981 161.493 272.888 161.987 272.888C162.687 272.888 163.252 273.019 163.681 273.28C164.111 273.532 164.423 273.873 164.619 274.302C164.815 274.731 164.913 275.207 164.913 275.73V277.858C164.913 278.203 164.955 278.465 165.039 278.642C165.123 278.819 165.338 278.927 165.683 278.964V280C165.375 280 165.095 279.963 164.843 279.888C164.591 279.804 164.377 279.673 164.199 279.496C164.031 279.309 163.91 279.067 163.835 278.768C163.602 279.16 163.28 279.491 162.869 279.762C162.468 280.033 161.983 280.168 161.413 280.168ZM161.595 279.174C162.062 279.174 162.454 279.057 162.771 278.824C163.089 278.581 163.327 278.273 163.485 277.9C163.653 277.527 163.737 277.139 163.737 276.738V276.724H161.959C161.633 276.724 161.325 276.761 161.035 276.836C160.746 276.901 160.513 277.027 160.335 277.214C160.158 277.391 160.069 277.643 160.069 277.97C160.069 278.39 160.219 278.698 160.517 278.894C160.816 279.081 161.175 279.174 161.595 279.174ZM169.947 280.168C169.238 280.168 168.627 280.005 168.113 279.678C167.6 279.351 167.203 278.913 166.923 278.362C166.643 277.811 166.503 277.195 166.503 276.514C166.503 275.842 166.639 275.231 166.909 274.68C167.189 274.129 167.586 273.695 168.099 273.378C168.613 273.051 169.233 272.888 169.961 272.888C170.531 272.888 171.035 273.005 171.473 273.238C171.912 273.471 172.253 273.798 172.495 274.218V270.2H173.671V280H172.607L172.495 278.852C172.271 279.188 171.949 279.491 171.529 279.762C171.109 280.033 170.582 280.168 169.947 280.168ZM170.073 279.146C170.587 279.146 171.021 279.029 171.375 278.796C171.73 278.553 171.996 278.236 172.173 277.844C172.36 277.443 172.453 277.004 172.453 276.528C172.453 276.024 172.36 275.576 172.173 275.184C171.987 274.792 171.716 274.484 171.361 274.26C171.007 274.027 170.577 273.91 170.073 273.91C169.625 273.91 169.224 274.017 168.869 274.232C168.515 274.447 168.23 274.75 168.015 275.142C167.81 275.525 167.707 275.987 167.707 276.528C167.707 277.069 167.815 277.536 168.029 277.928C168.244 278.32 168.529 278.623 168.883 278.838C169.247 279.043 169.644 279.146 170.073 279.146ZM176.204 283.08L177.744 279.72L174.762 273.056H176.036L178.332 278.46L180.768 273.056H181.986L177.436 283.08H176.204ZM186.653 280V270.2H187.829V274.246C188.062 273.817 188.393 273.485 188.823 273.252C189.252 273.009 189.719 272.888 190.223 272.888C191.025 272.888 191.669 273.14 192.155 273.644C192.64 274.139 192.883 274.904 192.883 275.94V280H191.721V276.066C191.721 275.347 191.571 274.806 191.273 274.442C190.983 274.078 190.549 273.896 189.971 273.896C189.364 273.896 188.855 274.115 188.445 274.554C188.034 274.983 187.829 275.599 187.829 276.402V280H186.653ZM196.834 280.168C196.358 280.168 195.924 280.089 195.532 279.93C195.14 279.771 194.828 279.533 194.594 279.216C194.37 278.889 194.258 278.493 194.258 278.026C194.258 277.485 194.398 277.055 194.678 276.738C194.958 276.411 195.327 276.178 195.784 276.038C196.251 275.889 196.75 275.814 197.282 275.814H199.158C199.158 275.329 199.074 274.946 198.906 274.666C198.748 274.386 198.538 274.185 198.276 274.064C198.015 273.943 197.726 273.882 197.408 273.882C196.951 273.882 196.554 273.994 196.218 274.218C195.892 274.433 195.686 274.769 195.602 275.226H194.398C194.445 274.722 194.613 274.297 194.902 273.952C195.192 273.607 195.556 273.345 195.994 273.168C196.442 272.981 196.914 272.888 197.408 272.888C198.108 272.888 198.673 273.019 199.102 273.28C199.532 273.532 199.844 273.873 200.04 274.302C200.236 274.731 200.334 275.207 200.334 275.73V277.858C200.334 278.203 200.376 278.465 200.46 278.642C200.544 278.819 200.759 278.927 201.104 278.964V280C200.796 280 200.516 279.963 200.264 279.888C200.012 279.804 199.798 279.673 199.62 279.496C199.452 279.309 199.331 279.067 199.256 278.768C199.023 279.16 198.701 279.491 198.29 279.762C197.889 280.033 197.404 280.168 196.834 280.168ZM197.016 279.174C197.483 279.174 197.875 279.057 198.192 278.824C198.51 278.581 198.748 278.273 198.906 277.9C199.074 277.527 199.158 277.139 199.158 276.738V276.724H197.38C197.054 276.724 196.746 276.761 196.456 276.836C196.167 276.901 195.934 277.027 195.756 277.214C195.579 277.391 195.49 277.643 195.49 277.97C195.49 278.39 195.64 278.698 195.938 278.894C196.237 279.081 196.596 279.174 197.016 279.174ZM204.111 280L201.479 273.056H202.711L204.797 278.866L206.897 273.056H208.101L205.469 280H204.111ZM212.036 280.168C211.392 280.168 210.809 280.019 210.286 279.72C209.773 279.421 209.367 279.001 209.068 278.46C208.77 277.909 208.62 277.265 208.62 276.528C208.62 275.8 208.76 275.165 209.04 274.624C209.33 274.073 209.731 273.649 210.244 273.35C210.767 273.042 211.374 272.888 212.064 272.888C212.718 272.888 213.287 273.033 213.772 273.322C214.258 273.611 214.636 274.003 214.906 274.498C215.186 274.983 215.326 275.529 215.326 276.136C215.326 276.267 215.326 276.369 215.326 276.444C215.326 276.519 215.322 276.635 215.312 276.794H209.782C209.81 277.251 209.918 277.662 210.104 278.026C210.3 278.381 210.562 278.661 210.888 278.866C211.224 279.071 211.607 279.174 212.036 279.174C212.522 279.174 212.928 279.062 213.254 278.838C213.581 278.614 213.819 278.311 213.968 277.928H215.13C215.009 278.357 214.808 278.74 214.528 279.076C214.248 279.412 213.898 279.678 213.478 279.874C213.068 280.07 212.587 280.168 212.036 280.168ZM209.796 275.884H214.164C214.136 275.259 213.922 274.769 213.52 274.414C213.119 274.059 212.624 273.882 212.036 273.882C211.476 273.882 210.977 274.055 210.538 274.4C210.109 274.736 209.862 275.231 209.796 275.884ZM222.62 280.168C222.144 280.168 221.71 280.089 221.318 279.93C220.926 279.771 220.613 279.533 220.38 279.216C220.156 278.889 220.044 278.493 220.044 278.026C220.044 277.485 220.184 277.055 220.464 276.738C220.744 276.411 221.113 276.178 221.57 276.038C222.037 275.889 222.536 275.814 223.068 275.814H224.944C224.944 275.329 224.86 274.946 224.692 274.666C224.533 274.386 224.323 274.185 224.062 274.064C223.801 273.943 223.511 273.882 223.194 273.882C222.737 273.882 222.34 273.994 222.004 274.218C221.677 274.433 221.472 274.769 221.388 275.226H220.184C220.231 274.722 220.399 274.297 220.688 273.952C220.977 273.607 221.341 273.345 221.78 273.168C222.228 272.981 222.699 272.888 223.194 272.888C223.894 272.888 224.459 273.019 224.888 273.28C225.317 273.532 225.63 273.873 225.826 274.302C226.022 274.731 226.12 275.207 226.12 275.73V277.858C226.12 278.203 226.162 278.465 226.246 278.642C226.33 278.819 226.545 278.927 226.89 278.964V280C226.582 280 226.302 279.963 226.05 279.888C225.798 279.804 225.583 279.673 225.406 279.496C225.238 279.309 225.117 279.067 225.042 278.768C224.809 279.16 224.487 279.491 224.076 279.762C223.675 280.033 223.189 280.168 222.62 280.168ZM222.802 279.174C223.269 279.174 223.661 279.057 223.978 278.824C224.295 278.581 224.533 278.273 224.692 277.9C224.86 277.527 224.944 277.139 224.944 276.738V276.724H223.166C222.839 276.724 222.531 276.761 222.242 276.836C221.953 276.901 221.719 277.027 221.542 277.214C221.365 277.391 221.276 277.643 221.276 277.97C221.276 278.39 221.425 278.698 221.724 278.894C222.023 279.081 222.382 279.174 222.802 279.174ZM228.168 280V273.056H229.232L229.302 274.302C229.526 273.863 229.848 273.518 230.268 273.266C230.688 273.014 231.164 272.888 231.696 272.888C232.517 272.888 233.171 273.14 233.656 273.644C234.151 274.139 234.398 274.904 234.398 275.94V280H233.222V276.066C233.222 275.347 233.073 274.806 232.774 274.442C232.475 274.078 232.027 273.896 231.43 273.896C230.833 273.896 230.333 274.115 229.932 274.554C229.54 274.983 229.344 275.599 229.344 276.402V280H228.168ZM241.929 280.168C241.453 280.168 241.019 280.089 240.627 279.93C240.235 279.771 239.922 279.533 239.689 279.216C239.465 278.889 239.353 278.493 239.353 278.026C239.353 277.485 239.493 277.055 239.773 276.738C240.053 276.411 240.421 276.178 240.879 276.038C241.345 275.889 241.845 275.814 242.377 275.814H244.253C244.253 275.329 244.169 274.946 244.001 274.666C243.842 274.386 243.632 274.185 243.371 274.064C243.109 273.943 242.82 273.882 242.503 273.882C242.045 273.882 241.649 273.994 241.313 274.218C240.986 274.433 240.781 274.769 240.697 275.226H239.493C239.539 274.722 239.707 274.297 239.997 273.952C240.286 273.607 240.65 273.345 241.089 273.168C241.537 272.981 242.008 272.888 242.503 272.888C243.203 272.888 243.767 273.019 244.197 273.28C244.626 273.532 244.939 273.873 245.135 274.302C245.331 274.731 245.429 275.207 245.429 275.73V277.858C245.429 278.203 245.471 278.465 245.555 278.642C245.639 278.819 245.853 278.927 246.199 278.964V280C245.891 280 245.611 279.963 245.359 279.888C245.107 279.804 244.892 279.673 244.715 279.496C244.547 279.309 244.425 279.067 244.351 278.768C244.117 279.16 243.795 279.491 243.385 279.762C242.983 280.033 242.498 280.168 241.929 280.168ZM242.111 279.174C242.577 279.174 242.969 279.057 243.287 278.824C243.604 278.581 243.842 278.273 244.001 277.9C244.169 277.527 244.253 277.139 244.253 276.738V276.724H242.475C242.148 276.724 241.84 276.761 241.551 276.836C241.261 276.901 241.028 277.027 240.851 277.214C240.673 277.391 240.585 277.643 240.585 277.97C240.585 278.39 240.734 278.698 241.033 278.894C241.331 279.081 241.691 279.174 242.111 279.174ZM250.505 280.168C249.851 280.168 249.259 280.019 248.727 279.72C248.204 279.421 247.789 279.001 247.481 278.46C247.173 277.909 247.019 277.265 247.019 276.528C247.019 275.809 247.168 275.179 247.467 274.638C247.765 274.087 248.176 273.658 248.699 273.35C249.221 273.042 249.823 272.888 250.505 272.888C251.326 272.888 252.017 273.103 252.577 273.532C253.146 273.961 253.505 274.535 253.655 275.254H252.451C252.357 274.825 252.129 274.493 251.765 274.26C251.401 274.017 250.976 273.896 250.491 273.896C249.996 273.896 249.581 274.017 249.245 274.26C248.909 274.503 248.652 274.825 248.475 275.226C248.307 275.627 248.223 276.061 248.223 276.528C248.223 277.041 248.321 277.499 248.517 277.9C248.713 278.301 248.979 278.614 249.315 278.838C249.66 279.062 250.052 279.174 250.491 279.174C250.976 279.174 251.401 279.057 251.765 278.824C252.129 278.581 252.357 278.241 252.451 277.802H253.655C253.561 278.269 253.37 278.679 253.081 279.034C252.791 279.389 252.427 279.669 251.989 279.874C251.55 280.07 251.055 280.168 250.505 280.168ZM258.349 280.168C257.696 280.168 257.103 280.019 256.571 279.72C256.048 279.421 255.633 279.001 255.325 278.46C255.017 277.909 254.863 277.265 254.863 276.528C254.863 275.809 255.012 275.179 255.311 274.638C255.61 274.087 256.02 273.658 256.543 273.35C257.066 273.042 257.668 272.888 258.349 272.888C259.17 272.888 259.861 273.103 260.421 273.532C260.99 273.961 261.35 274.535 261.499 275.254H260.295C260.202 274.825 259.973 274.493 259.609 274.26C259.245 274.017 258.82 273.896 258.335 273.896C257.84 273.896 257.425 274.017 257.089 274.26C256.753 274.503 256.496 274.825 256.319 275.226C256.151 275.627 256.067 276.061 256.067 276.528C256.067 277.041 256.165 277.499 256.361 277.9C256.557 278.301 256.823 278.614 257.159 278.838C257.504 279.062 257.896 279.174 258.335 279.174C258.82 279.174 259.245 279.057 259.609 278.824C259.973 278.581 260.202 278.241 260.295 277.802H261.499C261.406 278.269 261.214 278.679 260.925 279.034C260.636 279.389 260.272 279.669 259.833 279.874C259.394 280.07 258.9 280.168 258.349 280.168ZM266.207 280.168C265.573 280.168 264.989 280.028 264.457 279.748C263.925 279.459 263.501 279.043 263.183 278.502C262.866 277.951 262.707 277.289 262.707 276.514C262.707 275.777 262.861 275.137 263.169 274.596C263.487 274.055 263.911 273.635 264.443 273.336C264.985 273.037 265.591 272.888 266.263 272.888C266.907 272.888 267.495 273.028 268.027 273.308C268.569 273.588 269.003 273.999 269.329 274.54C269.656 275.081 269.819 275.739 269.819 276.514C269.819 277.223 269.665 277.853 269.357 278.404C269.049 278.955 268.62 279.389 268.069 279.706C267.528 280.014 266.907 280.168 266.207 280.168ZM266.207 279.146C266.665 279.146 267.075 279.039 267.439 278.824C267.803 278.6 268.093 278.292 268.307 277.9C268.522 277.508 268.629 277.046 268.629 276.514C268.629 276.01 268.536 275.562 268.349 275.17C268.163 274.778 267.892 274.47 267.537 274.246C267.183 274.022 266.753 273.91 266.249 273.91C265.736 273.91 265.302 274.027 264.947 274.26C264.602 274.493 264.341 274.806 264.163 275.198C263.986 275.59 263.897 276.029 263.897 276.514C263.897 277.13 264.009 277.634 264.233 278.026C264.457 278.409 264.747 278.693 265.101 278.88C265.456 279.057 265.825 279.146 266.207 279.146ZM273.859 280.168C273.317 280.168 272.841 280.061 272.431 279.846C272.029 279.622 271.717 279.286 271.493 278.838C271.269 278.381 271.157 277.807 271.157 277.116V273.056H272.333V276.99C272.333 277.709 272.482 278.25 272.781 278.614C273.079 278.978 273.527 279.16 274.125 279.16C274.722 279.16 275.217 278.945 275.609 278.516C276.01 278.077 276.211 277.457 276.211 276.654V273.056H277.387V280H276.323L276.253 278.754C276.029 279.193 275.707 279.538 275.287 279.79C274.867 280.042 274.391 280.168 273.859 280.168ZM279.182 280V273.056H280.246L280.316 274.302C280.54 273.863 280.862 273.518 281.282 273.266C281.702 273.014 282.178 272.888 282.71 272.888C283.532 272.888 284.185 273.14 284.67 273.644C285.165 274.139 285.412 274.904 285.412 275.94V280H284.236V276.066C284.236 275.347 284.087 274.806 283.788 274.442C283.49 274.078 283.042 273.896 282.444 273.896C281.847 273.896 281.348 274.115 280.946 274.554C280.554 274.983 280.358 275.599 280.358 276.402V280H279.182ZM289.812 280C289.177 280 288.678 279.846 288.314 279.538C287.95 279.23 287.768 278.675 287.768 277.872V274.05H286.564V273.056H287.768V271.39H288.944V273.056H290.89V274.05H288.944V277.872C288.944 278.311 289.032 278.609 289.21 278.768C289.387 278.917 289.7 278.992 290.148 278.992H290.89V280H289.812ZM293.49 277.256L293.434 275.002H293.868C294.39 275.002 294.876 274.951 295.324 274.848C295.781 274.745 296.15 274.545 296.43 274.246C296.71 273.947 296.85 273.499 296.85 272.902C296.85 272.323 296.668 271.866 296.304 271.53C295.949 271.194 295.478 271.026 294.89 271.026C294.292 271.026 293.821 271.189 293.476 271.516C293.13 271.843 292.958 272.281 292.958 272.832H291.838C291.838 272.272 291.964 271.782 292.216 271.362C292.477 270.942 292.836 270.615 293.294 270.382C293.527 270.261 293.774 270.172 294.036 270.116C294.306 270.06 294.591 270.032 294.89 270.032C295.496 270.032 296.033 270.149 296.5 270.382C296.966 270.615 297.33 270.947 297.592 271.376C297.722 271.591 297.82 271.824 297.886 272.076C297.951 272.328 297.984 272.603 297.984 272.902C297.984 273.593 297.839 274.153 297.55 274.582C297.26 275.011 296.854 275.324 296.332 275.52C296.07 275.613 295.79 275.688 295.492 275.744C295.193 275.791 294.88 275.814 294.554 275.814L294.512 277.256H293.49ZM293.994 280.07C293.76 280.07 293.564 279.995 293.406 279.846C293.256 279.687 293.182 279.496 293.182 279.272C293.182 279.048 293.256 278.861 293.406 278.712C293.564 278.553 293.76 278.474 293.994 278.474C294.227 278.474 294.418 278.553 294.568 278.712C294.717 278.861 294.792 279.048 294.792 279.272C294.792 279.496 294.717 279.687 294.568 279.846C294.418 279.995 294.227 280.07 293.994 280.07Z" fill="#141414"/>
<path d="M309.742 280.168C309.061 280.168 308.44 280.051 307.88 279.818C307.329 279.585 306.891 279.239 306.564 278.782C306.237 278.315 306.065 277.737 306.046 277.046H307.936C307.955 277.503 308.118 277.886 308.426 278.194C308.743 278.502 309.177 278.656 309.728 278.656C310.204 278.656 310.582 278.544 310.862 278.32C311.142 278.096 311.282 277.793 311.282 277.41C311.282 277.214 311.249 277.041 311.184 276.892C311.128 276.743 311.016 276.603 310.848 276.472C310.68 276.341 310.442 276.215 310.134 276.094C309.835 275.963 309.439 275.819 308.944 275.66C308.3 275.445 307.782 275.198 307.39 274.918C306.998 274.638 306.713 274.325 306.536 273.98C306.368 273.625 306.284 273.243 306.284 272.832C306.284 272.216 306.429 271.703 306.718 271.292C307.017 270.872 307.413 270.559 307.908 270.354C308.412 270.139 308.967 270.032 309.574 270.032C310.19 270.032 310.745 270.139 311.24 270.354C311.744 270.569 312.15 270.886 312.458 271.306C312.766 271.726 312.925 272.244 312.934 272.86H311.016C311.007 272.505 310.867 272.197 310.596 271.936C310.335 271.675 309.971 271.544 309.504 271.544C309.131 271.544 308.813 271.642 308.552 271.838C308.291 272.034 308.16 272.323 308.16 272.706C308.16 272.986 308.263 273.224 308.468 273.42C308.683 273.616 308.967 273.789 309.322 273.938C309.686 274.078 310.087 274.227 310.526 274.386C310.769 274.47 311.039 274.577 311.338 274.708C311.646 274.839 311.94 275.016 312.22 275.24C312.5 275.455 312.729 275.73 312.906 276.066C313.093 276.393 313.186 276.799 313.186 277.284C313.186 277.881 313.032 278.395 312.724 278.824C312.425 279.253 312.015 279.585 311.492 279.818C310.979 280.051 310.395 280.168 309.742 280.168ZM315.2 272.16C314.883 272.16 314.607 272.048 314.374 271.824C314.15 271.591 314.038 271.315 314.038 270.998C314.038 270.671 314.15 270.396 314.374 270.172C314.607 269.948 314.883 269.836 315.2 269.836C315.527 269.836 315.802 269.948 316.026 270.172C316.25 270.396 316.362 270.671 316.362 270.998C316.362 271.315 316.25 271.591 316.026 271.824C315.802 272.048 315.527 272.16 315.2 272.16ZM314.304 280V273.056H316.096V280H314.304ZM320.264 283.248C319.629 283.248 319.06 283.178 318.556 283.038C318.052 282.898 317.65 282.669 317.352 282.352C317.062 282.044 316.918 281.638 316.918 281.134C316.918 280.807 316.988 280.523 317.128 280.28C317.268 280.047 317.482 279.841 317.772 279.664C317.529 279.524 317.347 279.347 317.226 279.132C317.104 278.917 317.044 278.67 317.044 278.39C317.044 277.774 317.333 277.298 317.912 276.962C317.706 276.747 317.548 276.505 317.436 276.234C317.324 275.954 317.268 275.665 317.268 275.366C317.268 274.862 317.389 274.428 317.632 274.064C317.874 273.691 318.21 273.401 318.64 273.196C319.069 272.991 319.559 272.888 320.11 272.888C320.511 272.888 320.88 272.944 321.216 273.056H323.708V274.4H322.742C322.798 274.559 322.844 274.717 322.882 274.876C322.928 275.035 322.952 275.198 322.952 275.366C322.952 275.851 322.826 276.281 322.574 276.654C322.322 277.027 321.981 277.321 321.552 277.536C321.132 277.741 320.651 277.844 320.11 277.844C319.876 277.844 319.662 277.825 319.466 277.788C319.27 277.741 319.078 277.671 318.892 277.578C318.686 277.681 318.584 277.844 318.584 278.068C318.584 278.479 318.924 278.684 319.606 278.684H320.88C321.44 278.684 321.916 278.763 322.308 278.922C322.709 279.071 323.012 279.309 323.218 279.636C323.423 279.963 323.526 280.378 323.526 280.882C323.526 281.367 323.381 281.787 323.092 282.142C322.802 282.497 322.41 282.767 321.916 282.954C321.421 283.15 320.87 283.248 320.264 283.248ZM320.264 281.848C320.712 281.848 321.09 281.773 321.398 281.624C321.715 281.484 321.874 281.269 321.874 280.98C321.874 280.429 321.491 280.154 320.726 280.154H319.718C319.344 280.154 319.055 280.224 318.85 280.364C318.654 280.504 318.556 280.709 318.556 280.98C318.556 281.195 318.635 281.363 318.794 281.484C318.952 281.615 319.162 281.708 319.424 281.764C319.685 281.82 319.965 281.848 320.264 281.848ZM320.096 276.444C320.45 276.444 320.74 276.346 320.964 276.15C321.197 275.945 321.314 275.683 321.314 275.366C321.314 275.058 321.197 274.801 320.964 274.596C320.74 274.391 320.45 274.288 320.096 274.288C319.741 274.288 319.452 274.391 319.228 274.596C319.013 274.801 318.906 275.058 318.906 275.366C318.906 275.683 319.008 275.945 319.214 276.15C319.428 276.346 319.722 276.444 320.096 276.444ZM324.44 280V273.056H326.218V273.868C326.461 273.541 326.783 273.299 327.184 273.14C327.595 272.972 328.006 272.888 328.416 272.888C329.219 272.888 329.877 273.149 330.39 273.672C330.904 274.185 331.16 274.932 331.16 275.912V280H329.382V276.15C329.382 275.627 329.247 275.207 328.976 274.89C328.715 274.563 328.328 274.4 327.814 274.4C327.301 274.4 326.904 274.563 326.624 274.89C326.354 275.207 326.218 275.627 326.218 276.15V280H324.44ZM336.214 272.16C335.897 272.16 335.622 272.048 335.388 271.824C335.164 271.591 335.052 271.315 335.052 270.998C335.052 270.671 335.164 270.396 335.388 270.172C335.622 269.948 335.897 269.836 336.214 269.836C336.541 269.836 336.816 269.948 337.04 270.172C337.264 270.396 337.376 270.671 337.376 270.998C337.376 271.315 337.264 271.591 337.04 271.824C336.816 272.048 336.541 272.16 336.214 272.16ZM335.318 280V273.056H337.11V280H335.318ZM338.28 280V273.056H340.058V273.868C340.301 273.541 340.623 273.299 341.024 273.14C341.435 272.972 341.846 272.888 342.256 272.888C343.059 272.888 343.717 273.149 344.23 273.672C344.744 274.185 345 274.932 345 275.912V280H343.222V276.15C343.222 275.627 343.087 275.207 342.816 274.89C342.555 274.563 342.168 274.4 341.654 274.4C341.141 274.4 340.744 274.563 340.464 274.89C340.194 275.207 340.058 275.627 340.058 276.15V280H338.28Z" fill="#0A7350"/>
</g>
<path d="M8 8H472H8ZM472 308H8H472ZM8 308V8V308ZM456 8C465.389 8 473 15.6112 473 25V291C473 300.389 465.389 308 456 308C464.284 308 471 300.837 471 292V24C471 15.1634 464.284 8 456 8Z" fill="#EBEBEB" mask="url(#path-1-inside-1_15560_42287)"/>
<defs>
<clipPath id="clip0_15560_42287">
<path d="M8 24C8 15.1634 15.1634 8 24 8H456C464.837 8 472 15.1634 472 24V292C472 300.837 464.837 308 456 308H24C15.1635 308 8 300.837 8 292V24Z" fill="white"/>
</clipPath>
</defs>
</svg>
