<svg width="480" height="402" viewBox="0 0 480 402" fill="none" xmlns="http://www.w3.org/2000/svg">
<g clip-path="url(#clip0_15560_42173)">
<mask id="path-1-inside-1_15560_42173" fill="white">
<path d="M8 24C8 15.1635 15.1634 8 24 8H456C464.837 8 472 15.1634 472 24V378C472 386.837 464.837 394 456 394H24C15.1635 394 8 386.837 8 378V24Z"/>
</mask>
<path d="M8 24C8 15.1635 15.1634 8 24 8H456C464.837 8 472 15.1634 472 24V378C472 386.837 464.837 394 456 394H24C15.1635 394 8 386.837 8 378V24Z" fill="white"/>
<mask id="path-3-outside-2_15560_42173" maskUnits="userSpaceOnUse" x="8" y="8" width="464" height="321" fill="black">
<rect fill="white" x="8" y="8" width="464" height="321"/>
<path d="M8 8H472V328H8V8Z"/>
</mask>
<path d="M472 328V327H8V328V329H472V328Z" fill="#EBEBEB" mask="url(#path-3-outside-2_15560_42173)"/>
<path d="M39.272 55.288C38.104 55.288 37.04 55.088 36.08 54.688C35.136 54.288 34.384 53.696 33.824 52.912C33.264 52.112 32.968 51.12 32.936 49.936H36.176C36.208 50.72 36.488 51.376 37.016 51.904C37.56 52.432 38.304 52.696 39.248 52.696C40.064 52.696 40.712 52.504 41.192 52.12C41.672 51.736 41.912 51.216 41.912 50.56C41.912 50.224 41.856 49.928 41.744 49.672C41.648 49.416 41.456 49.176 41.168 48.952C40.88 48.728 40.472 48.512 39.944 48.304C39.432 48.08 38.752 47.832 37.904 47.56C36.8 47.192 35.912 46.768 35.24 46.288C34.568 45.808 34.08 45.272 33.776 44.68C33.488 44.072 33.344 43.416 33.344 42.712C33.344 41.656 33.592 40.776 34.088 40.072C34.6 39.352 35.28 38.816 36.128 38.464C36.992 38.096 37.944 37.912 38.984 37.912C40.04 37.912 40.992 38.096 41.84 38.464C42.704 38.832 43.4 39.376 43.928 40.096C44.456 40.816 44.728 41.704 44.744 42.76H41.456C41.44 42.152 41.2 41.624 40.736 41.176C40.288 40.728 39.664 40.504 38.864 40.504C38.224 40.504 37.68 40.672 37.232 41.008C36.784 41.344 36.56 41.84 36.56 42.496C36.56 42.976 36.736 43.384 37.088 43.72C37.456 44.056 37.944 44.352 38.552 44.608C39.176 44.848 39.864 45.104 40.616 45.376C41.032 45.52 41.496 45.704 42.008 45.928C42.536 46.152 43.04 46.456 43.52 46.84C44 47.208 44.392 47.68 44.696 48.256C45.016 48.816 45.176 49.512 45.176 50.344C45.176 51.368 44.912 52.248 44.384 52.984C43.872 53.72 43.168 54.288 42.272 54.688C41.392 55.088 40.392 55.288 39.272 55.288ZM48.3888 41.56C47.8448 41.56 47.3728 41.368 46.9728 40.984C46.5888 40.584 46.3968 40.112 46.3968 39.568C46.3968 39.008 46.5888 38.536 46.9728 38.152C47.3728 37.768 47.8448 37.576 48.3888 37.576C48.9488 37.576 49.4208 37.768 49.8048 38.152C50.1888 38.536 50.3808 39.008 50.3808 39.568C50.3808 40.112 50.1888 40.584 49.8048 40.984C49.4208 41.368 48.9488 41.56 48.3888 41.56ZM46.8528 55V43.096H49.9248V55H46.8528ZM56.8291 60.568C55.7411 60.568 54.7651 60.448 53.9011 60.208C53.0371 59.968 52.3491 59.576 51.8371 59.032C51.3411 58.504 51.0931 57.808 51.0931 56.944C51.0931 56.384 51.2131 55.896 51.4531 55.48C51.6931 55.08 52.0611 54.728 52.5571 54.424C52.1411 54.184 51.8291 53.88 51.6211 53.512C51.4131 53.144 51.3091 52.72 51.3091 52.24C51.3091 51.184 51.8051 50.368 52.7971 49.792C52.4451 49.424 52.1731 49.008 51.9811 48.544C51.7891 48.064 51.6931 47.568 51.6931 47.056C51.6931 46.192 51.9011 45.448 52.3171 44.824C52.7331 44.184 53.3091 43.688 54.0451 43.336C54.7811 42.984 55.6211 42.808 56.5651 42.808C57.2531 42.808 57.8851 42.904 58.4611 43.096H62.7331V45.4H61.0771C61.1731 45.672 61.2531 45.944 61.3171 46.216C61.3971 46.488 61.4371 46.768 61.4371 47.056C61.4371 47.888 61.2211 48.624 60.7891 49.264C60.3571 49.904 59.7731 50.408 59.0371 50.776C58.3171 51.128 57.4931 51.304 56.5651 51.304C56.1651 51.304 55.7971 51.272 55.4611 51.208C55.1251 51.128 54.7971 51.008 54.4771 50.848C54.1251 51.024 53.9491 51.304 53.9491 51.688C53.9491 52.392 54.5331 52.744 55.7011 52.744H57.8851C58.8451 52.744 59.6611 52.88 60.3331 53.152C61.0211 53.408 61.5411 53.816 61.8931 54.376C62.2451 54.936 62.4211 55.648 62.4211 56.512C62.4211 57.344 62.1731 58.064 61.6771 58.672C61.1811 59.28 60.5091 59.744 59.6611 60.064C58.8131 60.4 57.8691 60.568 56.8291 60.568ZM56.8291 58.168C57.5971 58.168 58.2451 58.04 58.7731 57.784C59.3171 57.544 59.5891 57.176 59.5891 56.68C59.5891 55.736 58.9331 55.264 57.6211 55.264H55.8931C55.2531 55.264 54.7571 55.384 54.4051 55.624C54.0691 55.864 53.9011 56.216 53.9011 56.68C53.9011 57.048 54.0371 57.336 54.3091 57.544C54.5811 57.768 54.9411 57.928 55.3891 58.024C55.8371 58.12 56.3171 58.168 56.8291 58.168ZM56.5411 48.904C57.1491 48.904 57.6451 48.736 58.0291 48.4C58.4291 48.048 58.6291 47.6 58.6291 47.056C58.6291 46.528 58.4291 46.088 58.0291 45.736C57.6451 45.384 57.1491 45.208 56.5411 45.208C55.9331 45.208 55.4371 45.384 55.0531 45.736C54.6851 46.088 54.5011 46.528 54.5011 47.056C54.5011 47.6 54.6771 48.048 55.0291 48.4C55.3971 48.736 55.9011 48.904 56.5411 48.904ZM63.7494 55V43.096H66.7974V44.488C67.2134 43.928 67.7654 43.512 68.4534 43.24C69.1574 42.952 69.8614 42.808 70.5654 42.808C71.9414 42.808 73.0694 43.256 73.9494 44.152C74.8294 45.032 75.2694 46.312 75.2694 47.992V55H72.2214V48.4C72.2214 47.504 71.9894 46.784 71.5254 46.24C71.0774 45.68 70.4134 45.4 69.5334 45.4C68.6534 45.4 67.9734 45.68 67.4934 46.24C67.0294 46.784 66.7974 47.504 66.7974 48.4V55H63.7494ZM83.4532 41.56C82.9092 41.56 82.4372 41.368 82.0372 40.984C81.6532 40.584 81.4612 40.112 81.4612 39.568C81.4612 39.008 81.6532 38.536 82.0372 38.152C82.4372 37.768 82.9092 37.576 83.4532 37.576C84.0132 37.576 84.4852 37.768 84.8692 38.152C85.2532 38.536 85.4452 39.008 85.4452 39.568C85.4452 40.112 85.2532 40.584 84.8692 40.984C84.4852 41.368 84.0132 41.56 83.4532 41.56ZM81.9172 55V43.096H84.9892V55H81.9172ZM86.7547 55V43.096H89.8027V44.488C90.2187 43.928 90.7707 43.512 91.4587 43.24C92.1627 42.952 92.8667 42.808 93.5707 42.808C94.9467 42.808 96.0747 43.256 96.9547 44.152C97.8347 45.032 98.2747 46.312 98.2747 47.992V55H95.2267V48.4C95.2267 47.504 94.9947 46.784 94.5307 46.24C94.0827 45.68 93.4187 45.4 92.5387 45.4C91.6587 45.4 90.9787 45.68 90.4987 46.24C90.0347 46.784 89.8027 47.504 89.8027 48.4V55H86.7547ZM109.483 55C108.203 55 107.235 54.688 106.579 54.064C105.939 53.44 105.619 52.504 105.619 51.256V45.664H104.083V43.096H105.619V40.192H108.691V43.096H111.403V45.664H108.691V51.28C108.691 51.728 108.811 52.032 109.051 52.192C109.291 52.352 109.603 52.432 109.987 52.432H111.403V55H109.483ZM118.24 55.288C117.04 55.288 115.968 55.032 115.024 54.52C114.096 53.992 113.368 53.256 112.84 52.312C112.312 51.368 112.048 50.28 112.048 49.048C112.048 47.752 112.328 46.64 112.888 45.712C113.464 44.768 114.224 44.048 115.168 43.552C116.128 43.056 117.184 42.808 118.336 42.808C119.536 42.808 120.608 43.072 121.552 43.6C122.496 44.112 123.24 44.832 123.784 45.76C124.344 46.688 124.624 47.784 124.624 49.048C124.624 50.248 124.352 51.32 123.808 52.264C123.264 53.208 122.512 53.952 121.552 54.496C120.608 55.024 119.504 55.288 118.24 55.288ZM118.288 52.624C118.928 52.624 119.48 52.464 119.944 52.144C120.424 51.808 120.8 51.368 121.072 50.824C121.344 50.264 121.48 49.656 121.48 49C121.48 48.248 121.328 47.608 121.024 47.08C120.736 46.552 120.352 46.152 119.872 45.88C119.392 45.608 118.864 45.472 118.288 45.472C117.664 45.472 117.112 45.624 116.632 45.928C116.168 46.232 115.8 46.656 115.528 47.2C115.272 47.728 115.144 48.344 115.144 49.048C115.144 49.752 115.28 50.376 115.552 50.92C115.84 51.464 116.224 51.888 116.704 52.192C117.184 52.48 117.712 52.624 118.288 52.624ZM139.036 55.288C137.308 55.288 135.836 54.912 134.62 54.16C133.404 53.408 132.476 52.384 131.836 51.088C131.196 49.776 130.876 48.288 130.876 46.624C130.876 44.96 131.188 43.472 131.812 42.16C132.436 40.848 133.356 39.816 134.572 39.064C135.788 38.296 137.276 37.912 139.036 37.912C141.052 37.912 142.7 38.416 143.98 39.424C145.276 40.416 146.084 41.816 146.404 43.624H143.02C142.812 42.712 142.364 42 141.676 41.488C141.004 40.96 140.108 40.696 138.988 40.696C137.964 40.696 137.076 40.936 136.324 41.416C135.588 41.896 135.02 42.576 134.62 43.456C134.22 44.336 134.02 45.392 134.02 46.624C134.02 47.84 134.22 48.896 134.62 49.792C135.02 50.672 135.588 51.352 136.324 51.832C137.076 52.296 137.964 52.528 138.988 52.528C140.108 52.528 141.004 52.288 141.676 51.808C142.364 51.312 142.812 50.632 143.02 49.768H146.404C146.084 51.496 145.276 52.848 143.98 53.824C142.7 54.8 141.052 55.288 139.036 55.288ZM147.976 55V38.2H151.024V44.488C151.44 43.928 151.992 43.512 152.68 43.24C153.384 42.952 154.088 42.808 154.792 42.808C156.168 42.808 157.296 43.256 158.176 44.152C159.056 45.032 159.496 46.312 159.496 47.992V55H156.448V48.4C156.448 47.504 156.216 46.784 155.752 46.24C155.304 45.68 154.64 45.4 153.76 45.4C152.88 45.4 152.2 45.68 151.72 46.24C151.256 46.784 151.024 47.504 151.024 48.4V55H147.976ZM164.621 55.288C163.917 55.288 163.261 55.144 162.653 54.856C162.045 54.568 161.549 54.16 161.165 53.632C160.797 53.088 160.613 52.448 160.613 51.712C160.613 50.832 160.829 50.112 161.261 49.552C161.693 48.992 162.285 48.576 163.037 48.304C163.805 48.032 164.661 47.896 165.605 47.896H168.437C168.437 47.352 168.349 46.896 168.173 46.528C168.013 46.16 167.765 45.88 167.429 45.688C167.109 45.48 166.709 45.376 166.229 45.376C165.669 45.376 165.165 45.504 164.717 45.76C164.285 46 164.021 46.408 163.925 46.984H160.853C160.933 46.12 161.229 45.376 161.741 44.752C162.253 44.128 162.909 43.648 163.709 43.312C164.509 42.976 165.365 42.808 166.277 42.808C167.397 42.808 168.341 43.016 169.109 43.432C169.893 43.848 170.493 44.44 170.909 45.208C171.325 45.96 171.533 46.856 171.533 47.896V51.52C171.565 51.872 171.693 52.112 171.917 52.24C172.141 52.368 172.437 52.432 172.805 52.432V55C172.053 55 171.421 54.928 170.909 54.784C170.413 54.64 170.005 54.432 169.685 54.16C169.365 53.872 169.093 53.512 168.869 53.08C168.501 53.704 167.925 54.232 167.141 54.664C166.373 55.08 165.533 55.288 164.621 55.288ZM165.509 52.816C166.037 52.816 166.517 52.696 166.949 52.456C167.397 52.216 167.757 51.88 168.029 51.448C168.301 51.016 168.437 50.52 168.437 49.96V49.864H165.797C165.445 49.864 165.109 49.92 164.789 50.032C164.469 50.128 164.213 50.288 164.021 50.512C163.829 50.72 163.733 51.008 163.733 51.376C163.733 51.872 163.901 52.24 164.237 52.48C164.589 52.704 165.013 52.816 165.509 52.816ZM179.21 55.288C178.01 55.288 176.962 55.024 176.066 54.496C175.17 53.952 174.474 53.216 173.978 52.288C173.482 51.344 173.234 50.264 173.234 49.048C173.234 47.848 173.474 46.776 173.954 45.832C174.45 44.888 175.146 44.152 176.042 43.624C176.938 43.08 177.994 42.808 179.21 42.808C180.65 42.808 181.866 43.168 182.858 43.888C183.866 44.608 184.546 45.672 184.898 47.08H181.61C181.466 46.616 181.186 46.224 180.77 45.904C180.37 45.568 179.842 45.4 179.186 45.4C178.53 45.4 177.994 45.568 177.578 45.904C177.162 46.24 176.85 46.688 176.642 47.248C176.45 47.792 176.354 48.392 176.354 49.048C176.354 49.704 176.45 50.312 176.642 50.872C176.85 51.416 177.162 51.856 177.578 52.192C177.994 52.512 178.53 52.672 179.186 52.672C179.81 52.672 180.322 52.536 180.722 52.264C181.122 51.976 181.418 51.56 181.61 51.016H184.898C184.69 51.912 184.314 52.68 183.77 53.32C183.242 53.96 182.586 54.448 181.802 54.784C181.034 55.12 180.17 55.288 179.21 55.288ZM186.193 55V38.2H189.241V44.488C189.657 43.928 190.209 43.512 190.897 43.24C191.601 42.952 192.305 42.808 193.009 42.808C194.385 42.808 195.513 43.256 196.393 44.152C197.273 45.032 197.713 46.312 197.713 47.992V55H194.665V48.4C194.665 47.504 194.433 46.784 193.969 46.24C193.521 45.68 192.857 45.4 191.977 45.4C191.097 45.4 190.417 45.68 189.937 46.24C189.473 46.784 189.241 47.504 189.241 48.4V55H186.193ZM200.845 41.56C200.301 41.56 199.829 41.368 199.429 40.984C199.045 40.584 198.853 40.112 198.853 39.568C198.853 39.008 199.045 38.536 199.429 38.152C199.829 37.768 200.301 37.576 200.845 37.576C201.405 37.576 201.877 37.768 202.261 38.152C202.645 38.536 202.837 39.008 202.837 39.568C202.837 40.112 202.645 40.584 202.261 40.984C201.877 41.368 201.405 41.56 200.845 41.56ZM199.309 55V43.096H202.381V55H199.309ZM204.147 55V43.096H207.195V44.488C207.611 43.928 208.163 43.512 208.851 43.24C209.555 42.952 210.259 42.808 210.963 42.808C212.339 42.808 213.467 43.256 214.347 44.152C215.227 45.032 215.667 46.312 215.667 47.992V55H212.619V48.4C212.619 47.504 212.387 46.784 211.923 46.24C211.475 45.68 210.811 45.4 209.931 45.4C209.051 45.4 208.371 45.68 207.891 46.24C207.427 46.784 207.195 47.504 207.195 48.4V55H204.147ZM222.212 60.568C221.124 60.568 220.148 60.448 219.284 60.208C218.42 59.968 217.732 59.576 217.22 59.032C216.724 58.504 216.476 57.808 216.476 56.944C216.476 56.384 216.596 55.896 216.836 55.48C217.076 55.08 217.444 54.728 217.94 54.424C217.524 54.184 217.212 53.88 217.004 53.512C216.796 53.144 216.692 52.72 216.692 52.24C216.692 51.184 217.188 50.368 218.18 49.792C217.828 49.424 217.556 49.008 217.364 48.544C217.172 48.064 217.076 47.568 217.076 47.056C217.076 46.192 217.284 45.448 217.7 44.824C218.116 44.184 218.692 43.688 219.428 43.336C220.164 42.984 221.004 42.808 221.948 42.808C222.636 42.808 223.268 42.904 223.844 43.096H228.116V45.4H226.46C226.556 45.672 226.636 45.944 226.7 46.216C226.78 46.488 226.82 46.768 226.82 47.056C226.82 47.888 226.604 48.624 226.172 49.264C225.74 49.904 225.156 50.408 224.42 50.776C223.7 51.128 222.876 51.304 221.948 51.304C221.548 51.304 221.18 51.272 220.844 51.208C220.508 51.128 220.18 51.008 219.86 50.848C219.508 51.024 219.332 51.304 219.332 51.688C219.332 52.392 219.916 52.744 221.084 52.744H223.268C224.228 52.744 225.044 52.88 225.716 53.152C226.404 53.408 226.924 53.816 227.276 54.376C227.628 54.936 227.804 55.648 227.804 56.512C227.804 57.344 227.556 58.064 227.06 58.672C226.564 59.28 225.892 59.744 225.044 60.064C224.196 60.4 223.252 60.568 222.212 60.568ZM222.212 58.168C222.98 58.168 223.628 58.04 224.156 57.784C224.7 57.544 224.972 57.176 224.972 56.68C224.972 55.736 224.316 55.264 223.004 55.264H221.276C220.636 55.264 220.14 55.384 219.788 55.624C219.452 55.864 219.284 56.216 219.284 56.68C219.284 57.048 219.42 57.336 219.692 57.544C219.964 57.768 220.324 57.928 220.772 58.024C221.22 58.12 221.7 58.168 222.212 58.168ZM221.924 48.904C222.532 48.904 223.028 48.736 223.412 48.4C223.812 48.048 224.012 47.6 224.012 47.056C224.012 46.528 223.812 46.088 223.412 45.736C223.028 45.384 222.532 45.208 221.924 45.208C221.316 45.208 220.82 45.384 220.436 45.736C220.068 46.088 219.884 46.528 219.884 47.056C219.884 47.6 220.06 48.048 220.412 48.4C220.78 48.736 221.284 48.904 221.924 48.904Z" fill="#141414"/>
<path d="M438 77.5C443.799 77.5 448.5 82.201 448.5 88V128C448.5 133.799 443.799 138.5 438 138.5H42C36.201 138.5 31.5 133.799 31.5 128V88C31.5 82.201 36.201 77.5 42 77.5H438Z" fill="white"/>
<path d="M438 77.5C443.799 77.5 448.5 82.201 448.5 88V128C448.5 133.799 443.799 138.5 438 138.5H42C36.201 138.5 31.5 133.799 31.5 128V88C31.5 82.201 36.201 77.5 42 77.5H438Z" stroke="#DCDEE0"/>
<path d="M49.472 102V98.276L46.28 92.2H47.61L50.06 97.156L52.51 92.2H53.826L50.648 98.276V102H49.472ZM56.9226 102.168C56.288 102.168 55.7046 102.028 55.1726 101.748C54.6406 101.459 54.216 101.043 53.8986 100.502C53.5813 99.9513 53.4226 99.2887 53.4226 98.514C53.4226 97.7767 53.5766 97.1373 53.8846 96.596C54.202 96.0547 54.6266 95.6347 55.1586 95.336C55.7 95.0373 56.3066 94.888 56.9786 94.888C57.6226 94.888 58.2106 95.028 58.7426 95.308C59.284 95.588 59.718 95.9987 60.0446 96.54C60.3713 97.0813 60.5346 97.7393 60.5346 98.514C60.5346 99.2233 60.3806 99.8533 60.0726 100.404C59.7646 100.955 59.3353 101.389 58.7846 101.706C58.2433 102.014 57.6226 102.168 56.9226 102.168ZM56.9226 101.146C57.38 101.146 57.7906 101.039 58.1546 100.824C58.5186 100.6 58.808 100.292 59.0226 99.9C59.2373 99.508 59.3446 99.046 59.3446 98.514C59.3446 98.01 59.2513 97.562 59.0646 97.17C58.878 96.778 58.6073 96.47 58.2526 96.246C57.898 96.022 57.4686 95.91 56.9646 95.91C56.4513 95.91 56.0173 96.0267 55.6626 96.26C55.3173 96.4933 55.056 96.806 54.8786 97.198C54.7013 97.59 54.6126 98.0287 54.6126 98.514C54.6126 99.13 54.7246 99.634 54.9486 100.026C55.1726 100.409 55.462 100.693 55.8166 100.88C56.1713 101.057 56.54 101.146 56.9226 101.146ZM64.5738 102.168C64.0325 102.168 63.5565 102.061 63.1458 101.846C62.7445 101.622 62.4318 101.286 62.2078 100.838C61.9838 100.381 61.8718 99.8067 61.8718 99.116V95.056H63.0478V98.99C63.0478 99.7087 63.1972 100.25 63.4958 100.614C63.7945 100.978 64.2425 101.16 64.8398 101.16C65.4372 101.16 65.9318 100.945 66.3238 100.516C66.7252 100.077 66.9258 99.4567 66.9258 98.654V95.056H68.1018V102H67.0378L66.9678 100.754C66.7438 101.193 66.4218 101.538 66.0018 101.79C65.5818 102.042 65.1058 102.168 64.5738 102.168ZM69.8976 102V95.056H70.9616L71.0596 96.386C71.2742 95.9287 71.6009 95.5647 72.0396 95.294C72.4782 95.0233 73.0196 94.888 73.6636 94.888V96.12H73.3416C72.5762 96.12 72.0069 96.3253 71.6336 96.736C71.2602 97.1467 71.0736 97.7347 71.0736 98.5V102H69.8976ZM81.5306 102.168C80.8866 102.168 80.3032 102.019 79.7806 101.72C79.2672 101.421 78.8612 101.001 78.5626 100.46C78.2639 99.9093 78.1146 99.2653 78.1146 98.528C78.1146 97.8 78.2546 97.1653 78.5346 96.624C78.8239 96.0733 79.2252 95.6487 79.7386 95.35C80.2612 95.042 80.8679 94.888 81.5586 94.888C82.2119 94.888 82.7812 95.0327 83.2666 95.322C83.7519 95.6113 84.1299 96.0033 84.4006 96.498C84.6806 96.9833 84.8206 97.5293 84.8206 98.136C84.8206 98.2667 84.8206 98.3693 84.8206 98.444C84.8206 98.5187 84.8159 98.6353 84.8066 98.794H79.2766C79.3046 99.2513 79.4119 99.662 79.5986 100.026C79.7946 100.381 80.0559 100.661 80.3826 100.866C80.7186 101.071 81.1012 101.174 81.5306 101.174C82.0159 101.174 82.4219 101.062 82.7486 100.838C83.0752 100.614 83.3132 100.311 83.4626 99.928H84.6246C84.5032 100.357 84.3026 100.74 84.0226 101.076C83.7426 101.412 83.3926 101.678 82.9726 101.874C82.5619 102.07 82.0812 102.168 81.5306 102.168ZM79.2906 97.884H83.6586C83.6306 97.2587 83.4159 96.7687 83.0146 96.414C82.6132 96.0593 82.1186 95.882 81.5306 95.882C80.9706 95.882 80.4712 96.0547 80.0326 96.4C79.6032 96.736 79.3559 97.2307 79.2906 97.884ZM86.2393 102V95.056H87.3033L87.3873 96.064C87.6113 95.6907 87.9099 95.4013 88.2833 95.196C88.6566 94.9907 89.0766 94.888 89.5433 94.888C90.0939 94.888 90.5653 95 90.9573 95.224C91.3586 95.448 91.6666 95.7887 91.8813 96.246C92.1239 95.826 92.4553 95.4947 92.8753 95.252C93.3046 95.0093 93.7666 94.888 94.2613 94.888C94.8213 94.888 95.3019 95 95.7033 95.224C96.1139 95.4387 96.4313 95.7747 96.6553 96.232C96.8793 96.68 96.9913 97.2493 96.9913 97.94V102H95.8293V98.066C95.8293 97.3473 95.6846 96.806 95.3953 96.442C95.1059 96.078 94.6906 95.896 94.1493 95.896C93.5893 95.896 93.1226 96.1153 92.7493 96.554C92.3853 96.9833 92.2033 97.5993 92.2033 98.402V102H91.0273V98.066C91.0273 97.3473 90.8826 96.806 90.5933 96.442C90.3039 96.078 89.8886 95.896 89.3473 95.896C88.7966 95.896 88.3346 96.1153 87.9613 96.554C87.5973 96.9833 87.4153 97.5993 87.4153 98.402V102H86.2393ZM100.933 102.168C100.457 102.168 100.023 102.089 99.6307 101.93C99.2387 101.771 98.9261 101.533 98.6927 101.216C98.4687 100.889 98.3567 100.493 98.3567 100.026C98.3567 99.4847 98.4967 99.0553 98.7767 98.738C99.0567 98.4113 99.4254 98.178 99.8827 98.038C100.349 97.8887 100.849 97.814 101.381 97.814H103.257C103.257 97.3287 103.173 96.946 103.005 96.666C102.846 96.386 102.636 96.1853 102.375 96.064C102.113 95.9427 101.824 95.882 101.507 95.882C101.049 95.882 100.653 95.994 100.317 96.218C99.9901 96.4327 99.7847 96.7687 99.7007 97.226H98.4967C98.5434 96.722 98.7114 96.2973 99.0007 95.952C99.2901 95.6067 99.6541 95.3453 100.093 95.168C100.541 94.9813 101.012 94.888 101.507 94.888C102.207 94.888 102.771 95.0187 103.201 95.28C103.63 95.532 103.943 95.8727 104.139 96.302C104.335 96.7313 104.433 97.2073 104.433 97.73V99.858C104.433 100.203 104.475 100.465 104.559 100.642C104.643 100.819 104.857 100.927 105.203 100.964V102C104.895 102 104.615 101.963 104.363 101.888C104.111 101.804 103.896 101.673 103.719 101.496C103.551 101.309 103.429 101.067 103.355 100.768C103.121 101.16 102.799 101.491 102.389 101.762C101.987 102.033 101.502 102.168 100.933 102.168ZM101.115 101.174C101.581 101.174 101.973 101.057 102.291 100.824C102.608 100.581 102.846 100.273 103.005 99.9C103.173 99.5267 103.257 99.1393 103.257 98.738V98.724H101.479C101.152 98.724 100.844 98.7613 100.555 98.836C100.265 98.9013 100.032 99.0273 99.8547 99.214C99.6774 99.3913 99.5887 99.6433 99.5887 99.97C99.5887 100.39 99.7381 100.698 100.037 100.894C100.335 101.081 100.695 101.174 101.115 101.174ZM107.195 93.516C106.961 93.516 106.765 93.4413 106.607 93.292C106.457 93.1333 106.383 92.9373 106.383 92.704C106.383 92.48 106.457 92.2933 106.607 92.144C106.765 91.9947 106.961 91.92 107.195 91.92C107.419 91.92 107.61 91.9947 107.769 92.144C107.927 92.2933 108.007 92.48 108.007 92.704C108.007 92.9373 107.927 93.1333 107.769 93.292C107.61 93.4413 107.419 93.516 107.195 93.516ZM106.607 102V95.056H107.783V102H106.607ZM109.69 102V92.2H110.866V102H109.69Z" fill="#525252"/>
<path d="M45.552 126.52V125.368H46.176C46.5707 125.368 46.8533 125.283 47.024 125.112C47.2053 124.952 47.296 124.675 47.296 124.28V115.064H48.64V124.312C48.64 124.824 48.5547 125.24 48.384 125.56C48.2133 125.891 47.9573 126.131 47.616 126.28C47.2853 126.44 46.8747 126.52 46.384 126.52H45.552ZM47.984 113.304C47.728 113.304 47.5093 113.219 47.328 113.048C47.1467 112.867 47.056 112.643 47.056 112.376C47.056 112.12 47.1467 111.907 47.328 111.736C47.5093 111.565 47.728 111.48 47.984 111.48C48.24 111.48 48.4533 111.565 48.624 111.736C48.8053 111.907 48.896 112.12 48.896 112.376C48.896 112.643 48.8053 112.867 48.624 113.048C48.4533 113.219 48.24 113.304 47.984 113.304ZM54.483 123.192C53.7577 123.192 53.091 123.032 52.483 122.712C51.875 122.381 51.3897 121.907 51.027 121.288C50.6643 120.659 50.483 119.901 50.483 119.016C50.483 118.173 50.659 117.443 51.011 116.824C51.3737 116.205 51.859 115.725 52.467 115.384C53.0857 115.043 53.779 114.872 54.547 114.872C55.283 114.872 55.955 115.032 56.563 115.352C57.1817 115.672 57.6777 116.141 58.051 116.76C58.4243 117.379 58.611 118.131 58.611 119.016C58.611 119.827 58.435 120.547 58.083 121.176C57.731 121.805 57.2403 122.301 56.611 122.664C55.9923 123.016 55.283 123.192 54.483 123.192ZM54.483 122.024C55.0057 122.024 55.475 121.901 55.891 121.656C56.307 121.4 56.6377 121.048 56.883 120.6C57.1283 120.152 57.251 119.624 57.251 119.016C57.251 118.44 57.1443 117.928 56.931 117.48C56.7177 117.032 56.4083 116.68 56.003 116.424C55.5977 116.168 55.107 116.04 54.531 116.04C53.9443 116.04 53.4483 116.173 53.043 116.44C52.6483 116.707 52.3497 117.064 52.147 117.512C51.9443 117.96 51.843 118.461 51.843 119.016C51.843 119.72 51.971 120.296 52.227 120.744C52.483 121.181 52.8137 121.507 53.219 121.72C53.6243 121.923 54.0457 122.024 54.483 122.024ZM60.3153 123V111.8H61.6593V116.424C61.9259 115.933 62.3046 115.555 62.7953 115.288C63.2859 115.011 63.8193 114.872 64.3953 114.872C65.3126 114.872 66.0486 115.16 66.6033 115.736C67.1579 116.301 67.4353 117.176 67.4353 118.36V123H66.1073V118.504C66.1073 117.683 65.9366 117.064 65.5953 116.648C65.2646 116.232 64.7686 116.024 64.1073 116.024C63.4139 116.024 62.8326 116.275 62.3633 116.776C61.8939 117.267 61.6593 117.971 61.6593 118.888V123H60.3153ZM69.3115 123V115.064H70.5275L70.6075 116.488C70.8635 115.987 71.2315 115.592 71.7115 115.304C72.1915 115.016 72.7355 114.872 73.3435 114.872C74.2822 114.872 75.0288 115.16 75.5835 115.736C76.1488 116.301 76.4315 117.176 76.4315 118.36V123H75.0875V118.504C75.0875 117.683 74.9168 117.064 74.5755 116.648C74.2342 116.232 73.7222 116.024 73.0395 116.024C72.3568 116.024 71.7862 116.275 71.3275 116.776C70.8795 117.267 70.6555 117.971 70.6555 118.888V123H69.3115ZM78.7874 123.08C78.5207 123.08 78.2967 122.995 78.1154 122.824C77.9447 122.643 77.8594 122.424 77.8594 122.168C77.8594 121.912 77.9447 121.699 78.1154 121.528C78.2967 121.347 78.5207 121.256 78.7874 121.256C79.0434 121.256 79.2567 121.347 79.4274 121.528C79.6087 121.699 79.6994 121.912 79.6994 122.168C79.6994 122.424 79.6087 122.643 79.4274 122.824C79.2567 122.995 79.0434 123.08 78.7874 123.08ZM84.8884 123.192C84.0777 123.192 83.379 123.005 82.7924 122.632C82.2057 122.259 81.7524 121.757 81.4324 121.128C81.1124 120.499 80.9524 119.795 80.9524 119.016C80.9524 118.248 81.107 117.549 81.4164 116.92C81.7364 116.291 82.1897 115.795 82.7764 115.432C83.363 115.059 84.0724 114.872 84.9044 114.872C85.555 114.872 86.131 115.005 86.6324 115.272C87.1337 115.539 87.523 115.912 87.8004 116.392V111.8H89.1444V123H87.9284L87.8004 121.688C87.5444 122.072 87.1764 122.419 86.6964 122.728C86.2164 123.037 85.6137 123.192 84.8884 123.192ZM85.0324 122.024C85.619 122.024 86.115 121.891 86.5204 121.624C86.9257 121.347 87.2297 120.984 87.4324 120.536C87.6457 120.077 87.7524 119.576 87.7524 119.032C87.7524 118.456 87.6457 117.944 87.4324 117.496C87.219 117.048 86.9097 116.696 86.5044 116.44C86.099 116.173 85.6084 116.04 85.0324 116.04C84.5204 116.04 84.0617 116.163 83.6564 116.408C83.251 116.653 82.9257 117 82.6804 117.448C82.4457 117.885 82.3284 118.413 82.3284 119.032C82.3284 119.651 82.451 120.184 82.6964 120.632C82.9417 121.08 83.267 121.427 83.6724 121.672C84.0884 121.907 84.5417 122.024 85.0324 122.024ZM94.8393 123.192C94.1139 123.192 93.4473 123.032 92.8393 122.712C92.2313 122.381 91.7459 121.907 91.3833 121.288C91.0206 120.659 90.8393 119.901 90.8393 119.016C90.8393 118.173 91.0153 117.443 91.3673 116.824C91.7299 116.205 92.2153 115.725 92.8233 115.384C93.4419 115.043 94.1353 114.872 94.9033 114.872C95.6393 114.872 96.3113 115.032 96.9193 115.352C97.5379 115.672 98.0339 116.141 98.4073 116.76C98.7806 117.379 98.9673 118.131 98.9673 119.016C98.9673 119.827 98.7913 120.547 98.4393 121.176C98.0873 121.805 97.5966 122.301 96.9673 122.664C96.3486 123.016 95.6393 123.192 94.8393 123.192ZM94.8393 122.024C95.3619 122.024 95.8313 121.901 96.2473 121.656C96.6633 121.4 96.9939 121.048 97.2393 120.6C97.4846 120.152 97.6073 119.624 97.6073 119.016C97.6073 118.44 97.5006 117.928 97.2873 117.48C97.0739 117.032 96.7646 116.68 96.3593 116.424C95.9539 116.168 95.4633 116.04 94.8873 116.04C94.3006 116.04 93.8046 116.173 93.3993 116.44C93.0046 116.707 92.7059 117.064 92.5033 117.512C92.3006 117.96 92.1993 118.461 92.1993 119.016C92.1993 119.72 92.3273 120.296 92.5833 120.744C92.8393 121.181 93.1699 121.507 93.5753 121.72C93.9806 121.923 94.4019 122.024 94.8393 122.024ZM104.24 123.192C103.504 123.192 102.837 123.021 102.24 122.68C101.653 122.339 101.189 121.859 100.848 121.24C100.506 120.611 100.336 119.875 100.336 119.032C100.336 118.2 100.496 117.475 100.816 116.856C101.146 116.227 101.605 115.741 102.192 115.4C102.789 115.048 103.482 114.872 104.272 114.872C105.018 114.872 105.669 115.037 106.224 115.368C106.778 115.699 107.21 116.147 107.52 116.712C107.84 117.267 108 117.891 108 118.584C108 118.733 108 118.851 108 118.936C108 119.021 107.994 119.155 107.984 119.336H101.664C101.696 119.859 101.818 120.328 102.032 120.744C102.256 121.149 102.554 121.469 102.928 121.704C103.312 121.939 103.749 122.056 104.24 122.056C104.794 122.056 105.258 121.928 105.632 121.672C106.005 121.416 106.277 121.069 106.448 120.632H107.776C107.637 121.123 107.408 121.56 107.088 121.944C106.768 122.328 106.368 122.632 105.888 122.856C105.418 123.08 104.869 123.192 104.24 123.192ZM101.68 118.296H106.672C106.64 117.581 106.394 117.021 105.936 116.616C105.477 116.211 104.912 116.008 104.24 116.008C103.6 116.008 103.029 116.205 102.528 116.6C102.037 116.984 101.754 117.549 101.68 118.296ZM116.821 126.392C115.786 126.392 114.832 126.227 113.957 125.896C113.082 125.565 112.325 125.096 111.685 124.488C111.045 123.88 110.549 123.155 110.197 122.312C109.845 121.469 109.669 120.536 109.669 119.512C109.669 118.467 109.85 117.517 110.213 116.664C110.586 115.8 111.098 115.064 111.749 114.456C112.41 113.837 113.178 113.363 114.053 113.032C114.928 112.701 115.872 112.536 116.885 112.536C117.856 112.536 118.768 112.685 119.621 112.984C120.474 113.283 121.221 113.715 121.861 114.28C122.512 114.845 123.018 115.528 123.381 116.328C123.754 117.128 123.941 118.029 123.941 119.032C123.941 119.725 123.829 120.376 123.605 120.984C123.392 121.581 123.066 122.061 122.629 122.424C122.192 122.787 121.632 122.968 120.949 122.968C120.49 122.968 120.09 122.861 119.749 122.648C119.418 122.424 119.168 122.115 118.997 121.72C118.73 122.04 118.4 122.333 118.005 122.6C117.621 122.867 117.114 123 116.485 123C115.813 123 115.226 122.851 114.725 122.552C114.224 122.243 113.829 121.827 113.541 121.304C113.264 120.771 113.125 120.168 113.125 119.496C113.125 118.824 113.264 118.227 113.541 117.704C113.829 117.181 114.224 116.776 114.725 116.488C115.237 116.189 115.829 116.04 116.501 116.04C116.981 116.04 117.418 116.131 117.813 116.312C118.208 116.483 118.544 116.739 118.821 117.08V116.2H120.101V120.648C120.101 120.989 120.192 121.272 120.373 121.496C120.565 121.72 120.832 121.832 121.173 121.832C121.6 121.832 121.936 121.693 122.181 121.416C122.426 121.128 122.602 120.771 122.709 120.344C122.816 119.917 122.869 119.491 122.869 119.064C122.869 117.933 122.613 116.952 122.101 116.12C121.589 115.288 120.88 114.648 119.973 114.2C119.077 113.741 118.048 113.512 116.885 113.512C116.01 113.512 115.2 113.661 114.453 113.96C113.717 114.248 113.072 114.664 112.517 115.208C111.962 115.741 111.53 116.376 111.221 117.112C110.912 117.837 110.757 118.637 110.757 119.512C110.757 120.408 110.912 121.219 111.221 121.944C111.541 122.669 111.978 123.288 112.533 123.8C113.088 124.312 113.728 124.707 114.453 124.984C115.189 125.261 115.978 125.4 116.821 125.4C117.354 125.4 117.866 125.352 118.357 125.256C118.848 125.16 119.306 125.011 119.733 124.808L120.053 125.768C119.85 125.853 119.632 125.933 119.397 126.008C119.173 126.083 118.928 126.147 118.661 126.2C118.053 126.328 117.44 126.392 116.821 126.392ZM116.677 121.848C117.392 121.848 117.941 121.624 118.325 121.176C118.72 120.717 118.917 120.163 118.917 119.512C118.917 119.053 118.826 118.653 118.645 118.312C118.464 117.96 118.202 117.683 117.861 117.48C117.53 117.277 117.136 117.176 116.677 117.176C115.994 117.176 115.45 117.4 115.045 117.848C114.65 118.285 114.453 118.84 114.453 119.512C114.453 120.227 114.661 120.797 115.077 121.224C115.493 121.64 116.026 121.848 116.677 121.848ZM129.656 123.192C128.909 123.192 128.232 123.021 127.624 122.68C127.026 122.339 126.552 121.859 126.2 121.24C125.848 120.611 125.672 119.875 125.672 119.032C125.672 118.211 125.842 117.491 126.184 116.872C126.525 116.243 126.994 115.752 127.592 115.4C128.189 115.048 128.877 114.872 129.656 114.872C130.594 114.872 131.384 115.117 132.024 115.608C132.674 116.099 133.085 116.755 133.256 117.576H131.88C131.773 117.085 131.512 116.707 131.096 116.44C130.68 116.163 130.194 116.024 129.64 116.024C129.074 116.024 128.6 116.163 128.216 116.44C127.832 116.717 127.538 117.085 127.336 117.544C127.144 118.003 127.048 118.499 127.048 119.032C127.048 119.619 127.16 120.141 127.384 120.6C127.608 121.059 127.912 121.416 128.296 121.672C128.69 121.928 129.138 122.056 129.64 122.056C130.194 122.056 130.68 121.923 131.096 121.656C131.512 121.379 131.773 120.989 131.88 120.488H133.256C133.149 121.021 132.93 121.491 132.6 121.896C132.269 122.301 131.853 122.621 131.352 122.856C130.85 123.08 130.285 123.192 129.656 123.192ZM134.973 123V111.8H136.317V116.424C136.583 115.933 136.962 115.555 137.453 115.288C137.943 115.011 138.477 114.872 139.053 114.872C139.97 114.872 140.706 115.16 141.261 115.736C141.815 116.301 142.093 117.176 142.093 118.36V123H140.765V118.504C140.765 117.683 140.594 117.064 140.253 116.648C139.922 116.232 139.426 116.024 138.765 116.024C138.071 116.024 137.49 116.275 137.021 116.776C136.551 117.267 136.317 117.971 136.317 118.888V123H134.973ZM146.609 123.192C146.065 123.192 145.569 123.101 145.121 122.92C144.673 122.739 144.316 122.467 144.049 122.104C143.793 121.731 143.665 121.277 143.665 120.744C143.665 120.125 143.825 119.635 144.145 119.272C144.465 118.899 144.886 118.632 145.409 118.472C145.942 118.301 146.513 118.216 147.121 118.216H149.265C149.265 117.661 149.169 117.224 148.977 116.904C148.796 116.584 148.556 116.355 148.257 116.216C147.958 116.077 147.628 116.008 147.265 116.008C146.742 116.008 146.289 116.136 145.905 116.392C145.532 116.637 145.297 117.021 145.201 117.544H143.825C143.878 116.968 144.07 116.483 144.401 116.088C144.732 115.693 145.148 115.395 145.649 115.192C146.161 114.979 146.7 114.872 147.265 114.872C148.065 114.872 148.71 115.021 149.201 115.32C149.692 115.608 150.049 115.997 150.273 116.488C150.497 116.979 150.609 117.523 150.609 118.12V120.552C150.609 120.947 150.657 121.245 150.753 121.448C150.849 121.651 151.094 121.773 151.489 121.816V123C151.137 123 150.817 122.957 150.529 122.872C150.241 122.776 149.996 122.627 149.793 122.424C149.601 122.211 149.462 121.933 149.377 121.592C149.11 122.04 148.742 122.419 148.273 122.728C147.814 123.037 147.26 123.192 146.609 123.192ZM146.817 122.056C147.35 122.056 147.798 121.923 148.161 121.656C148.524 121.379 148.796 121.027 148.977 120.6C149.169 120.173 149.265 119.731 149.265 119.272V119.256H147.233C146.86 119.256 146.508 119.299 146.177 119.384C145.846 119.459 145.58 119.603 145.377 119.816C145.174 120.019 145.073 120.307 145.073 120.68C145.073 121.16 145.244 121.512 145.585 121.736C145.926 121.949 146.337 122.056 146.817 122.056ZM156.41 123.192C155.663 123.192 154.986 123.021 154.378 122.68C153.781 122.339 153.306 121.859 152.954 121.24C152.602 120.611 152.426 119.875 152.426 119.032C152.426 118.211 152.597 117.491 152.938 116.872C153.279 116.243 153.749 115.752 154.346 115.4C154.943 115.048 155.631 114.872 156.41 114.872C157.349 114.872 158.138 115.117 158.778 115.608C159.429 116.099 159.839 116.755 160.01 117.576H158.634C158.527 117.085 158.266 116.707 157.85 116.44C157.434 116.163 156.949 116.024 156.394 116.024C155.829 116.024 155.354 116.163 154.97 116.44C154.586 116.717 154.293 117.085 154.09 117.544C153.898 118.003 153.802 118.499 153.802 119.032C153.802 119.619 153.914 120.141 154.138 120.6C154.362 121.059 154.666 121.416 155.05 121.672C155.445 121.928 155.893 122.056 156.394 122.056C156.949 122.056 157.434 121.923 157.85 121.656C158.266 121.379 158.527 120.989 158.634 120.488H160.01C159.903 121.021 159.685 121.491 159.354 121.896C159.023 122.301 158.607 122.621 158.106 122.856C157.605 123.08 157.039 123.192 156.41 123.192ZM161.727 123V111.8H163.071V116.424C163.338 115.933 163.716 115.555 164.207 115.288C164.698 115.011 165.231 114.872 165.807 114.872C166.724 114.872 167.46 115.16 168.015 115.736C168.57 116.301 168.847 117.176 168.847 118.36V123H167.519V118.504C167.519 117.683 167.348 117.064 167.007 116.648C166.676 116.232 166.18 116.024 165.519 116.024C164.826 116.024 164.244 116.275 163.775 116.776C163.306 117.267 163.071 117.971 163.071 118.888V123H161.727ZM171.539 113.304C171.273 113.304 171.049 113.219 170.867 113.048C170.697 112.867 170.611 112.643 170.611 112.376C170.611 112.12 170.697 111.907 170.867 111.736C171.049 111.565 171.273 111.48 171.539 111.48C171.795 111.48 172.014 111.565 172.195 111.736C172.377 111.907 172.467 112.12 172.467 112.376C172.467 112.643 172.377 112.867 172.195 113.048C172.014 113.219 171.795 113.304 171.539 113.304ZM170.867 123V115.064H172.211V123H170.867ZM174.391 123V115.064H175.607L175.687 116.488C175.943 115.987 176.311 115.592 176.791 115.304C177.271 115.016 177.815 114.872 178.423 114.872C179.362 114.872 180.109 115.16 180.663 115.736C181.229 116.301 181.511 117.176 181.511 118.36V123H180.167V118.504C180.167 117.683 179.997 117.064 179.655 116.648C179.314 116.232 178.802 116.024 178.119 116.024C177.437 116.024 176.866 116.275 176.407 116.776C175.959 117.267 175.735 117.971 175.735 118.888V123H174.391ZM186.555 126.712C185.926 126.712 185.323 126.632 184.747 126.472C184.171 126.312 183.702 126.04 183.339 125.656C182.987 125.283 182.811 124.781 182.811 124.152C182.811 123.715 182.913 123.352 183.115 123.064C183.318 122.776 183.585 122.557 183.915 122.408C183.659 122.259 183.451 122.072 183.291 121.848C183.131 121.624 183.051 121.368 183.051 121.08C183.051 120.44 183.339 119.923 183.915 119.528C183.702 119.283 183.531 119.011 183.403 118.712C183.286 118.403 183.227 118.061 183.227 117.688C183.227 117.101 183.361 116.6 183.627 116.184C183.905 115.757 184.278 115.432 184.747 115.208C185.227 114.984 185.771 114.872 186.379 114.872C186.827 114.872 187.249 114.936 187.643 115.064H190.347V116.2H189.115C189.254 116.413 189.355 116.648 189.419 116.904C189.494 117.149 189.531 117.411 189.531 117.688C189.531 118.296 189.387 118.808 189.099 119.224C188.822 119.64 188.443 119.96 187.963 120.184C187.494 120.397 186.966 120.504 186.379 120.504C186.081 120.504 185.809 120.472 185.563 120.408C185.318 120.344 185.073 120.253 184.827 120.136C184.55 120.275 184.411 120.488 184.411 120.776C184.411 121.309 184.859 121.576 185.755 121.576H187.083C187.681 121.576 188.209 121.656 188.667 121.816C189.126 121.965 189.483 122.216 189.739 122.568C190.006 122.909 190.139 123.379 190.139 123.976C190.139 124.584 189.969 125.091 189.627 125.496C189.286 125.901 188.843 126.205 188.299 126.408C187.755 126.611 187.174 126.712 186.555 126.712ZM186.523 125.592C187.163 125.592 187.707 125.469 188.155 125.224C188.603 124.989 188.827 124.627 188.827 124.136C188.827 123.219 188.273 122.76 187.163 122.76H185.803C185.281 122.76 184.87 122.872 184.571 123.096C184.273 123.331 184.123 123.677 184.123 124.136C184.123 124.488 184.235 124.771 184.459 124.984C184.683 125.197 184.977 125.352 185.339 125.448C185.702 125.544 186.097 125.592 186.523 125.592ZM186.347 119.384C186.902 119.384 187.355 119.224 187.707 118.904C188.059 118.584 188.235 118.179 188.235 117.688C188.235 117.197 188.059 116.792 187.707 116.472C187.355 116.152 186.902 115.992 186.347 115.992C185.793 115.992 185.345 116.152 185.003 116.472C184.673 116.792 184.507 117.197 184.507 117.688C184.507 118.179 184.667 118.584 184.987 118.904C185.318 119.224 185.771 119.384 186.347 119.384ZM192.176 123.08C191.909 123.08 191.685 122.995 191.504 122.824C191.333 122.643 191.248 122.424 191.248 122.168C191.248 121.912 191.333 121.699 191.504 121.528C191.685 121.347 191.909 121.256 192.176 121.256C192.432 121.256 192.645 121.347 192.816 121.528C192.997 121.699 193.088 121.912 193.088 122.168C193.088 122.424 192.997 122.643 192.816 122.824C192.645 122.995 192.432 123.08 192.176 123.08ZM195.493 113.304C195.226 113.304 195.002 113.219 194.821 113.048C194.65 112.867 194.565 112.643 194.565 112.376C194.565 112.12 194.65 111.907 194.821 111.736C195.002 111.565 195.226 111.48 195.493 111.48C195.749 111.48 195.968 111.565 196.149 111.736C196.33 111.907 196.421 112.12 196.421 112.376C196.421 112.643 196.33 112.867 196.149 113.048C195.968 113.219 195.749 113.304 195.493 113.304ZM194.821 123V115.064H196.165V123H194.821ZM202.009 123.192C201.284 123.192 200.617 123.032 200.009 122.712C199.401 122.381 198.916 121.907 198.553 121.288C198.191 120.659 198.009 119.901 198.009 119.016C198.009 118.173 198.185 117.443 198.537 116.824C198.9 116.205 199.385 115.725 199.993 115.384C200.612 115.043 201.305 114.872 202.073 114.872C202.809 114.872 203.481 115.032 204.089 115.352C204.708 115.672 205.204 116.141 205.577 116.76C205.951 117.379 206.137 118.131 206.137 119.016C206.137 119.827 205.961 120.547 205.609 121.176C205.257 121.805 204.767 122.301 204.137 122.664C203.519 123.016 202.809 123.192 202.009 123.192ZM202.009 122.024C202.532 122.024 203.001 121.901 203.417 121.656C203.833 121.4 204.164 121.048 204.409 120.6C204.655 120.152 204.777 119.624 204.777 119.016C204.777 118.44 204.671 117.928 204.457 117.48C204.244 117.032 203.935 116.68 203.529 116.424C203.124 116.168 202.633 116.04 202.057 116.04C201.471 116.04 200.975 116.173 200.569 116.44C200.175 116.707 199.876 117.064 199.673 117.512C199.471 117.96 199.369 118.461 199.369 119.016C199.369 119.72 199.497 120.296 199.753 120.744C200.009 121.181 200.34 121.507 200.745 121.72C201.151 121.923 201.572 122.024 202.009 122.024Z" fill="#141414"/>
<path d="M438 153.5C443.799 153.5 448.5 158.201 448.5 164V204C448.5 209.799 443.799 214.5 438 214.5H42C36.201 214.5 31.5 209.799 31.5 204V164C31.5 158.201 36.201 153.5 42 153.5H438Z" fill="white"/>
<path d="M438 153.5C443.799 153.5 448.5 158.201 448.5 164V204C448.5 209.799 443.799 214.5 438 214.5H42C36.201 214.5 31.5 209.799 31.5 204V164C31.5 158.201 36.201 153.5 42 153.5H438Z" stroke="#DCDEE0"/>
<path d="M47.036 178V168.2H50.27C50.9607 168.2 51.5533 168.303 52.048 168.508C52.5427 168.713 52.9253 169.021 53.196 169.432C53.4667 169.843 53.602 170.356 53.602 170.972C53.602 171.607 53.4573 172.129 53.168 172.54C52.888 172.951 52.496 173.254 51.992 173.45C51.4973 173.646 50.9233 173.744 50.27 173.744H48.212V178H47.036ZM48.212 172.75H50.242C51.026 172.75 51.5813 172.601 51.908 172.302C52.2347 171.994 52.398 171.551 52.398 170.972C52.398 170.384 52.2347 169.941 51.908 169.642C51.5813 169.334 51.026 169.18 50.242 169.18H48.212V172.75ZM56.9153 178.168C56.4393 178.168 56.0053 178.089 55.6133 177.93C55.2213 177.771 54.9086 177.533 54.6753 177.216C54.4513 176.889 54.3393 176.493 54.3393 176.026C54.3393 175.485 54.4793 175.055 54.7593 174.738C55.0393 174.411 55.408 174.178 55.8653 174.038C56.332 173.889 56.8313 173.814 57.3633 173.814H59.2393C59.2393 173.329 59.1553 172.946 58.9873 172.666C58.8286 172.386 58.6186 172.185 58.3573 172.064C58.096 171.943 57.8066 171.882 57.4893 171.882C57.032 171.882 56.6353 171.994 56.2993 172.218C55.9726 172.433 55.7673 172.769 55.6833 173.226H54.4793C54.526 172.722 54.694 172.297 54.9833 171.952C55.2726 171.607 55.6366 171.345 56.0753 171.168C56.5233 170.981 56.9946 170.888 57.4893 170.888C58.1893 170.888 58.754 171.019 59.1833 171.28C59.6126 171.532 59.9253 171.873 60.1213 172.302C60.3173 172.731 60.4153 173.207 60.4153 173.73V175.858C60.4153 176.203 60.4573 176.465 60.5413 176.642C60.6253 176.819 60.84 176.927 61.1853 176.964V178C60.8773 178 60.5973 177.963 60.3453 177.888C60.0933 177.804 59.8786 177.673 59.7013 177.496C59.5333 177.309 59.412 177.067 59.3373 176.768C59.104 177.16 58.782 177.491 58.3713 177.762C57.97 178.033 57.4846 178.168 56.9153 178.168ZM57.0973 177.174C57.564 177.174 57.956 177.057 58.2733 176.824C58.5906 176.581 58.8286 176.273 58.9873 175.9C59.1553 175.527 59.2393 175.139 59.2393 174.738V174.724H57.4613C57.1346 174.724 56.8266 174.761 56.5373 174.836C56.248 174.901 56.0146 175.027 55.8373 175.214C55.66 175.391 55.5713 175.643 55.5713 175.97C55.5713 176.39 55.7206 176.698 56.0193 176.894C56.318 177.081 56.6773 177.174 57.0973 177.174ZM65.1233 178.168C64.5727 178.168 64.078 178.075 63.6393 177.888C63.2007 177.692 62.846 177.421 62.5753 177.076C62.314 176.721 62.1507 176.306 62.0853 175.83H63.2893C63.364 176.194 63.5553 176.511 63.8633 176.782C64.1807 177.043 64.6053 177.174 65.1373 177.174C65.632 177.174 65.996 177.071 66.2293 176.866C66.4627 176.651 66.5793 176.399 66.5793 176.11C66.5793 175.83 66.5093 175.615 66.3693 175.466C66.2387 175.317 66.0427 175.205 65.7813 175.13C65.5293 175.046 65.2167 174.967 64.8433 174.892C64.4513 174.808 64.0687 174.696 63.6953 174.556C63.322 174.407 63.014 174.206 62.7713 173.954C62.5287 173.702 62.4073 173.371 62.4073 172.96C62.4073 172.549 62.51 172.19 62.7153 171.882C62.9207 171.574 63.21 171.331 63.5833 171.154C63.966 170.977 64.414 170.888 64.9273 170.888C65.6647 170.888 66.2667 171.075 66.7333 171.448C67.2093 171.812 67.4847 172.335 67.5593 173.016H66.3973C66.3507 172.661 66.1967 172.386 65.9353 172.19C65.6833 171.985 65.3427 171.882 64.9133 171.882C64.4933 171.882 64.1667 171.971 63.9333 172.148C63.7093 172.325 63.5973 172.559 63.5973 172.848C63.5973 173.035 63.6627 173.193 63.7933 173.324C63.924 173.455 64.1107 173.567 64.3533 173.66C64.6053 173.753 64.8993 173.837 65.2353 173.912C65.702 174.005 66.1267 174.122 66.5093 174.262C66.892 174.402 67.2 174.607 67.4333 174.878C67.6667 175.139 67.7833 175.517 67.7833 176.012C67.7927 176.423 67.6853 176.791 67.4613 177.118C67.2467 177.445 66.9387 177.701 66.5373 177.888C66.1453 178.075 65.674 178.168 65.1233 178.168ZM71.9833 178.168C71.4327 178.168 70.938 178.075 70.4993 177.888C70.0607 177.692 69.706 177.421 69.4353 177.076C69.174 176.721 69.0107 176.306 68.9453 175.83H70.1493C70.224 176.194 70.4153 176.511 70.7233 176.782C71.0407 177.043 71.4653 177.174 71.9973 177.174C72.492 177.174 72.856 177.071 73.0893 176.866C73.3227 176.651 73.4393 176.399 73.4393 176.11C73.4393 175.83 73.3693 175.615 73.2293 175.466C73.0987 175.317 72.9027 175.205 72.6413 175.13C72.3893 175.046 72.0767 174.967 71.7033 174.892C71.3113 174.808 70.9287 174.696 70.5553 174.556C70.182 174.407 69.874 174.206 69.6313 173.954C69.3887 173.702 69.2673 173.371 69.2673 172.96C69.2673 172.549 69.37 172.19 69.5753 171.882C69.7807 171.574 70.07 171.331 70.4433 171.154C70.826 170.977 71.274 170.888 71.7873 170.888C72.5247 170.888 73.1267 171.075 73.5933 171.448C74.0693 171.812 74.3447 172.335 74.4193 173.016H73.2573C73.2107 172.661 73.0567 172.386 72.7953 172.19C72.5433 171.985 72.2027 171.882 71.7733 171.882C71.3533 171.882 71.0267 171.971 70.7933 172.148C70.5693 172.325 70.4573 172.559 70.4573 172.848C70.4573 173.035 70.5227 173.193 70.6533 173.324C70.784 173.455 70.9707 173.567 71.2133 173.66C71.4653 173.753 71.7593 173.837 72.0953 173.912C72.562 174.005 72.9867 174.122 73.3693 174.262C73.752 174.402 74.06 174.607 74.2933 174.878C74.5267 175.139 74.6433 175.517 74.6433 176.012C74.6527 176.423 74.5453 176.791 74.3213 177.118C74.1067 177.445 73.7987 177.701 73.3973 177.888C73.0053 178.075 72.534 178.168 71.9833 178.168ZM77.3236 178L75.2936 171.056H76.4696L77.9396 176.502L79.5636 171.056H80.8936L82.5316 176.502L83.9876 171.056H85.1776L83.1476 178H81.9436L80.2356 172.274L78.5276 178H77.3236ZM89.2845 178.168C88.6498 178.168 88.0665 178.028 87.5345 177.748C87.0025 177.459 86.5778 177.043 86.2605 176.502C85.9432 175.951 85.7845 175.289 85.7845 174.514C85.7845 173.777 85.9385 173.137 86.2465 172.596C86.5638 172.055 86.9885 171.635 87.5205 171.336C88.0618 171.037 88.6685 170.888 89.3405 170.888C89.9845 170.888 90.5725 171.028 91.1045 171.308C91.6458 171.588 92.0798 171.999 92.4065 172.54C92.7332 173.081 92.8965 173.739 92.8965 174.514C92.8965 175.223 92.7425 175.853 92.4345 176.404C92.1265 176.955 91.6972 177.389 91.1465 177.706C90.6052 178.014 89.9845 178.168 89.2845 178.168ZM89.2845 177.146C89.7418 177.146 90.1525 177.039 90.5165 176.824C90.8805 176.6 91.1698 176.292 91.3845 175.9C91.5992 175.508 91.7065 175.046 91.7065 174.514C91.7065 174.01 91.6132 173.562 91.4265 173.17C91.2398 172.778 90.9692 172.47 90.6145 172.246C90.2598 172.022 89.8305 171.91 89.3265 171.91C88.8132 171.91 88.3792 172.027 88.0245 172.26C87.6792 172.493 87.4178 172.806 87.2405 173.198C87.0632 173.59 86.9745 174.029 86.9745 174.514C86.9745 175.13 87.0865 175.634 87.3105 176.026C87.5345 176.409 87.8238 176.693 88.1785 176.88C88.5332 177.057 88.9018 177.146 89.2845 177.146ZM94.3877 178V171.056H95.4517L95.5497 172.386C95.7644 171.929 96.0911 171.565 96.5297 171.294C96.9684 171.023 97.5097 170.888 98.1537 170.888V172.12H97.8317C97.0664 172.12 96.4971 172.325 96.1237 172.736C95.7504 173.147 95.5637 173.735 95.5637 174.5V178H94.3877ZM102.224 178.168C101.515 178.168 100.903 178.005 100.39 177.678C99.8766 177.351 99.4799 176.913 99.1999 176.362C98.9199 175.811 98.7799 175.195 98.7799 174.514C98.7799 173.842 98.9152 173.231 99.1859 172.68C99.4659 172.129 99.8626 171.695 100.376 171.378C100.889 171.051 101.51 170.888 102.238 170.888C102.807 170.888 103.311 171.005 103.75 171.238C104.189 171.471 104.529 171.798 104.772 172.218V168.2H105.948V178H104.884L104.772 176.852C104.548 177.188 104.226 177.491 103.806 177.762C103.386 178.033 102.859 178.168 102.224 178.168ZM102.35 177.146C102.863 177.146 103.297 177.029 103.652 176.796C104.007 176.553 104.273 176.236 104.45 175.844C104.637 175.443 104.73 175.004 104.73 174.528C104.73 174.024 104.637 173.576 104.45 173.184C104.263 172.792 103.993 172.484 103.638 172.26C103.283 172.027 102.854 171.91 102.35 171.91C101.902 171.91 101.501 172.017 101.146 172.232C100.791 172.447 100.507 172.75 100.292 173.142C100.087 173.525 99.9839 173.987 99.9839 174.528C99.9839 175.069 100.091 175.536 100.306 175.928C100.521 176.32 100.805 176.623 101.16 176.838C101.524 177.043 101.921 177.146 102.35 177.146Z" fill="#525252"/>
<path d="M49.376 193.304V191.112L47.488 192.2L47.008 191.384L48.896 190.28L47.008 189.192L47.488 188.376L49.376 189.464V187.272H50.32V189.464L52.24 188.376L52.704 189.192L50.8 190.28L52.704 191.384L52.24 192.2L50.32 191.112V193.304H49.376ZM56.8566 193.304V191.112L54.9686 192.2L54.4886 191.384L56.3766 190.28L54.4886 189.192L54.9686 188.376L56.8566 189.464V187.272H57.8006V189.464L59.7206 188.376L60.1846 189.192L58.2806 190.28L60.1846 191.384L59.7206 192.2L57.8006 191.112V193.304H56.8566ZM64.3373 193.304V191.112L62.4493 192.2L61.9693 191.384L63.8573 190.28L61.9693 189.192L62.4493 188.376L64.3373 189.464V187.272H65.2813V189.464L67.2013 188.376L67.6653 189.192L65.7613 190.28L67.6653 191.384L67.2013 192.2L65.2813 191.112V193.304H64.3373ZM71.8179 193.304V191.112L69.9299 192.2L69.4499 191.384L71.3379 190.28L69.4499 189.192L69.9299 188.376L71.8179 189.464V187.272H72.7619V189.464L74.6819 188.376L75.1459 189.192L73.2419 190.28L75.1459 191.384L74.6819 192.2L72.7619 191.112V193.304H71.8179ZM79.2985 193.304V191.112L77.4105 192.2L76.9305 191.384L78.8185 190.28L76.9305 189.192L77.4105 188.376L79.2985 189.464V187.272H80.2425V189.464L82.1625 188.376L82.6265 189.192L80.7225 190.28L82.6265 191.384L82.1625 192.2L80.2425 191.112V193.304H79.2985ZM86.7791 193.304V191.112L84.8911 192.2L84.4111 191.384L86.2991 190.28L84.4111 189.192L84.8911 188.376L86.7791 189.464V187.272H87.7231V189.464L89.6431 188.376L90.1071 189.192L88.2031 190.28L90.1071 191.384L89.6431 192.2L87.7231 191.112V193.304H86.7791ZM94.2598 193.304V191.112L92.3718 192.2L91.8918 191.384L93.7798 190.28L91.8918 189.192L92.3718 188.376L94.2598 189.464V187.272H95.2038V189.464L97.1238 188.376L97.5878 189.192L95.6838 190.28L97.5878 191.384L97.1238 192.2L95.2038 191.112V193.304H94.2598ZM101.74 193.304V191.112L99.8524 192.2L99.3724 191.384L101.26 190.28L99.3724 189.192L99.8524 188.376L101.74 189.464V187.272H102.684V189.464L104.604 188.376L105.068 189.192L103.164 190.28L105.068 191.384L104.604 192.2L102.684 191.112V193.304H101.74ZM109.221 193.304V191.112L107.333 192.2L106.853 191.384L108.741 190.28L106.853 189.192L107.333 188.376L109.221 189.464V187.272H110.165V189.464L112.085 188.376L112.549 189.192L110.645 190.28L112.549 191.384L112.085 192.2L110.165 191.112V193.304H109.221ZM116.702 193.304V191.112L114.814 192.2L114.334 191.384L116.222 190.28L114.334 189.192L114.814 188.376L116.702 189.464V187.272H117.646V189.464L119.566 188.376L120.03 189.192L118.126 190.28L120.03 191.384L119.566 192.2L117.646 191.112V193.304H116.702Z" fill="#141414"/>
<path fill-rule="evenodd" clip-rule="evenodd" d="M426 180C422.763 180 421.26 182.515 420.731 183.702C420.646 183.894 420.646 184.106 420.731 184.298C421.26 185.485 422.763 188 426 188C429.237 188 430.74 185.485 431.269 184.298C431.354 184.106 431.354 183.894 431.269 183.702C430.74 182.515 429.237 180 426 180ZM419.513 183.16C420.093 181.858 421.928 178.667 426 178.667C430.073 178.667 431.907 181.859 432.487 183.16C432.726 183.697 432.726 184.303 432.487 184.84C431.907 186.141 430.073 189.333 426 189.333C421.928 189.333 420.093 186.142 419.513 184.84C419.274 184.303 419.274 183.697 419.513 183.16Z" fill="#12131A"/>
<path fill-rule="evenodd" clip-rule="evenodd" d="M426 181.333C424.527 181.333 423.333 182.527 423.333 184C423.333 185.473 424.527 186.667 426 186.667C427.473 186.667 428.667 185.473 428.667 184C428.667 182.527 427.473 181.333 426 181.333ZM425.944 182.668C425.962 182.667 425.981 182.667 426 182.667C426.736 182.667 427.333 183.264 427.333 184C427.333 184.736 426.736 185.333 426 185.333C425.264 185.333 424.667 184.736 424.667 184C424.667 183.981 424.667 183.962 424.668 183.944C424.772 183.98 424.884 184 425 184C425.552 184 426 183.552 426 183C426 182.884 425.98 182.772 425.944 182.668Z" fill="#12131A"/>
<path d="M32.966 244V234.2H39.042V235.446H34.45V238.316H38.412V239.562H34.45V244H32.966ZM43.085 244.168C42.413 244.168 41.8064 244.023 41.265 243.734C40.733 243.435 40.3084 243.011 39.991 242.46C39.683 241.909 39.529 241.261 39.529 240.514C39.529 239.767 39.6877 239.123 40.005 238.582C40.3317 238.041 40.7657 237.625 41.307 237.336C41.8577 237.037 42.469 236.888 43.141 236.888C43.813 236.888 44.4197 237.033 44.961 237.322C45.5024 237.611 45.9364 238.027 46.263 238.568C46.5897 239.109 46.753 239.758 46.753 240.514C46.753 241.223 46.5944 241.853 46.277 242.404C45.969 242.955 45.5397 243.389 44.989 243.706C44.4384 244.014 43.8037 244.168 43.085 244.168ZM43.099 242.88C43.5097 242.88 43.8737 242.777 44.191 242.572C44.5177 242.367 44.7744 242.087 44.961 241.732C45.1477 241.368 45.241 240.957 45.241 240.5C45.241 240.033 45.1477 239.627 44.961 239.282C44.7837 238.927 44.5364 238.657 44.219 238.47C43.9017 238.274 43.533 238.176 43.113 238.176C42.6744 238.176 42.2964 238.279 41.979 238.484C41.671 238.689 41.433 238.969 41.265 239.324C41.1064 239.669 41.027 240.066 41.027 240.514C41.027 241.027 41.1204 241.461 41.307 241.816C41.503 242.171 41.7597 242.437 42.077 242.614C42.3944 242.791 42.735 242.88 43.099 242.88ZM47.9399 244V237.056H49.3679L49.4099 238.232C49.6432 237.812 49.9605 237.485 50.3619 237.252C50.7725 237.009 51.2532 236.888 51.8039 236.888V238.442H51.3979C50.7352 238.442 50.2405 238.615 49.9139 238.96C49.5872 239.296 49.4239 239.814 49.4239 240.514V244H47.9399ZM55.538 247.248C54.95 247.248 54.404 247.178 53.9 247.038C53.396 246.898 52.99 246.665 52.682 246.338C52.3834 246.021 52.234 245.596 52.234 245.064C52.234 244.709 52.3134 244.411 52.472 244.168C52.6307 243.925 52.8547 243.725 53.144 243.566C52.9107 243.435 52.7287 243.267 52.598 243.062C52.4674 242.857 52.402 242.619 52.402 242.348C52.402 241.76 52.6727 241.298 53.214 240.962C53.018 240.747 52.864 240.505 52.752 240.234C52.64 239.963 52.584 239.669 52.584 239.352C52.584 238.848 52.7054 238.414 52.948 238.05C53.1907 237.677 53.522 237.392 53.942 237.196C54.362 236.991 54.8427 236.888 55.384 236.888C55.7854 236.888 56.154 236.944 56.49 237.056H58.926V238.218H57.904C57.988 238.395 58.0534 238.577 58.1 238.764C58.156 238.951 58.184 239.147 58.184 239.352C58.184 239.865 58.058 240.309 57.806 240.682C57.5634 241.046 57.232 241.331 56.812 241.536C56.392 241.732 55.916 241.83 55.384 241.83C55.1414 241.83 54.9174 241.807 54.712 241.76C54.5067 241.704 54.3014 241.629 54.096 241.536C53.872 241.648 53.76 241.821 53.76 242.054C53.76 242.493 54.1287 242.712 54.866 242.712H56.084C56.6254 242.712 57.092 242.787 57.484 242.936C57.8854 243.076 58.1934 243.305 58.408 243.622C58.632 243.939 58.744 244.355 58.744 244.868C58.744 245.372 58.5947 245.801 58.296 246.156C58.0067 246.511 57.6194 246.781 57.134 246.968C56.6487 247.155 56.1167 247.248 55.538 247.248ZM55.524 246.058C56.028 246.058 56.4574 245.969 56.812 245.792C57.1667 245.615 57.344 245.344 57.344 244.98C57.344 244.308 56.91 243.972 56.042 243.972H54.936C54.5254 243.972 54.2034 244.056 53.97 244.224C53.7367 244.392 53.62 244.644 53.62 244.98C53.62 245.241 53.7087 245.451 53.886 245.61C54.0634 245.769 54.2967 245.881 54.586 245.946C54.8754 246.021 55.188 246.058 55.524 246.058ZM55.37 240.64C55.79 240.64 56.1307 240.519 56.392 240.276C56.6627 240.033 56.798 239.725 56.798 239.352C56.798 238.988 56.6627 238.685 56.392 238.442C56.1307 238.199 55.79 238.078 55.37 238.078C54.95 238.078 54.6094 238.199 54.348 238.442C54.096 238.685 53.97 238.988 53.97 239.352C53.97 239.725 54.0914 240.033 54.334 240.276C54.586 240.519 54.9314 240.64 55.37 240.64ZM63.0225 244.168C62.3505 244.168 61.7438 244.023 61.2025 243.734C60.6705 243.435 60.2458 243.011 59.9285 242.46C59.6205 241.909 59.4665 241.261 59.4665 240.514C59.4665 239.767 59.6251 239.123 59.9425 238.582C60.2691 238.041 60.7031 237.625 61.2445 237.336C61.7951 237.037 62.4065 236.888 63.0785 236.888C63.7505 236.888 64.3571 237.033 64.8985 237.322C65.4398 237.611 65.8738 238.027 66.2005 238.568C66.5271 239.109 66.6905 239.758 66.6905 240.514C66.6905 241.223 66.5318 241.853 66.2145 242.404C65.9065 242.955 65.4771 243.389 64.9265 243.706C64.3758 244.014 63.7411 244.168 63.0225 244.168ZM63.0365 242.88C63.4471 242.88 63.8111 242.777 64.1285 242.572C64.4551 242.367 64.7118 242.087 64.8985 241.732C65.0851 241.368 65.1785 240.957 65.1785 240.5C65.1785 240.033 65.0851 239.627 64.8985 239.282C64.7211 238.927 64.4738 238.657 64.1565 238.47C63.8391 238.274 63.4705 238.176 63.0505 238.176C62.6118 238.176 62.2338 238.279 61.9165 238.484C61.6085 238.689 61.3705 238.969 61.2025 239.324C61.0438 239.669 60.9645 240.066 60.9645 240.514C60.9645 241.027 61.0578 241.461 61.2445 241.816C61.4405 242.171 61.6971 242.437 62.0145 242.614C62.3318 242.791 62.6725 242.88 63.0365 242.88ZM70.3479 244C69.6572 244 69.1252 243.832 68.7519 243.496C68.3785 243.16 68.1919 242.609 68.1919 241.844V238.302H67.1419V237.056H68.1919V235.376H69.6759V237.056H71.4399V238.302H69.6759V241.844C69.6759 242.199 69.7552 242.437 69.9139 242.558C70.0725 242.679 70.3199 242.74 70.6559 242.74H71.4399V244H70.3479ZM76.0739 247.08V237.056H77.5019L77.5579 238.106C77.8005 237.751 78.1272 237.462 78.5379 237.238C78.9485 237.005 79.4339 236.888 79.9939 236.888C80.6845 236.888 81.2772 237.051 81.7719 237.378C82.2665 237.695 82.6492 238.129 82.9199 238.68C83.1905 239.221 83.3259 239.833 83.3259 240.514C83.3259 241.195 83.1905 241.816 82.9199 242.376C82.6492 242.927 82.2619 243.365 81.7579 243.692C81.2632 244.009 80.6752 244.168 79.9939 244.168C79.4152 244.168 78.9159 244.051 78.4959 243.818C78.0852 243.575 77.7725 243.281 77.5579 242.936V247.08H76.0739ZM79.6859 242.866C80.1152 242.866 80.4885 242.763 80.8059 242.558C81.1232 242.353 81.3705 242.073 81.5479 241.718C81.7252 241.363 81.8139 240.962 81.8139 240.514C81.8139 240.047 81.7205 239.641 81.5339 239.296C81.3565 238.941 81.1092 238.666 80.7919 238.47C80.4745 238.274 80.1059 238.176 79.6859 238.176C79.2752 238.176 78.9112 238.279 78.5939 238.484C78.2765 238.68 78.0245 238.955 77.8379 239.31C77.6605 239.655 77.5719 240.061 77.5719 240.528C77.5719 240.957 77.6605 241.354 77.8379 241.718C78.0152 242.073 78.2625 242.353 78.5799 242.558C78.8972 242.763 79.2659 242.866 79.6859 242.866ZM86.7458 244.168C86.2978 244.168 85.8871 244.089 85.5138 243.93C85.1405 243.762 84.8418 243.519 84.6178 243.202C84.3938 242.885 84.2818 242.502 84.2818 242.054C84.2818 241.522 84.4125 241.097 84.6738 240.78C84.9445 240.453 85.3038 240.215 85.7518 240.066C86.2091 239.907 86.7085 239.828 87.2498 239.828H89.0138C89.0138 239.427 88.9485 239.105 88.8178 238.862C88.6871 238.61 88.5098 238.428 88.2858 238.316C88.0618 238.195 87.8005 238.134 87.5018 238.134C87.1098 238.134 86.7645 238.227 86.4658 238.414C86.1765 238.591 85.9945 238.876 85.9198 239.268H84.4218C84.4685 238.764 84.6365 238.335 84.9258 237.98C85.2245 237.625 85.6025 237.355 86.0598 237.168C86.5171 236.981 87.0025 236.888 87.5158 236.888C88.1878 236.888 88.7431 237.014 89.1818 237.266C89.6298 237.509 89.9611 237.849 90.1758 238.288C90.3998 238.727 90.5118 239.226 90.5118 239.786V241.914C90.5211 242.185 90.5771 242.385 90.6798 242.516C90.7918 242.637 90.9878 242.707 91.2678 242.726V244C90.8945 244 90.5678 243.958 90.2878 243.874C90.0171 243.79 89.7931 243.664 89.6158 243.496C89.4385 243.319 89.2985 243.095 89.1958 242.824C88.9718 243.197 88.6451 243.515 88.2158 243.776C87.7865 244.037 87.2965 244.168 86.7458 244.168ZM87.0958 242.95C87.4785 242.95 87.8145 242.857 88.1038 242.67C88.3931 242.474 88.6171 242.222 88.7758 241.914C88.9345 241.597 89.0138 241.256 89.0138 240.892V240.864H87.3618C87.0911 240.864 86.8345 240.897 86.5918 240.962C86.3585 241.027 86.1671 241.139 86.0178 241.298C85.8778 241.447 85.8078 241.657 85.8078 241.928C85.8078 242.283 85.9338 242.544 86.1858 242.712C86.4378 242.871 86.7411 242.95 87.0958 242.95ZM94.9718 244.168C94.4304 244.168 93.9358 244.075 93.4878 243.888C93.0398 243.692 92.6758 243.417 92.3958 243.062C92.1158 242.707 91.9524 242.292 91.9058 241.816H93.4038C93.4691 242.152 93.6418 242.427 93.9218 242.642C94.2018 242.857 94.5518 242.964 94.9718 242.964C95.3451 242.964 95.6484 242.885 95.8818 242.726C96.1151 242.558 96.2318 242.339 96.2318 242.068C96.2318 241.835 96.1524 241.653 95.9938 241.522C95.8444 241.391 95.6484 241.289 95.4058 241.214C95.1724 241.139 94.9158 241.074 94.6358 241.018C94.2064 240.915 93.8004 240.789 93.4178 240.64C93.0444 240.491 92.7411 240.285 92.5078 240.024C92.2744 239.763 92.1578 239.413 92.1578 238.974C92.1578 238.545 92.2698 238.176 92.4938 237.868C92.7271 237.551 93.0444 237.308 93.4458 237.14C93.8471 236.972 94.2998 236.888 94.8038 236.888C95.5598 236.888 96.1898 237.079 96.6938 237.462C97.1978 237.835 97.4778 238.386 97.5338 239.114H96.1058C96.0684 238.787 95.9284 238.535 95.6858 238.358C95.4524 238.181 95.1491 238.092 94.7758 238.092C94.4304 238.092 94.1504 238.162 93.9358 238.302C93.7211 238.433 93.6138 238.633 93.6138 238.904C93.6138 239.091 93.6884 239.249 93.8378 239.38C93.9871 239.501 94.1784 239.604 94.4118 239.688C94.6544 239.763 94.9064 239.833 95.1678 239.898C95.6438 240.001 96.0684 240.127 96.4418 240.276C96.8151 240.425 97.1138 240.635 97.3378 240.906C97.5618 241.177 97.6784 241.55 97.6878 242.026C97.6878 242.455 97.5664 242.833 97.3238 243.16C97.0904 243.477 96.7684 243.725 96.3578 243.902C95.9564 244.079 95.4944 244.168 94.9718 244.168ZM101.654 244.168C101.113 244.168 100.618 244.075 100.17 243.888C99.722 243.692 99.358 243.417 99.078 243.062C98.798 242.707 98.6347 242.292 98.588 241.816H100.086C100.151 242.152 100.324 242.427 100.604 242.642C100.884 242.857 101.234 242.964 101.654 242.964C102.027 242.964 102.331 242.885 102.564 242.726C102.797 242.558 102.914 242.339 102.914 242.068C102.914 241.835 102.835 241.653 102.676 241.522C102.527 241.391 102.331 241.289 102.088 241.214C101.855 241.139 101.598 241.074 101.318 241.018C100.889 240.915 100.483 240.789 100.1 240.64C99.7267 240.491 99.4234 240.285 99.19 240.024C98.9567 239.763 98.84 239.413 98.84 238.974C98.84 238.545 98.952 238.176 99.176 237.868C99.4094 237.551 99.7267 237.308 100.128 237.14C100.529 236.972 100.982 236.888 101.486 236.888C102.242 236.888 102.872 237.079 103.376 237.462C103.88 237.835 104.16 238.386 104.216 239.114H102.788C102.751 238.787 102.611 238.535 102.368 238.358C102.135 238.181 101.831 238.092 101.458 238.092C101.113 238.092 100.833 238.162 100.618 238.302C100.403 238.433 100.296 238.633 100.296 238.904C100.296 239.091 100.371 239.249 100.52 239.38C100.669 239.501 100.861 239.604 101.094 239.688C101.337 239.763 101.589 239.833 101.85 239.898C102.326 240.001 102.751 240.127 103.124 240.276C103.497 240.425 103.796 240.635 104.02 240.906C104.244 241.177 104.361 241.55 104.37 242.026C104.37 242.455 104.249 242.833 104.006 243.16C103.773 243.477 103.451 243.725 103.04 243.902C102.639 244.079 102.177 244.168 101.654 244.168ZM106.746 244L104.702 237.056H106.186L107.544 242.418L109.028 237.056H110.638L112.122 242.404L113.466 237.056H114.922L112.878 243.986H111.31L109.812 238.708L108.314 244H106.746ZM118.777 244.168C118.105 244.168 117.499 244.023 116.957 243.734C116.425 243.435 116.001 243.011 115.683 242.46C115.375 241.909 115.221 241.261 115.221 240.514C115.221 239.767 115.38 239.123 115.697 238.582C116.024 238.041 116.458 237.625 116.999 237.336C117.55 237.037 118.161 236.888 118.833 236.888C119.505 236.888 120.112 237.033 120.653 237.322C121.195 237.611 121.629 238.027 121.955 238.568C122.282 239.109 122.445 239.758 122.445 240.514C122.445 241.223 122.287 241.853 121.969 242.404C121.661 242.955 121.232 243.389 120.681 243.706C120.131 244.014 119.496 244.168 118.777 244.168ZM118.791 242.88C119.202 242.88 119.566 242.777 119.883 242.572C120.21 242.367 120.467 242.087 120.653 241.732C120.84 241.368 120.933 240.957 120.933 240.5C120.933 240.033 120.84 239.627 120.653 239.282C120.476 238.927 120.229 238.657 119.911 238.47C119.594 238.274 119.225 238.176 118.805 238.176C118.367 238.176 117.989 238.279 117.671 238.484C117.363 238.689 117.125 238.969 116.957 239.324C116.799 239.669 116.719 240.066 116.719 240.514C116.719 241.027 116.813 241.461 116.999 241.816C117.195 242.171 117.452 242.437 117.769 242.614C118.087 242.791 118.427 242.88 118.791 242.88ZM123.632 244V237.056H125.06L125.102 238.232C125.336 237.812 125.653 237.485 126.054 237.252C126.465 237.009 126.946 236.888 127.496 236.888V238.442H127.09C126.428 238.442 125.933 238.615 125.606 238.96C125.28 239.296 125.116 239.814 125.116 240.514V244H123.632ZM131.316 244.168C130.626 244.168 130.028 244.005 129.524 243.678C129.03 243.342 128.647 242.899 128.376 242.348C128.115 241.797 127.984 241.181 127.984 240.5C127.984 239.828 128.115 239.221 128.376 238.68C128.647 238.129 129.03 237.695 129.524 237.378C130.028 237.051 130.626 236.888 131.316 236.888C131.83 236.888 132.296 236.995 132.716 237.21C133.136 237.415 133.477 237.709 133.738 238.092V234.2H135.236V244H133.794L133.738 242.922C133.514 243.286 133.192 243.585 132.772 243.818C132.352 244.051 131.867 244.168 131.316 244.168ZM131.61 242.866C132.049 242.866 132.427 242.763 132.744 242.558C133.062 242.353 133.304 242.073 133.472 241.718C133.64 241.363 133.724 240.967 133.724 240.528C133.724 240.024 133.626 239.599 133.43 239.254C133.244 238.909 132.987 238.643 132.66 238.456C132.343 238.269 131.988 238.176 131.596 238.176C131.195 238.176 130.836 238.274 130.518 238.47C130.201 238.666 129.949 238.937 129.762 239.282C129.585 239.627 129.496 240.038 129.496 240.514C129.496 240.981 129.59 241.391 129.776 241.746C129.963 242.101 130.215 242.376 130.532 242.572C130.85 242.768 131.209 242.866 131.61 242.866ZM137.9 241.102L137.844 238.82H138.39C138.885 238.82 139.342 238.773 139.762 238.68C140.192 238.587 140.532 238.405 140.784 238.134C141.046 237.863 141.176 237.462 141.176 236.93C141.176 236.417 141.018 236.011 140.7 235.712C140.383 235.413 139.968 235.264 139.454 235.264C138.922 235.264 138.502 235.413 138.194 235.712C137.896 236.001 137.746 236.393 137.746 236.888H136.332C136.332 236.328 136.458 235.833 136.71 235.404C136.962 234.975 137.326 234.639 137.802 234.396C138.036 234.265 138.288 234.172 138.558 234.116C138.838 234.06 139.137 234.032 139.454 234.032C140.07 234.032 140.616 234.149 141.092 234.382C141.568 234.606 141.942 234.937 142.212 235.376C142.343 235.591 142.441 235.829 142.506 236.09C142.572 236.342 142.604 236.622 142.604 236.93C142.604 237.602 142.46 238.153 142.17 238.582C141.89 239.002 141.498 239.31 140.994 239.506C140.742 239.609 140.467 239.688 140.168 239.744C139.879 239.791 139.571 239.814 139.244 239.814L139.202 241.102H137.9ZM138.558 244.112C138.278 244.112 138.04 244.019 137.844 243.832C137.658 243.636 137.564 243.403 137.564 243.132C137.564 242.861 137.658 242.633 137.844 242.446C138.04 242.25 138.278 242.152 138.558 242.152C138.838 242.152 139.072 242.25 139.258 242.446C139.445 242.633 139.538 242.861 139.538 243.132C139.538 243.403 139.445 243.636 139.258 243.832C139.072 244.019 138.838 244.112 138.558 244.112Z" fill="#0A7350"/>
<path d="M32 282C32 276.477 36.4772 272 42 272H438C443.523 272 448 276.477 448 282V294C448 299.523 443.523 304 438 304H42C36.4771 304 32 299.523 32 294V282Z" fill="#0A7350"/>
<path d="M223.893 293.168C223.221 293.168 222.61 293.051 222.059 292.818C221.518 292.575 221.089 292.225 220.771 291.768C220.454 291.301 220.291 290.727 220.281 290.046H221.835C221.845 290.606 222.036 291.059 222.409 291.404C222.783 291.74 223.277 291.908 223.893 291.908C224.425 291.908 224.859 291.782 225.195 291.53C225.541 291.269 225.713 290.909 225.713 290.452C225.713 290.172 225.667 289.943 225.573 289.766C225.48 289.579 225.326 289.416 225.111 289.276C224.906 289.136 224.631 289.005 224.285 288.884C223.94 288.753 223.515 288.604 223.011 288.436C222.451 288.24 221.989 288.021 221.625 287.778C221.271 287.526 221.005 287.237 220.827 286.91C220.65 286.574 220.561 286.196 220.561 285.776C220.561 285.179 220.701 284.679 220.981 284.278C221.271 283.867 221.658 283.559 222.143 283.354C222.629 283.139 223.165 283.032 223.753 283.032C224.351 283.032 224.887 283.139 225.363 283.354C225.849 283.559 226.236 283.872 226.525 284.292C226.824 284.703 226.978 285.207 226.987 285.804H225.405C225.405 285.375 225.247 285.015 224.929 284.726C224.621 284.437 224.211 284.292 223.697 284.292C223.259 284.283 222.885 284.395 222.577 284.628C222.269 284.861 222.115 285.202 222.115 285.65C222.115 285.967 222.204 286.224 222.381 286.42C222.559 286.616 222.825 286.789 223.179 286.938C223.534 287.087 223.977 287.255 224.509 287.442C224.855 287.554 225.191 287.685 225.517 287.834C225.853 287.983 226.152 288.17 226.413 288.394C226.675 288.609 226.88 288.875 227.029 289.192C227.188 289.509 227.267 289.897 227.267 290.354C227.267 290.951 227.113 291.46 226.805 291.88C226.507 292.291 226.101 292.608 225.587 292.832C225.083 293.056 224.519 293.168 223.893 293.168ZM229.367 284.838C229.097 284.838 228.863 284.745 228.667 284.558C228.481 284.362 228.387 284.124 228.387 283.844C228.387 283.573 228.481 283.345 228.667 283.158C228.863 282.971 229.097 282.878 229.367 282.878C229.647 282.878 229.881 282.971 230.067 283.158C230.263 283.345 230.361 283.573 230.361 283.844C230.361 284.124 230.263 284.362 230.067 284.558C229.881 284.745 229.647 284.838 229.367 284.838ZM228.625 293V286.056H230.109V293H228.625ZM234.526 296.248C233.938 296.248 233.392 296.178 232.888 296.038C232.384 295.898 231.978 295.665 231.67 295.338C231.371 295.021 231.222 294.596 231.222 294.064C231.222 293.709 231.301 293.411 231.46 293.168C231.618 292.925 231.842 292.725 232.132 292.566C231.898 292.435 231.716 292.267 231.586 292.062C231.455 291.857 231.39 291.619 231.39 291.348C231.39 290.76 231.66 290.298 232.202 289.962C232.006 289.747 231.852 289.505 231.74 289.234C231.628 288.963 231.572 288.669 231.572 288.352C231.572 287.848 231.693 287.414 231.936 287.05C232.178 286.677 232.51 286.392 232.93 286.196C233.35 285.991 233.83 285.888 234.372 285.888C234.773 285.888 235.142 285.944 235.478 286.056H237.914V287.218H236.892C236.976 287.395 237.041 287.577 237.088 287.764C237.144 287.951 237.172 288.147 237.172 288.352C237.172 288.865 237.046 289.309 236.794 289.682C236.551 290.046 236.22 290.331 235.8 290.536C235.38 290.732 234.904 290.83 234.372 290.83C234.129 290.83 233.905 290.807 233.7 290.76C233.494 290.704 233.289 290.629 233.084 290.536C232.86 290.648 232.748 290.821 232.748 291.054C232.748 291.493 233.116 291.712 233.854 291.712H235.072C235.613 291.712 236.08 291.787 236.472 291.936C236.873 292.076 237.181 292.305 237.396 292.622C237.62 292.939 237.732 293.355 237.732 293.868C237.732 294.372 237.582 294.801 237.284 295.156C236.994 295.511 236.607 295.781 236.122 295.968C235.636 296.155 235.104 296.248 234.526 296.248ZM234.512 295.058C235.016 295.058 235.445 294.969 235.8 294.792C236.154 294.615 236.332 294.344 236.332 293.98C236.332 293.308 235.898 292.972 235.03 292.972H233.924C233.513 292.972 233.191 293.056 232.958 293.224C232.724 293.392 232.608 293.644 232.608 293.98C232.608 294.241 232.696 294.451 232.874 294.61C233.051 294.769 233.284 294.881 233.574 294.946C233.863 295.021 234.176 295.058 234.512 295.058ZM234.358 289.64C234.778 289.64 235.118 289.519 235.38 289.276C235.65 289.033 235.786 288.725 235.786 288.352C235.786 287.988 235.65 287.685 235.38 287.442C235.118 287.199 234.778 287.078 234.358 287.078C233.938 287.078 233.597 287.199 233.336 287.442C233.084 287.685 232.958 287.988 232.958 288.352C232.958 288.725 233.079 289.033 233.322 289.276C233.574 289.519 233.919 289.64 234.358 289.64ZM238.87 293V286.056H240.298L240.326 287.078C240.56 286.695 240.882 286.401 241.292 286.196C241.712 285.991 242.156 285.888 242.622 285.888C243.434 285.888 244.092 286.145 244.596 286.658C245.1 287.162 245.352 287.918 245.352 288.926V293H243.868V289.108C243.868 288.483 243.728 288.002 243.448 287.666C243.168 287.321 242.748 287.148 242.188 287.148C241.638 287.148 241.194 287.339 240.858 287.722C240.522 288.095 240.354 288.613 240.354 289.276V293H238.87ZM250.86 284.838C250.589 284.838 250.356 284.745 250.16 284.558C249.973 284.362 249.88 284.124 249.88 283.844C249.88 283.573 249.973 283.345 250.16 283.158C250.356 282.971 250.589 282.878 250.86 282.878C251.14 282.878 251.373 282.971 251.56 283.158C251.756 283.345 251.854 283.573 251.854 283.844C251.854 284.124 251.756 284.362 251.56 284.558C251.373 284.745 251.14 284.838 250.86 284.838ZM250.118 293V286.056H251.602V293H250.118ZM253.148 293V286.056H254.576L254.604 287.078C254.837 286.695 255.159 286.401 255.57 286.196C255.99 285.991 256.433 285.888 256.9 285.888C257.712 285.888 258.37 286.145 258.874 286.658C259.378 287.162 259.63 287.918 259.63 288.926V293H258.146V289.108C258.146 288.483 258.006 288.002 257.726 287.666C257.446 287.321 257.026 287.148 256.466 287.148C255.915 287.148 255.472 287.339 255.136 287.722C254.8 288.095 254.632 288.613 254.632 289.276V293H253.148Z" fill="white"/>
<mask id="path-17-outside-3_15560_42173" maskUnits="userSpaceOnUse" x="8" y="328" width="464" height="67" fill="black">
<rect fill="white" x="8" y="328" width="464" height="67"/>
<path d="M8 328H472V394H8V328Z"/>
</mask>
<path d="M472 394V393H8V394V395H472V394Z" fill="#EBEBEB" mask="url(#path-17-outside-3_15560_42173)"/>
<path d="M141.536 366V356.2H142.712L147.934 364.054V356.2H149.11V366H147.934L142.712 358.146V366H141.536ZM154.1 366.168C153.456 366.168 152.873 366.019 152.35 365.72C151.837 365.421 151.431 365.001 151.132 364.46C150.834 363.909 150.684 363.265 150.684 362.528C150.684 361.8 150.824 361.165 151.104 360.624C151.394 360.073 151.795 359.649 152.308 359.35C152.831 359.042 153.438 358.888 154.128 358.888C154.782 358.888 155.351 359.033 155.836 359.322C156.322 359.611 156.7 360.003 156.97 360.498C157.25 360.983 157.39 361.529 157.39 362.136C157.39 362.267 157.39 362.369 157.39 362.444C157.39 362.519 157.386 362.635 157.376 362.794H151.846C151.874 363.251 151.982 363.662 152.168 364.026C152.364 364.381 152.626 364.661 152.952 364.866C153.288 365.071 153.671 365.174 154.1 365.174C154.586 365.174 154.992 365.062 155.318 364.838C155.645 364.614 155.883 364.311 156.032 363.928H157.194C157.073 364.357 156.872 364.74 156.592 365.076C156.312 365.412 155.962 365.678 155.542 365.874C155.132 366.07 154.651 366.168 154.1 366.168ZM151.86 361.884H156.228C156.2 361.259 155.986 360.769 155.584 360.414C155.183 360.059 154.688 359.882 154.1 359.882C153.54 359.882 153.041 360.055 152.602 360.4C152.173 360.736 151.926 361.231 151.86 361.884ZM159.936 366L157.906 359.056H159.082L160.552 364.502L162.176 359.056H163.506L165.144 364.502L166.6 359.056H167.79L165.76 366H164.556L162.848 360.274L161.14 366H159.936ZM175.259 366C174.625 366 174.125 365.846 173.761 365.538C173.397 365.23 173.215 364.675 173.215 363.872V360.05H172.011V359.056H173.215V357.39H174.391V359.056H176.337V360.05H174.391V363.872C174.391 364.311 174.48 364.609 174.657 364.768C174.835 364.917 175.147 364.992 175.595 364.992H176.337V366H175.259ZM180.804 366.168C180.169 366.168 179.586 366.028 179.054 365.748C178.522 365.459 178.097 365.043 177.78 364.502C177.463 363.951 177.304 363.289 177.304 362.514C177.304 361.777 177.458 361.137 177.766 360.596C178.083 360.055 178.508 359.635 179.04 359.336C179.581 359.037 180.188 358.888 180.86 358.888C181.504 358.888 182.092 359.028 182.624 359.308C183.165 359.588 183.599 359.999 183.926 360.54C184.253 361.081 184.416 361.739 184.416 362.514C184.416 363.223 184.262 363.853 183.954 364.404C183.646 364.955 183.217 365.389 182.666 365.706C182.125 366.014 181.504 366.168 180.804 366.168ZM180.804 365.146C181.261 365.146 181.672 365.039 182.036 364.824C182.4 364.6 182.689 364.292 182.904 363.9C183.119 363.508 183.226 363.046 183.226 362.514C183.226 362.01 183.133 361.562 182.946 361.17C182.759 360.778 182.489 360.47 182.134 360.246C181.779 360.022 181.35 359.91 180.846 359.91C180.333 359.91 179.899 360.027 179.544 360.26C179.199 360.493 178.937 360.806 178.76 361.198C178.583 361.59 178.494 362.029 178.494 362.514C178.494 363.13 178.606 363.634 178.83 364.026C179.054 364.409 179.343 364.693 179.698 364.88C180.053 365.057 180.421 365.146 180.804 365.146ZM193.84 366.168C192.851 366.168 192.006 365.949 191.306 365.51C190.606 365.062 190.074 364.455 189.71 363.69C189.346 362.925 189.164 362.061 189.164 361.1C189.164 360.148 189.342 359.289 189.696 358.524C190.06 357.759 190.592 357.152 191.292 356.704C191.992 356.256 192.842 356.032 193.84 356.032C194.96 356.032 195.87 356.303 196.57 356.844C197.28 357.376 197.732 358.123 197.928 359.084H196.626C196.477 358.477 196.169 357.992 195.702 357.628C195.245 357.255 194.624 357.068 193.84 357.068C193.066 357.068 192.422 357.25 191.908 357.614C191.395 357.969 191.008 358.449 190.746 359.056C190.494 359.663 190.368 360.344 190.368 361.1C190.368 361.875 190.499 362.565 190.76 363.172C191.031 363.779 191.423 364.259 191.936 364.614C192.45 364.959 193.084 365.132 193.84 365.132C194.624 365.132 195.245 364.955 195.702 364.6C196.169 364.236 196.477 363.755 196.626 363.158H197.928C197.732 364.101 197.28 364.838 196.57 365.37C195.87 365.902 194.96 366.168 193.84 366.168ZM199.409 366V356.2H200.585V360.246C200.818 359.817 201.149 359.485 201.579 359.252C202.008 359.009 202.475 358.888 202.979 358.888C203.781 358.888 204.425 359.14 204.911 359.644C205.396 360.139 205.639 360.904 205.639 361.94V366H204.477V362.066C204.477 361.347 204.327 360.806 204.029 360.442C203.739 360.078 203.305 359.896 202.727 359.896C202.12 359.896 201.611 360.115 201.201 360.554C200.79 360.983 200.585 361.599 200.585 362.402V366H199.409ZM209.59 366.168C209.114 366.168 208.68 366.089 208.288 365.93C207.896 365.771 207.584 365.533 207.35 365.216C207.126 364.889 207.014 364.493 207.014 364.026C207.014 363.485 207.154 363.055 207.434 362.738C207.714 362.411 208.083 362.178 208.54 362.038C209.007 361.889 209.506 361.814 210.038 361.814H211.914C211.914 361.329 211.83 360.946 211.662 360.666C211.504 360.386 211.294 360.185 211.032 360.064C210.771 359.943 210.482 359.882 210.164 359.882C209.707 359.882 209.31 359.994 208.974 360.218C208.648 360.433 208.442 360.769 208.358 361.226H207.154C207.201 360.722 207.369 360.297 207.658 359.952C207.948 359.607 208.312 359.345 208.75 359.168C209.198 358.981 209.67 358.888 210.164 358.888C210.864 358.888 211.429 359.019 211.858 359.28C212.288 359.532 212.6 359.873 212.796 360.302C212.992 360.731 213.09 361.207 213.09 361.73V363.858C213.09 364.203 213.132 364.465 213.216 364.642C213.3 364.819 213.515 364.927 213.86 364.964V366C213.552 366 213.272 365.963 213.02 365.888C212.768 365.804 212.554 365.673 212.376 365.496C212.208 365.309 212.087 365.067 212.012 364.768C211.779 365.16 211.457 365.491 211.046 365.762C210.645 366.033 210.16 366.168 209.59 366.168ZM209.772 365.174C210.239 365.174 210.631 365.057 210.948 364.824C211.266 364.581 211.504 364.273 211.662 363.9C211.83 363.527 211.914 363.139 211.914 362.738V362.724H210.136C209.81 362.724 209.502 362.761 209.212 362.836C208.923 362.901 208.69 363.027 208.512 363.214C208.335 363.391 208.246 363.643 208.246 363.97C208.246 364.39 208.396 364.698 208.694 364.894C208.993 365.081 209.352 365.174 209.772 365.174ZM218.166 366.168C217.513 366.168 216.92 366.019 216.388 365.72C215.866 365.421 215.45 365.001 215.142 364.46C214.834 363.909 214.68 363.265 214.68 362.528C214.68 361.809 214.83 361.179 215.128 360.638C215.427 360.087 215.838 359.658 216.36 359.35C216.883 359.042 217.485 358.888 218.166 358.888C218.988 358.888 219.678 359.103 220.238 359.532C220.808 359.961 221.167 360.535 221.316 361.254H220.112C220.019 360.825 219.79 360.493 219.426 360.26C219.062 360.017 218.638 359.896 218.152 359.896C217.658 359.896 217.242 360.017 216.906 360.26C216.57 360.503 216.314 360.825 216.136 361.226C215.968 361.627 215.884 362.061 215.884 362.528C215.884 363.041 215.982 363.499 216.178 363.9C216.374 364.301 216.64 364.614 216.976 364.838C217.322 365.062 217.714 365.174 218.152 365.174C218.638 365.174 219.062 365.057 219.426 364.824C219.79 364.581 220.019 364.241 220.112 363.802H221.316C221.223 364.269 221.032 364.679 220.742 365.034C220.453 365.389 220.089 365.669 219.65 365.874C219.212 366.07 218.717 366.168 218.166 366.168ZM222.819 366V356.2H223.995V360.246C224.228 359.817 224.559 359.485 224.989 359.252C225.418 359.009 225.885 358.888 226.389 358.888C227.191 358.888 227.835 359.14 228.321 359.644C228.806 360.139 229.049 360.904 229.049 361.94V366H227.887V362.066C227.887 361.347 227.737 360.806 227.439 360.442C227.149 360.078 226.715 359.896 226.137 359.896C225.53 359.896 225.021 360.115 224.611 360.554C224.2 360.983 223.995 361.599 223.995 362.402V366H222.819ZM231.404 357.516C231.171 357.516 230.975 357.441 230.816 357.292C230.667 357.133 230.592 356.937 230.592 356.704C230.592 356.48 230.667 356.293 230.816 356.144C230.975 355.995 231.171 355.92 231.404 355.92C231.628 355.92 231.82 355.995 231.978 356.144C232.137 356.293 232.216 356.48 232.216 356.704C232.216 356.937 232.137 357.133 231.978 357.292C231.82 357.441 231.628 357.516 231.404 357.516ZM230.816 366V359.056H231.992V366H230.816ZM233.9 366V359.056H234.964L235.034 360.302C235.258 359.863 235.58 359.518 236 359.266C236.42 359.014 236.896 358.888 237.428 358.888C238.249 358.888 238.903 359.14 239.388 359.644C239.883 360.139 240.13 360.904 240.13 361.94V366H238.954V362.066C238.954 361.347 238.805 360.806 238.506 360.442C238.207 360.078 237.759 359.896 237.162 359.896C236.565 359.896 236.065 360.115 235.664 360.554C235.272 360.983 235.076 361.599 235.076 362.402V366H233.9ZM244.543 369.248C243.993 369.248 243.465 369.178 242.961 369.038C242.457 368.898 242.047 368.66 241.729 368.324C241.421 367.997 241.267 367.559 241.267 367.008C241.267 366.625 241.356 366.308 241.533 366.056C241.711 365.804 241.944 365.613 242.233 365.482C242.009 365.351 241.827 365.188 241.687 364.992C241.547 364.796 241.477 364.572 241.477 364.32C241.477 363.76 241.729 363.307 242.233 362.962C242.047 362.747 241.897 362.509 241.785 362.248C241.683 361.977 241.631 361.679 241.631 361.352C241.631 360.839 241.748 360.4 241.981 360.036C242.224 359.663 242.551 359.378 242.961 359.182C243.381 358.986 243.857 358.888 244.389 358.888C244.781 358.888 245.15 358.944 245.495 359.056H247.861V360.05H246.783C246.905 360.237 246.993 360.442 247.049 360.666C247.115 360.881 247.147 361.109 247.147 361.352C247.147 361.884 247.021 362.332 246.769 362.696C246.527 363.06 246.195 363.34 245.775 363.536C245.365 363.723 244.903 363.816 244.389 363.816C244.128 363.816 243.89 363.788 243.675 363.732C243.461 363.676 243.246 363.597 243.031 363.494C242.789 363.615 242.667 363.802 242.667 364.054C242.667 364.521 243.059 364.754 243.843 364.754H245.005C245.528 364.754 245.99 364.824 246.391 364.964C246.793 365.095 247.105 365.314 247.329 365.622C247.563 365.921 247.679 366.331 247.679 366.854C247.679 367.386 247.53 367.829 247.231 368.184C246.933 368.539 246.545 368.805 246.069 368.982C245.593 369.159 245.085 369.248 244.543 369.248ZM244.515 368.268C245.075 368.268 245.551 368.161 245.943 367.946C246.335 367.741 246.531 367.423 246.531 366.994C246.531 366.191 246.046 365.79 245.075 365.79H243.885C243.428 365.79 243.069 365.888 242.807 366.084C242.546 366.289 242.415 366.593 242.415 366.994C242.415 367.302 242.513 367.549 242.709 367.736C242.905 367.923 243.162 368.058 243.479 368.142C243.797 368.226 244.142 368.268 244.515 368.268ZM244.361 362.836C244.847 362.836 245.243 362.696 245.551 362.416C245.859 362.136 246.013 361.781 246.013 361.352C246.013 360.923 245.859 360.568 245.551 360.288C245.243 360.008 244.847 359.868 244.361 359.868C243.876 359.868 243.484 360.008 243.185 360.288C242.896 360.568 242.751 360.923 242.751 361.352C242.751 361.781 242.891 362.136 243.171 362.416C243.461 362.696 243.857 362.836 244.361 362.836ZM250.203 363.256L250.147 361.002H250.581C251.104 361.002 251.589 360.951 252.037 360.848C252.495 360.745 252.863 360.545 253.143 360.246C253.423 359.947 253.563 359.499 253.563 358.902C253.563 358.323 253.381 357.866 253.017 357.53C252.663 357.194 252.191 357.026 251.603 357.026C251.006 357.026 250.535 357.189 250.189 357.516C249.844 357.843 249.671 358.281 249.671 358.832H248.551C248.551 358.272 248.677 357.782 248.929 357.362C249.191 356.942 249.55 356.615 250.007 356.382C250.241 356.261 250.488 356.172 250.749 356.116C251.02 356.06 251.305 356.032 251.603 356.032C252.21 356.032 252.747 356.149 253.213 356.382C253.68 356.615 254.044 356.947 254.305 357.376C254.436 357.591 254.534 357.824 254.599 358.076C254.665 358.328 254.697 358.603 254.697 358.902C254.697 359.593 254.553 360.153 254.263 360.582C253.974 361.011 253.568 361.324 253.045 361.52C252.784 361.613 252.504 361.688 252.205 361.744C251.907 361.791 251.594 361.814 251.267 361.814L251.225 363.256H250.203ZM250.707 366.07C250.474 366.07 250.278 365.995 250.119 365.846C249.97 365.687 249.895 365.496 249.895 365.272C249.895 365.048 249.97 364.861 250.119 364.712C250.278 364.553 250.474 364.474 250.707 364.474C250.941 364.474 251.132 364.553 251.281 364.712C251.431 364.861 251.505 365.048 251.505 365.272C251.505 365.496 251.431 365.687 251.281 365.846C251.132 365.995 250.941 366.07 250.707 366.07Z" fill="#141414"/>
<path d="M272.708 366.168C271.775 366.168 270.963 365.958 270.272 365.538C269.591 365.109 269.059 364.516 268.676 363.76C268.293 363.004 268.102 362.131 268.102 361.142C268.102 360.181 268.289 359.313 268.662 358.538C269.035 357.763 269.581 357.152 270.3 356.704C271.028 356.256 271.915 356.032 272.96 356.032C274.089 356.032 275.027 356.307 275.774 356.858C276.521 357.399 277.006 358.146 277.23 359.098H275.438C275.298 358.603 275.013 358.211 274.584 357.922C274.164 357.633 273.623 357.488 272.96 357.488C272.26 357.488 271.667 357.642 271.182 357.95C270.706 358.258 270.342 358.687 270.09 359.238C269.847 359.779 269.726 360.419 269.726 361.156C269.726 361.884 269.847 362.519 270.09 363.06C270.342 363.601 270.701 364.021 271.168 364.32C271.635 364.609 272.19 364.754 272.834 364.754C273.739 364.754 274.43 364.511 274.906 364.026C275.382 363.531 275.671 362.869 275.774 362.038H272.526V360.722H277.412V366H275.956L275.83 364.6C275.494 365.104 275.083 365.491 274.598 365.762C274.113 366.033 273.483 366.168 272.708 366.168ZM282.014 366.168C281.314 366.168 280.703 366.014 280.18 365.706C279.657 365.389 279.247 364.959 278.948 364.418C278.659 363.867 278.514 363.237 278.514 362.528C278.514 361.791 278.659 361.151 278.948 360.61C279.247 360.069 279.657 359.649 280.18 359.35C280.712 359.042 281.328 358.888 282.028 358.888C282.709 358.888 283.302 359.037 283.806 359.336C284.31 359.625 284.707 360.027 284.996 360.54C285.285 361.053 285.43 361.637 285.43 362.29C285.43 362.421 285.425 362.537 285.416 362.64C285.416 362.743 285.407 362.855 285.388 362.976H280.11C280.138 363.34 280.231 363.667 280.39 363.956C280.549 364.236 280.763 364.455 281.034 364.614C281.314 364.773 281.631 364.852 281.986 364.852C282.369 364.852 282.691 364.768 282.952 364.6C283.223 364.432 283.433 364.189 283.582 363.872H285.248C285.117 364.292 284.907 364.675 284.618 365.02C284.338 365.365 283.979 365.645 283.54 365.86C283.111 366.065 282.602 366.168 282.014 366.168ZM280.124 361.87H283.806C283.797 361.357 283.615 360.951 283.26 360.652C282.905 360.353 282.481 360.204 281.986 360.204C281.538 360.204 281.132 360.339 280.768 360.61C280.413 360.881 280.199 361.301 280.124 361.87ZM288.999 366C288.289 366 287.748 365.827 287.375 365.482C287.001 365.137 286.815 364.586 286.815 363.83V360.386H285.821V359.056H286.815V357.376H288.411V359.056H290.105V360.386H288.411V363.844C288.411 364.161 288.485 364.381 288.635 364.502C288.784 364.614 289.008 364.67 289.307 364.67H290.105V366H288.999ZM297.388 366.168C296.856 366.168 296.361 366.075 295.904 365.888C295.456 365.692 295.087 365.417 294.798 365.062C294.518 364.707 294.359 364.292 294.322 363.816H295.918C295.974 364.143 296.133 364.409 296.394 364.614C296.665 364.81 296.991 364.908 297.374 364.908C297.719 364.908 298.004 364.833 298.228 364.684C298.461 364.535 298.578 364.329 298.578 364.068C298.578 363.844 298.499 363.671 298.34 363.55C298.181 363.419 297.985 363.321 297.752 363.256C297.519 363.181 297.276 363.116 297.024 363.06C296.585 362.957 296.175 362.831 295.792 362.682C295.419 362.533 295.115 362.323 294.882 362.052C294.649 361.781 294.532 361.427 294.532 360.988C294.532 360.549 294.653 360.176 294.896 359.868C295.139 359.551 295.461 359.308 295.862 359.14C296.273 358.972 296.73 358.888 297.234 358.888C297.999 358.888 298.634 359.079 299.138 359.462C299.651 359.845 299.936 360.405 299.992 361.142H298.48C298.443 360.825 298.307 360.582 298.074 360.414C297.85 360.246 297.556 360.162 297.192 360.162C296.875 360.162 296.609 360.223 296.394 360.344C296.189 360.465 296.086 360.661 296.086 360.932C296.086 361.119 296.161 361.273 296.31 361.394C296.469 361.515 296.665 361.618 296.898 361.702C297.141 361.777 297.379 361.842 297.612 361.898C298.088 362.01 298.513 362.141 298.886 362.29C299.259 362.439 299.553 362.649 299.768 362.92C299.992 363.191 300.109 363.559 300.118 364.026C300.118 364.474 299.997 364.857 299.754 365.174C299.511 365.491 299.185 365.739 298.774 365.916C298.363 366.084 297.901 366.168 297.388 366.168ZM303.809 366C303.1 366 302.558 365.827 302.185 365.482C301.812 365.137 301.625 364.586 301.625 363.83V360.386H300.631V359.056H301.625V357.376H303.221V359.056H304.915V360.386H303.221V363.844C303.221 364.161 303.296 364.381 303.445 364.502C303.594 364.614 303.818 364.67 304.117 364.67H304.915V366H303.809ZM308.209 366.168C307.78 366.168 307.378 366.089 307.005 365.93C306.641 365.762 306.347 365.519 306.123 365.202C305.908 364.885 305.801 364.507 305.801 364.068C305.801 363.545 305.932 363.121 306.193 362.794C306.454 362.467 306.809 362.229 307.257 362.08C307.705 361.921 308.2 361.842 308.741 361.842H310.477C310.477 361.469 310.416 361.165 310.295 360.932C310.174 360.689 310.006 360.512 309.791 360.4C309.576 360.279 309.324 360.218 309.035 360.218C308.662 360.218 308.335 360.302 308.055 360.47C307.775 360.638 307.602 360.913 307.537 361.296H305.941C305.988 360.792 306.156 360.363 306.445 360.008C306.744 359.644 307.122 359.369 307.579 359.182C308.036 358.986 308.526 358.888 309.049 358.888C309.721 358.888 310.276 359.014 310.715 359.266C311.163 359.509 311.499 359.849 311.723 360.288C311.956 360.727 312.073 361.235 312.073 361.814V363.928C312.082 364.18 312.143 364.362 312.255 364.474C312.376 364.586 312.563 364.647 312.815 364.656V366C312.423 366 312.087 365.958 311.807 365.874C311.527 365.79 311.294 365.664 311.107 365.496C310.93 365.328 310.785 365.109 310.673 364.838C310.449 365.211 310.118 365.529 309.679 365.79C309.25 366.042 308.76 366.168 308.209 366.168ZM308.615 364.88C308.979 364.88 309.296 364.796 309.567 364.628C309.847 364.451 310.066 364.217 310.225 363.928C310.393 363.629 310.477 363.303 310.477 362.948V362.906H308.853C308.61 362.906 308.377 362.939 308.153 363.004C307.929 363.069 307.752 363.177 307.621 363.326C307.49 363.466 307.425 363.662 307.425 363.914C307.425 364.25 307.542 364.497 307.775 364.656C308.008 364.805 308.288 364.88 308.615 364.88ZM313.719 366V359.056H315.259L315.287 360.19C315.52 359.779 315.833 359.462 316.225 359.238C316.626 359.005 317.088 358.888 317.611 358.888V360.554H317.177C316.542 360.554 316.071 360.713 315.763 361.03C315.455 361.347 315.301 361.842 315.301 362.514V366H313.719ZM321.286 366C320.576 366 320.035 365.827 319.662 365.482C319.288 365.137 319.102 364.586 319.102 363.83V360.386H318.108V359.056H319.102V357.376H320.698V359.056H322.392V360.386H320.698V363.844C320.698 364.161 320.772 364.381 320.922 364.502C321.071 364.614 321.295 364.67 321.594 364.67H322.392V366H321.286ZM326.572 366.168C325.872 366.168 325.26 366.014 324.738 365.706C324.215 365.389 323.804 364.959 323.506 364.418C323.216 363.867 323.072 363.237 323.072 362.528C323.072 361.791 323.216 361.151 323.506 360.61C323.804 360.069 324.215 359.649 324.738 359.35C325.27 359.042 325.886 358.888 326.586 358.888C327.267 358.888 327.86 359.037 328.364 359.336C328.868 359.625 329.264 360.027 329.554 360.54C329.843 361.053 329.988 361.637 329.988 362.29C329.988 362.421 329.983 362.537 329.974 362.64C329.974 362.743 329.964 362.855 329.946 362.976H324.668C324.696 363.34 324.789 363.667 324.948 363.956C325.106 364.236 325.321 364.455 325.592 364.614C325.872 364.773 326.189 364.852 326.544 364.852C326.926 364.852 327.248 364.768 327.51 364.6C327.78 364.432 327.99 364.189 328.14 363.872H329.806C329.675 364.292 329.465 364.675 329.176 365.02C328.896 365.365 328.536 365.645 328.098 365.86C327.668 366.065 327.16 366.168 326.572 366.168ZM324.682 361.87H328.364C328.354 361.357 328.172 360.951 327.818 360.652C327.463 360.353 327.038 360.204 326.544 360.204C326.096 360.204 325.69 360.339 325.326 360.61C324.971 360.881 324.756 361.301 324.682 361.87ZM334.042 366.168C333.352 366.168 332.759 366.005 332.264 365.678C331.779 365.342 331.401 364.899 331.13 364.348C330.869 363.797 330.738 363.181 330.738 362.5C330.738 361.828 330.869 361.221 331.13 360.68C331.401 360.129 331.784 359.695 332.278 359.378C332.773 359.051 333.361 358.888 334.042 358.888C334.528 358.888 334.98 358.991 335.4 359.196C335.82 359.392 336.161 359.681 336.422 360.064V356.2H338.018V366H336.464L336.422 364.95C336.198 365.323 335.876 365.622 335.456 365.846C335.036 366.061 334.565 366.168 334.042 366.168ZM334.392 364.782C334.812 364.782 335.172 364.684 335.47 364.488C335.769 364.292 336.002 364.026 336.17 363.69C336.338 363.345 336.422 362.957 336.422 362.528C336.422 362.033 336.324 361.618 336.128 361.282C335.942 360.946 335.69 360.694 335.372 360.526C335.064 360.358 334.733 360.274 334.378 360.274C333.986 360.274 333.636 360.372 333.328 360.568C333.03 360.755 332.792 361.016 332.614 361.352C332.446 361.679 332.362 362.066 332.362 362.514C332.362 362.953 332.451 363.345 332.628 363.69C332.806 364.026 333.044 364.292 333.342 364.488C333.65 364.684 334 364.782 334.392 364.782Z" fill="#0A7350"/>
<rect x="261" y="348" width="86" height="26" rx="4" stroke="#A070FF" stroke-width="3"/>
</g>
<path d="M8 8H472H8ZM472 394H8H472ZM8 394V8V394ZM456 8C465.389 8 473 15.6112 473 25V377C473 386.389 465.389 394 456 394C464.284 394 471 386.837 471 378V24C471 15.1634 464.284 8 456 8Z" fill="#EBEBEB" mask="url(#path-1-inside-1_15560_42173)"/>
<defs>
<clipPath id="clip0_15560_42173">
<path d="M8 24C8 15.1635 15.1634 8 24 8H456C464.837 8 472 15.1634 472 24V378C472 386.837 464.837 394 456 394H24C15.1635 394 8 386.837 8 378V24Z" fill="white"/>
</clipPath>
</defs>
</svg>
