<?xml version="1.0" encoding="UTF-8" standalone="no"?><!DOCTYPE svg PUBLIC "-//W3C//DTD SVG 1.1//EN" "http://www.w3.org/Graphics/SVG/1.1/DTD/svg11.dtd"><svg xmlns="http://www.w3.org/2000/svg" xmlns:xlink="http://www.w3.org/1999/xlink" version="1.1" width="132" height="39" viewBox="0 0 132 39">
<desc>Created with SVGMaker Editor 2.2.1</desc>
<defs>
</defs>
<path transform="translate(0,0)" style="fill: rgb(250,250,250)" stroke-linecap="round" d="M 102.656 16.5249 C 102.128 15.9275 101.383 15.6273 100.424 15.6273 C 99.1357 15.6273 97.9865 16.3429 97.1617 17.7468 L 98.4444 11.7673 L 95.5062 11.7673 L 92.377 26.3643 L 95.3151 26.3643 L 96.3825 21.3946 C 96.616 20.4243 96.9131 19.6389 97.277 19.0446 C 97.6802 18.3897 98.2564 18.0652 99.0083 18.0652 C 99.9544 18.0652 100.427 18.5443 100.427 19.5025 C 100.427 19.7541 100.4 19.9967 100.346 20.2302 L 99.0326 26.3613 L 101.971 26.3613 L 103.326 20.0634 C 103.408 19.6723 103.454 19.2781 103.454 18.8748 C 103.454 17.9015 103.19 17.1161 102.662 16.5188 L 102.656 16.5249 Z"/>
<path transform="translate(0,0)" style="fill: rgb(251,247,247)" stroke-linecap="round" d="M 41.8648 20.2361 C 41.8375 18.7079 42.1771 17.2676 42.8867 15.9183 C 43.5962 14.572 44.615 13.4804 45.9431 12.6435 C 47.2712 11.8097 48.7539 11.4064 50.3974 11.4337 C 52.1197 11.4337 53.56 11.8764 54.7152 12.7587 C 55.8705 13.6411 56.6134 14.7509 56.9469 16.0851 L 53.9511 16.6218 C 53.3689 14.7448 51.8377 14.0626 50.1912 14.0626 C 48.7175 14.0626 47.5016 14.6387 46.5526 15.9183 C 45.6005 17.1979 45.1669 18.6351 45.1669 20.2361 C 45.1669 22.3011 46.9225 23.8111 48.7752 23.8111 C 50.6278 23.8111 51.9195 23.1228 53.0414 21.4096 L 55.7583 22.6104 C 54.1876 25.3363 51.8316 26.6978 48.6903 26.6978 C 46.592 26.6978 44.9273 26.1277 43.7053 24.9876 C 42.4803 23.8475 41.8709 22.2617 41.8709 20.2331 L 41.8648 20.2361 Z"/>
<path transform="translate(0,0)" style="fill: rgb(250,250,250)" stroke-linecap="round" d="M 78.3726 20.2361 C 78.3453 18.7079 78.6849 17.2676 79.3945 15.9183 C 80.104 14.572 81.1228 13.4804 82.4509 12.6435 C 83.779 11.8097 85.2617 11.4064 86.9052 11.4337 C 88.6275 11.4337 90.0678 11.8764 91.223 12.7587 C 92.3783 13.6411 93.1212 14.7509 93.4547 16.0851 L 90.4589 16.6218 C 89.8767 14.7448 88.3455 14.0626 86.699 14.0626 C 85.2254 14.0626 84.0125 14.6387 83.0604 15.9183 C 82.1083 17.1979 81.6747 18.6351 81.6747 20.2361 C 81.6747 22.3011 83.4303 23.8111 85.283 23.8111 C 87.1356 23.8111 88.4274 23.1228 89.5493 21.4096 L 92.2661 22.6104 C 90.6954 25.3363 88.3394 26.6978 85.1981 26.6978 C 83.0998 26.6978 81.4382 26.1277 80.2132 24.9876 C 78.9882 23.8475 78.3787 22.2617 78.3787 20.2331 L 78.3726 20.2361 Z"/>
<path transform="translate(0,0)" style="fill: rgb(250,250,250)" stroke-linecap="round" d="M 66.9746 23.9689 C 66.9746 22.5923 67.6417 21.5492 68.9759 20.8397 C 70.3221 20.118 72.1233 19.7147 74.3762 19.6298 L 74.4793 19.1295 C 74.4914 19.0597 74.5005 18.9688 74.5005 18.8566 C 74.5005 18.523 74.358 18.2562 74.073 18.0531 C 73.7879 17.8529 73.3938 17.7498 72.8934 17.7498 C 71.7109 17.7498 70.877 18.2865 70.3919 19.3569 L 67.7023 18.5837 C 67.9661 17.765 68.5362 17.0646 69.4125 16.4884 C 70.2888 15.9123 71.4501 15.6243 72.8965 15.6243 C 74.3428 15.6243 75.398 15.9032 76.15 16.4581 C 76.902 17.013 77.278 17.8287 77.278 18.896 C 77.278 19.2296 77.2355 19.6116 77.1537 20.0422 L 76.4017 23.6505 L 76.4017 23.7748 C 76.4017 23.9962 76.5139 24.1084 76.7352 24.1084 L 77.8602 24.1084 L 77.3811 26.3613 L 76.4441 26.3613 C 75.7346 26.3613 75.2313 26.2612 74.9341 26.0581 C 74.6339 25.8579 74.4853 25.5214 74.4853 25.0483 C 74.4853 24.827 74.5126 24.5753 74.5672 24.2964 L 73.5241 24.2964 C 72.8267 25.8943 71.6411 26.6948 69.9583 26.6948 C 69.1396 26.6948 68.4361 26.4583 67.8509 25.9853 C 67.2657 25.5123 66.9746 24.8391 66.9746 23.9628 L 66.9746 23.9567 L 66.9746 23.9689 Z M 73.8546 22.0919 L 73.979 21.5098 C 71.3531 21.6189 70.0402 22.2739 70.0402 23.4716 C 70.0402 23.8173 70.1523 24.0871 70.3737 24.2751 C 70.595 24.4631 70.9013 24.5571 71.2925 24.5571 C 71.8473 24.5571 72.381 24.3297 72.8874 23.8688 C 73.3968 23.411 73.7182 22.8197 73.8577 22.095 L 73.8546 22.0919 Z"/>
<path transform="translate(0,0)" style="fill: rgb(250,250,250)" stroke-linecap="round" d="M 103.324 26.3674 L 105.553 15.9397 L 108.473 15.9397 L 106.262 26.3674 L 103.324 26.3674 Z"/>
<path transform="translate(0,0)" style="fill: rgb(250,250,250)" stroke-linecap="round" d="M 117.461 28.6627 C 117.461 28.1473 117.616 27.7137 117.919 27.3589 C 118.225 27.0041 118.64 26.7585 119.171 26.6191 L 119.38 25.5972 C 118.81 25.3607 118.525 24.9574 118.525 24.3873 C 118.525 23.3443 119.247 22.6499 120.693 22.3042 L 120.902 21.3036 C 120.375 20.8852 120.111 20.2939 120.111 19.5298 C 120.111 18.4473 120.53 17.5255 121.363 16.7674 C 122.197 16.0094 123.268 15.6304 124.574 15.6304 C 125.602 15.6304 126.424 15.8426 127.037 16.2671 C 127.646 16.6916 128.074 17.2314 128.31 17.8833 L 129.353 17.8833 C 129.659 16.5916 130.327 15.9457 131.354 15.9457 L 132 15.9457 L 131.521 18.2805 L 130.414 18.2805 C 130.069 18.2805 129.82 18.3351 129.675 18.4473 C 129.529 18.5564 129.393 18.7929 129.268 19.1568 L 128.977 20.0331 C 128.28 22.1617 126.794 23.223 124.514 23.223 C 123.568 23.223 122.698 23.0562 121.906 22.7227 C 121.251 22.8894 120.927 23.1684 120.927 23.5565 C 120.927 23.8901 121.245 24.0568 121.885 24.0568 L 125.43 24.0568 C 126.667 24.0568 127.61 24.3358 128.256 24.8907 C 128.901 25.4456 129.226 26.1491 129.226 26.9981 C 129.226 28.0957 128.829 28.9447 128.037 29.5421 C 127.246 30.1394 126.048 30.4396 124.45 30.4396 L 120.029 30.4396 C 119.238 30.4396 118.61 30.2668 118.152 29.9181 C 117.694 29.5724 117.464 29.154 117.464 28.6658 L 117.464 28.6597 L 117.461 28.6627 Z M 121.009 28.2837 L 124.844 28.2837 C 125.802 28.2837 126.282 27.9229 126.282 27.2012 C 126.282 26.6463 125.9 26.3674 125.135 26.3674 L 120.463 26.3674 C 120.032 26.7009 119.817 27.0557 119.817 27.4317 C 119.817 28.0017 120.214 28.2868 121.006 28.2868 L 121.009 28.2837 Z M 126.491 19.1538 C 126.491 18.1532 125.963 17.6528 124.908 17.6528 C 124.38 17.6528 123.907 17.8621 123.489 18.2775 C 123.07 18.6959 122.861 19.1871 122.861 19.7572 C 122.861 20.7578 123.389 21.2581 124.444 21.2581 C 124.972 21.2581 125.445 21.0489 125.863 20.6335 C 126.282 20.2151 126.491 19.7238 126.491 19.1538 Z"/>
<path transform="translate(0,0)" style="fill: rgb(250,250,250)" stroke-linecap="round" d="M 107.548 14.8299 C 108.558 14.8299 109.38 14.0112 109.38 12.9984 C 109.38 11.9857 108.561 11.167 107.548 11.167 C 106.535 11.167 105.717 11.9857 105.717 12.9984 C 105.717 14.0112 106.535 14.8299 107.548 14.8299 Z"/>
<path transform="translate(0,0)" style="fill: rgb(250,250,250)" stroke-linecap="round" d="M 66.1491 16.5249 C 65.6215 15.9275 64.8756 15.6273 63.9205 15.6273 C 62.6318 15.6273 61.4826 16.3429 60.6578 17.7468 L 61.9404 11.7673 L 59.0023 11.7673 L 55.873 26.3643 L 58.8112 26.3643 L 59.8786 21.3946 C 60.112 20.4243 60.4092 19.6389 60.7731 19.0446 C 61.1763 18.3897 61.7525 18.0652 62.5044 18.0652 C 63.4505 18.0652 63.9235 18.5443 63.9235 19.5025 C 63.9235 19.7541 63.8962 19.9967 63.8416 20.2302 L 62.5287 26.3613 L 65.4669 26.3613 L 66.8223 20.0634 C 66.9041 19.6723 66.9466 19.2781 66.9466 18.8748 C 66.9466 17.9015 66.6828 17.1161 66.1552 16.5188 L 66.1491 16.5249 Z"/>
<path transform="translate(0,0)" style="fill: rgb(250,250,250)" stroke-linecap="round" d="M 118.076 16.525 C 117.548 15.9276 116.802 15.6274 115.844 15.6274 C 114.556 15.6274 113.406 16.34 112.582 17.7469 L 112.97 15.9398 L 110.032 15.9398 L 107.797 26.3675 L 110.735 26.3675 L 111.802 21.3977 C 112.036 20.4274 112.333 19.6421 112.697 19.0478 C 113.1 18.3928 113.676 18.0684 114.428 18.0684 C 115.374 18.0684 115.847 18.5474 115.847 19.5056 C 115.847 19.7573 115.82 19.9999 115.765 20.2333 L 114.453 26.3645 L 117.391 26.3645 L 118.746 20.0666 C 118.828 19.6754 118.87 19.2812 118.87 18.878 C 118.87 17.9046 118.607 17.1193 118.079 16.5219 L 118.079 16.528 L 118.076 16.525 Z"/>
<path transform="translate(0,0)" style="fill: rgb(11,172,119)" stroke-linecap="round" d="M 38.2726 19.912 C 38.2726 19.912 34.017 17.9753 33.5148 14.5699 C 32.7812 9.5935 36.9119 5.7294 36.9119 5.7294 C 36.9119 5.7294 32.422 8.636 28.7052 6.1292 C 25.5638 4.0159 26.0539 0 26.0539 0 C 26.0539 0 23.7465 4.2297 20.4437 4.868 C 17.3601 5.4629 14.7605 3.2877 13.068 1.3417 C 13.068 1.3417 14.0969 7.443 10.7028 10.8949 C 7.3087 14.3499 1.3181 13.3026 1.3181 13.3026 C 3.2328 15.0254 5.3697 17.6748 4.7822 20.8106 C 4.1551 24.1727 0 26.5214 0 26.5214 C 0 26.5214 3.942 26.0195 6.0241 29.2204 C 8.4868 33.0038 5.6315 37.5744 5.6315 37.5744 C 5.6315 37.5744 9.4243 33.3664 14.3161 34.1163 C 17.6645 34.6275 19.564 38.9595 19.564 38.9595 C 19.564 38.9595 20.739 33.825 24.6262 32.0959 C 28.1481 30.5311 32.0962 32.6723 32.0993 32.6723 C 32.0993 32.6723 29.9928 28.6471 31.5331 25.0651 C 33.2317 21.1081 38.2756 19.912 38.2756 19.912 L 38.2726 19.912 Z"/>
<path transform="translate(0,0)" style="fill: rgb(255,255,255)" stroke-linecap="round" d="M 26.0616 10.3559 C 24.1542 8.4143 19.2746 9.9528 14.3993 14.9151 C 9.524 19.8779 8.0131 24.8447 9.9205 26.7863 C 11.8279 28.7279 16.8764 27.0175 21.5824 22.2271 C 26.2884 17.4367 27.9686 12.2975 26.0612 10.3559 L 26.0616 10.3559 Z"/>
<path transform="translate(0,0)" style="fill: rgb(11,134,93)" stroke-linecap="round" d="M 15.7801 16.3209 C 19.9519 12.0742 23.6171 11.0291 24.9601 11.8206 C 24.896 11.6447 24.8092 11.4965 24.6978 11.3827 C 23.611 10.2763 19.7129 11.1791 15.2209 15.7516 C 10.729 20.3242 9.8426 24.2918 10.9294 25.3982 C 11.0408 25.5115 11.1864 25.5999 11.3596 25.6651 C 10.582 24.2981 11.6088 20.5671 15.7801 16.3204 L 15.7801 16.3209 Z"/>
<path transform="translate(0,0)" style="fill: rgb(255,255,255)" stroke-linecap="round" d="M 21.5835 22.2268 C 17.0271 26.865 12.1496 28.6155 10.1133 26.9601 C 10.3852 27.1904 11.9172 28.4874 12.7575 29.1986 C 14.6386 30.7911 19.3345 30.0299 24.2922 24.9832 C 29.2499 19.9365 29.9977 15.1568 28.4333 13.2415 C 27.6649 12.3008 26.1961 10.5029 26.1961 10.5029 L 26.1947 10.5047 C 27.885 12.549 26.1759 17.5529 21.5844 22.2268 L 21.5835 22.2268 Z"/>
<path transform="translate(0,0)" style="fill: rgb(11,134,93)" stroke-linecap="round" d="M 19.8671 27.8915 L 17.5672 25.5503 C 15.2681 27.0401 13.1291 27.7272 11.5801 27.5401 L 13.0761 28.8067 C 14.1668 29.73 16.7062 29.7688 19.8671 27.8919 L 19.8671 27.8915 Z"/>
<path transform="translate(0,0)" style="fill: rgb(11,134,93)" stroke-linecap="round" d="M 24.2227 19.08 L 26.5485 21.4476 C 28.9918 17.7858 29.0418 14.7878 28.0458 13.5681 L 26.7984 12.0413 C 27.0098 13.8271 26.1182 16.3857 24.2227 19.08 Z"/>
<path transform="translate(0,0)" style="fill: rgb(11,172,119)" stroke-linecap="round" d="M 19.8668 27.8917 C 20.8198 27.3256 21.829 26.5845 22.8724 25.6416 L 20.522 23.249 C 19.5295 24.1553 18.5339 24.9237 17.5664 25.5505 L 19.8663 27.8917 L 19.8668 27.8917 Z"/>
</svg>