<svg width="400" height="316" viewBox="0 0 400 316" fill="none" xmlns="http://www.w3.org/2000/svg">
<g clip-path="url(#clip0_7893_30144)">
<mask id="path-1-inside-1_7893_30144" fill="white">
<path d="M0 16C0 7.16344 7.16344 0 16 0H384C392.837 0 400 7.16344 400 16V300C400 308.837 392.837 316 384 316H16C7.16345 316 0 308.837 0 300V16Z"/>
</mask>
<path d="M0 16C0 7.16344 7.16344 0 16 0H384C392.837 0 400 7.16344 400 16V300C400 308.837 392.837 316 384 316H16C7.16345 316 0 308.837 0 300V16Z" fill="white"/>
<mask id="path-3-outside-2_7893_30144" maskUnits="userSpaceOnUse" x="0" y="0" width="400" height="251" fill="black">
<rect fill="white" width="400" height="251"/>
<path d="M0 0H400V250H0V0Z"/>
</mask>
<path d="M400 250V249H0V250V251H400V250Z" fill="#EBEBEB" mask="url(#path-3-outside-2_7893_30144)"/>
<rect x="-0.175781" y="-0.175781" width="66.4453" height="68.3203" rx="5.44922" transform="matrix(3.41176e-08 -1 -1 -5.60029e-08 230.352 121.617)" fill="#141414" stroke="#141414" stroke-width="0.351562"/>
<rect x="-0.175781" y="-0.175781" width="66.4453" height="68.3203" rx="5.44922" transform="matrix(3.41176e-08 -1 -1 -5.60029e-08 237.383 121.617)" fill="white" stroke="#141414" stroke-width="0.351562"/>
<rect x="-0.175781" y="-0.175781" width="56.1328" height="57.5391" rx="5.44922" transform="matrix(3.41176e-08 -1 -1 -5.60029e-08 231.992 116.461)" fill="white" stroke="#141414" stroke-width="0.351562"/>
<path d="M199.766 64.0195C209.54 64.0195 218.462 69.299 225.194 74.9287C231.923 80.5555 236.44 86.5121 237.4 87.8223C237.472 87.9199 237.472 88.0488 237.4 88.1465C236.44 89.4567 231.923 95.4132 225.194 101.04C218.462 106.67 209.54 111.949 199.766 111.949C189.992 111.949 181.069 106.67 174.337 101.04C167.608 95.4132 163.091 89.4567 162.131 88.1465C162.06 88.0488 162.06 87.9199 162.131 87.8223C163.091 86.5121 167.608 80.5555 174.337 74.9287C181.069 69.299 189.992 64.0195 199.766 64.0195Z" fill="#141414" stroke="#141414" stroke-width="0.351562"/>
<path d="M201.875 60.2695C211.649 60.2695 220.571 65.549 227.304 71.1787C234.033 76.8055 238.55 82.7621 239.51 84.0723C239.581 84.1699 239.581 84.2988 239.51 84.3965C238.55 85.7067 234.033 91.6632 227.304 97.29C220.571 102.92 211.649 108.199 201.875 108.199C192.101 108.199 183.179 102.92 176.446 97.29C169.717 91.6632 165.2 85.7067 164.24 84.3965C164.169 84.2988 164.169 84.1699 164.24 84.0723C165.2 82.7621 169.717 76.8055 176.446 71.1787C183.179 65.549 192.101 60.2695 201.875 60.2695Z" fill="white" stroke="#141414" stroke-width="0.351562"/>
<mask id="path-10-inside-3_7893_30144" fill="white">
<path d="M202.056 66.814C211.66 66.814 219.445 74.5991 219.445 84.2026C219.445 93.8062 211.66 101.591 202.056 101.591C192.453 101.591 184.668 93.8062 184.668 84.2026C184.668 80.5041 185.823 77.0756 187.792 74.2573L195.034 80.5249V68.2905C197.182 67.3413 199.557 66.814 202.056 66.814Z"/>
</mask>
<path d="M202.056 66.814C211.66 66.814 219.445 74.5991 219.445 84.2026C219.445 93.8062 211.66 101.591 202.056 101.591C192.453 101.591 184.668 93.8062 184.668 84.2026C184.668 80.5041 185.823 77.0756 187.792 74.2573L195.034 80.5249V68.2905C197.182 67.3413 199.557 66.814 202.056 66.814Z" fill="#141414"/>
<path d="M202.056 66.814V66.4624H202.056L202.056 66.814ZM219.445 84.2026H219.797V84.2026L219.445 84.2026ZM202.056 101.591L202.056 101.943H202.056V101.591ZM184.668 84.2026L184.316 84.2026V84.2026H184.668ZM187.792 74.2573L188.022 73.9915L187.727 73.7363L187.504 74.056L187.792 74.2573ZM195.034 80.5249L194.804 80.7907L195.385 81.2941V80.5249H195.034ZM195.034 68.2905L194.892 67.969L194.682 68.0615V68.2905H195.034ZM202.056 66.814V67.1655C211.466 67.1655 219.093 74.7933 219.094 84.2026L219.445 84.2026L219.797 84.2026C219.797 74.405 211.854 66.4624 202.056 66.4624V66.814ZM219.445 84.2026H219.094C219.094 93.6121 211.466 101.24 202.056 101.24V101.591V101.943C211.854 101.943 219.797 94.0004 219.797 84.2026H219.445ZM202.056 101.591L202.056 101.24C192.647 101.24 185.019 93.612 185.019 84.2026H184.668H184.316C184.316 94.0003 192.259 101.943 202.056 101.943L202.056 101.591ZM184.668 84.2026L185.019 84.2026C185.019 80.5784 186.151 77.2199 188.08 74.4586L187.792 74.2573L187.504 74.056C185.495 76.9314 184.316 80.4297 184.316 84.2026L184.668 84.2026ZM187.792 74.2573L187.562 74.5232L194.804 80.7907L195.034 80.5249L195.264 80.2591L188.022 73.9915L187.792 74.2573ZM195.034 80.5249H195.385V68.2905H195.034H194.682V80.5249H195.034ZM195.034 68.2905L195.176 68.6121C197.28 67.6823 199.607 67.1656 202.056 67.1655L202.056 66.814L202.056 66.4624C199.507 66.4624 197.083 67.0004 194.892 67.969L195.034 68.2905Z" fill="#141414" mask="url(#path-10-inside-3_7893_30144)"/>
<mask id="path-12-inside-4_7893_30144" fill="white">
<path d="M197.876 72.1646C204.063 72.1646 209.079 77.1799 209.079 83.3667C209.079 89.5536 204.063 94.5698 197.876 94.5698C191.689 94.5697 186.674 89.5535 186.674 83.3667C186.674 80.4577 187.783 77.8074 189.601 75.8159L195.034 80.5249V72.5288C195.942 72.2915 196.894 72.1646 197.876 72.1646Z"/>
</mask>
<path d="M197.876 72.1646C204.063 72.1646 209.079 77.1799 209.079 83.3667C209.079 89.5536 204.063 94.5698 197.876 94.5698C191.689 94.5697 186.674 89.5535 186.674 83.3667C186.674 80.4577 187.783 77.8074 189.601 75.8159L195.034 80.5249V72.5288C195.942 72.2915 196.894 72.1646 197.876 72.1646Z" fill="white"/>
<path d="M197.876 72.1646V71.813H197.876L197.876 72.1646ZM209.079 83.3667H209.431V83.3667L209.079 83.3667ZM197.876 94.5698L197.876 94.9214H197.876V94.5698ZM186.674 83.3667L186.323 83.3667V83.3667H186.674ZM189.601 75.8159L189.831 75.5502L189.572 75.3259L189.341 75.5789L189.601 75.8159ZM195.034 80.5249L194.804 80.7906L195.386 81.2948V80.5249H195.034ZM195.034 72.5288L194.945 72.1887L194.683 72.2574V72.5288H195.034ZM197.876 72.1646V72.5161C203.869 72.5161 208.728 77.3741 208.728 83.3667L209.079 83.3667L209.431 83.3667C209.431 76.9857 204.257 71.813 197.876 71.813V72.1646ZM209.079 83.3667H208.728C208.728 89.3595 203.869 94.2183 197.876 94.2183V94.5698V94.9214C204.257 94.9214 209.431 89.7478 209.431 83.3667H209.079ZM197.876 94.5698L197.876 94.2183C191.884 94.2181 187.026 89.3594 187.026 83.3667H186.674H186.323C186.323 89.7477 191.495 94.9212 197.876 94.9214L197.876 94.5698ZM186.674 83.3667L187.026 83.3667C187.026 80.5487 188.099 77.9821 189.86 76.053L189.601 75.8159L189.341 75.5789C187.466 77.6326 186.323 80.3666 186.323 83.3667L186.674 83.3667ZM189.601 75.8159L189.371 76.0816L194.804 80.7906L195.034 80.5249L195.265 80.2592L189.831 75.5502L189.601 75.8159ZM195.034 80.5249H195.386V72.5288H195.034H194.683V80.5249H195.034ZM195.034 72.5288L195.123 72.8689C196.002 72.6391 196.925 72.5161 197.876 72.5161L197.876 72.1646L197.876 71.813C196.864 71.813 195.882 71.9439 194.945 72.1887L195.034 72.5288Z" fill="#141414" mask="url(#path-12-inside-4_7893_30144)"/>
<path d="M224.961 45.6211C224.878 45.6211 224.806 45.6794 224.789 45.7607L223.56 51.6787L217.543 52.8906C217.461 52.9074 217.402 52.979 217.402 53.0625C217.402 53.146 217.461 53.2176 217.543 53.2344L223.56 54.4453L224.789 60.3643C224.806 60.4456 224.878 60.5039 224.961 60.5039C225.044 60.5039 225.116 60.4456 225.133 60.3643L226.363 54.4453L232.379 53.2344C232.461 53.2176 232.52 53.146 232.52 53.0625C232.52 52.979 232.461 52.9074 232.379 52.8906L226.363 51.6787L225.133 45.7607L225.11 45.7051C225.079 45.6542 225.023 45.6211 224.961 45.6211Z" fill="white" stroke="#141414" stroke-width="0.351562" stroke-linejoin="round"/>
<path d="M181.367 103.512C181.284 103.512 181.212 103.57 181.195 103.651L179.966 109.569L173.949 110.781C173.867 110.798 173.809 110.87 173.809 110.953C173.809 111.037 173.867 111.108 173.949 111.125L179.966 112.336L181.195 118.255C181.212 118.336 181.284 118.395 181.367 118.395C181.45 118.395 181.522 118.336 181.539 118.255L182.77 112.336L188.785 111.125C188.867 111.108 188.926 111.037 188.926 110.953C188.926 110.87 188.867 110.798 188.785 110.781L182.77 109.569L181.539 103.651L181.517 103.596C181.485 103.545 181.43 103.512 181.367 103.512Z" fill="white" stroke="#141414" stroke-width="0.351562" stroke-linejoin="round"/>
<path d="M119.51 175.288C117.782 175.288 116.31 174.912 115.094 174.16C113.878 173.408 112.95 172.384 112.31 171.088C111.67 169.776 111.35 168.288 111.35 166.624C111.35 164.96 111.662 163.472 112.286 162.16C112.91 160.848 113.83 159.816 115.046 159.064C116.262 158.296 117.75 157.912 119.51 157.912C121.526 157.912 123.174 158.416 124.454 159.424C125.75 160.416 126.558 161.816 126.878 163.624H123.494C123.286 162.712 122.838 162 122.15 161.488C121.478 160.96 120.582 160.696 119.462 160.696C118.438 160.696 117.55 160.936 116.798 161.416C116.062 161.896 115.494 162.576 115.094 163.456C114.694 164.336 114.494 165.392 114.494 166.624C114.494 167.84 114.694 168.896 115.094 169.792C115.494 170.672 116.062 171.352 116.798 171.832C117.55 172.296 118.438 172.528 119.462 172.528C120.582 172.528 121.478 172.288 122.15 171.808C122.838 171.312 123.286 170.632 123.494 169.768H126.878C126.558 171.496 125.75 172.848 124.454 173.824C123.174 174.8 121.526 175.288 119.51 175.288ZM128.45 175V158.2H131.498V164.488C131.914 163.928 132.466 163.512 133.154 163.24C133.858 162.952 134.562 162.808 135.266 162.808C136.642 162.808 137.77 163.256 138.65 164.152C139.53 165.032 139.97 166.312 139.97 167.992V175H136.922V168.4C136.922 167.504 136.69 166.784 136.226 166.24C135.778 165.68 135.114 165.4 134.234 165.4C133.354 165.4 132.674 165.68 132.194 166.24C131.73 166.784 131.498 167.504 131.498 168.4V175H128.45ZM147.135 175.288C145.887 175.288 144.807 175.016 143.895 174.472C142.999 173.928 142.303 173.184 141.807 172.24C141.311 171.296 141.063 170.232 141.063 169.048C141.063 167.784 141.319 166.688 141.831 165.76C142.343 164.832 143.055 164.112 143.967 163.6C144.879 163.072 145.935 162.808 147.135 162.808C148.319 162.808 149.351 163.064 150.231 163.576C151.127 164.088 151.823 164.792 152.319 165.688C152.831 166.584 153.087 167.616 153.087 168.784C153.087 168.992 153.079 169.2 153.063 169.408C153.047 169.6 153.023 169.784 152.991 169.96H144.159C144.207 170.52 144.351 171.016 144.591 171.448C144.847 171.864 145.183 172.192 145.599 172.432C146.031 172.656 146.519 172.768 147.063 172.768C147.623 172.768 148.103 172.648 148.503 172.408C148.919 172.168 149.247 171.8 149.487 171.304H152.775C152.551 172.008 152.191 172.664 151.695 173.272C151.199 173.88 150.567 174.368 149.799 174.736C149.047 175.104 148.159 175.288 147.135 175.288ZM144.183 167.92H149.919C149.903 167.12 149.607 166.488 149.031 166.024C148.471 165.56 147.807 165.328 147.039 165.328C146.383 165.328 145.775 165.536 145.215 165.952C144.655 166.352 144.311 167.008 144.183 167.92ZM159.824 175.288C158.624 175.288 157.576 175.024 156.68 174.496C155.784 173.952 155.088 173.216 154.592 172.288C154.096 171.344 153.848 170.264 153.848 169.048C153.848 167.848 154.088 166.776 154.568 165.832C155.064 164.888 155.76 164.152 156.656 163.624C157.552 163.08 158.608 162.808 159.824 162.808C161.264 162.808 162.48 163.168 163.472 163.888C164.48 164.608 165.16 165.672 165.512 167.08H162.224C162.08 166.616 161.8 166.224 161.384 165.904C160.984 165.568 160.456 165.4 159.8 165.4C159.144 165.4 158.608 165.568 158.192 165.904C157.776 166.24 157.464 166.688 157.256 167.248C157.064 167.792 156.968 168.392 156.968 169.048C156.968 169.704 157.064 170.312 157.256 170.872C157.464 171.416 157.776 171.856 158.192 172.192C158.608 172.512 159.144 172.672 159.8 172.672C160.424 172.672 160.936 172.536 161.336 172.264C161.736 171.976 162.032 171.56 162.224 171.016H165.512C165.304 171.912 164.928 172.68 164.384 173.32C163.856 173.96 163.2 174.448 162.416 174.784C161.648 175.12 160.784 175.288 159.824 175.288ZM166.807 175V158.2H169.879V168.136L173.839 163.096H177.799L172.567 169.072L177.871 175H173.911L169.879 169.936V175H166.807ZM185.045 180.28L187.661 174.448L182.837 163.096H186.269L189.341 171.208L192.485 163.096H195.725L188.285 180.28H185.045ZM201.269 175.288C200.069 175.288 198.997 175.032 198.053 174.52C197.125 173.992 196.397 173.256 195.869 172.312C195.341 171.368 195.077 170.28 195.077 169.048C195.077 167.752 195.357 166.64 195.917 165.712C196.493 164.768 197.253 164.048 198.197 163.552C199.157 163.056 200.213 162.808 201.365 162.808C202.565 162.808 203.637 163.072 204.581 163.6C205.525 164.112 206.269 164.832 206.813 165.76C207.373 166.688 207.653 167.784 207.653 169.048C207.653 170.248 207.381 171.32 206.837 172.264C206.293 173.208 205.541 173.952 204.581 174.496C203.637 175.024 202.533 175.288 201.269 175.288ZM201.317 172.624C201.957 172.624 202.509 172.464 202.973 172.144C203.453 171.808 203.829 171.368 204.101 170.824C204.373 170.264 204.509 169.656 204.509 169C204.509 168.248 204.357 167.608 204.053 167.08C203.765 166.552 203.381 166.152 202.901 165.88C202.421 165.608 201.893 165.472 201.317 165.472C200.693 165.472 200.141 165.624 199.661 165.928C199.197 166.232 198.829 166.656 198.557 167.2C198.301 167.728 198.173 168.344 198.173 169.048C198.173 169.752 198.309 170.376 198.581 170.92C198.869 171.464 199.253 171.888 199.733 172.192C200.213 172.48 200.741 172.624 201.317 172.624ZM213.605 175.288C212.581 175.288 211.709 175.072 210.989 174.64C210.269 174.192 209.717 173.584 209.333 172.816C208.949 172.032 208.757 171.144 208.757 170.152V163.096H211.805V169.696C211.805 170.576 212.029 171.296 212.477 171.856C212.941 172.416 213.613 172.696 214.493 172.696C215.405 172.696 216.085 172.424 216.533 171.88C216.981 171.336 217.205 170.608 217.205 169.696V163.096H220.277V175H217.205V173.608C216.805 174.152 216.277 174.568 215.621 174.856C214.981 175.144 214.309 175.288 213.605 175.288ZM221.946 175V163.096H224.994V164.872C225.41 164.2 225.938 163.688 226.578 163.336C227.218 162.984 227.93 162.808 228.714 162.808V166.024H227.898C226.922 166.024 226.194 166.256 225.714 166.72C225.234 167.184 224.994 167.96 224.994 169.048V175H221.946ZM236.376 161.56C235.832 161.56 235.36 161.368 234.96 160.984C234.576 160.584 234.384 160.112 234.384 159.568C234.384 159.008 234.576 158.536 234.96 158.152C235.36 157.768 235.832 157.576 236.376 157.576C236.936 157.576 237.408 157.768 237.792 158.152C238.176 158.536 238.368 159.008 238.368 159.568C238.368 160.112 238.176 160.584 237.792 160.984C237.408 161.368 236.936 161.56 236.376 161.56ZM234.84 175V163.096H237.912V175H234.84ZM239.678 175V163.096H242.726V164.488C243.142 163.928 243.694 163.512 244.382 163.24C245.086 162.952 245.79 162.808 246.494 162.808C247.87 162.808 248.998 163.256 249.878 164.152C250.758 165.032 251.198 166.312 251.198 167.992V175H248.15V168.4C248.15 167.504 247.918 166.784 247.454 166.24C247.006 165.68 246.342 165.4 245.462 165.4C244.582 165.4 243.902 165.68 243.422 166.24C242.958 166.784 242.726 167.504 242.726 168.4V175H239.678ZM259.73 175.288C258.93 175.288 258.178 175.136 257.474 174.832C256.786 174.512 256.21 174.024 255.746 173.368V175H252.674V158.2H255.722V164.776C256.17 164.12 256.746 163.632 257.45 163.312C258.154 162.976 258.914 162.808 259.73 162.808C260.866 162.808 261.842 163.088 262.658 163.648C263.49 164.192 264.13 164.936 264.578 165.88C265.026 166.808 265.25 167.848 265.25 169C265.25 170.136 265.026 171.184 264.578 172.144C264.13 173.104 263.49 173.872 262.658 174.448C261.842 175.008 260.866 175.288 259.73 175.288ZM258.914 172.6C259.554 172.6 260.114 172.44 260.594 172.12C261.074 171.8 261.45 171.368 261.722 170.824C261.994 170.264 262.13 169.656 262.13 169C262.13 168.248 261.978 167.616 261.674 167.104C261.386 166.576 260.994 166.176 260.498 165.904C260.018 165.632 259.49 165.496 258.914 165.496C258.29 165.496 257.738 165.648 257.258 165.952C256.794 166.256 256.426 166.68 256.154 167.224C255.882 167.752 255.746 168.36 255.746 169.048C255.746 169.752 255.882 170.376 256.154 170.92C256.442 171.448 256.826 171.864 257.306 172.168C257.786 172.456 258.322 172.6 258.914 172.6ZM272.346 175.288C271.146 175.288 270.074 175.032 269.13 174.52C268.202 173.992 267.474 173.256 266.946 172.312C266.418 171.368 266.154 170.28 266.154 169.048C266.154 167.752 266.434 166.64 266.994 165.712C267.57 164.768 268.33 164.048 269.274 163.552C270.234 163.056 271.29 162.808 272.442 162.808C273.642 162.808 274.714 163.072 275.658 163.6C276.602 164.112 277.346 164.832 277.89 165.76C278.45 166.688 278.73 167.784 278.73 169.048C278.73 170.248 278.458 171.32 277.914 172.264C277.37 173.208 276.618 173.952 275.658 174.496C274.714 175.024 273.61 175.288 272.346 175.288ZM272.394 172.624C273.034 172.624 273.586 172.464 274.05 172.144C274.53 171.808 274.906 171.368 275.178 170.824C275.45 170.264 275.586 169.656 275.586 169C275.586 168.248 275.434 167.608 275.13 167.08C274.842 166.552 274.458 166.152 273.978 165.88C273.498 165.608 272.97 165.472 272.394 165.472C271.77 165.472 271.218 165.624 270.738 165.928C270.274 166.232 269.906 166.656 269.634 167.2C269.378 167.728 269.25 168.344 269.25 169.048C269.25 169.752 269.386 170.376 269.658 170.92C269.946 171.464 270.33 171.888 270.81 172.192C271.29 172.48 271.818 172.624 272.394 172.624ZM278.314 175L282.25 169.024L278.266 163.096H281.722L284.17 166.768L286.402 163.096H289.666L285.706 169.024L289.714 175H286.282L283.786 171.304L281.578 175H278.314Z" fill="#141414"/>
<path d="M36.9327 201L32.9327 189.8H34.3087L37.7007 199.736L39.4127 194.872L37.6367 189.8H39.0127L40.2927 193.768L41.5727 189.8H42.9487L41.1727 194.872L42.8847 199.736L46.2767 189.8H47.6527L43.6527 201H42.1167L40.2927 195.896L38.4687 201H36.9327ZM51.1861 201.192C50.4501 201.192 49.7834 201.021 49.1861 200.68C48.5994 200.339 48.1354 199.859 47.7941 199.24C47.4527 198.611 47.2821 197.875 47.2821 197.032C47.2821 196.2 47.4421 195.475 47.7621 194.856C48.0927 194.227 48.5514 193.741 49.1381 193.4C49.7354 193.048 50.4287 192.872 51.2181 192.872C51.9647 192.872 52.6154 193.037 53.1701 193.368C53.7247 193.699 54.1567 194.147 54.4661 194.712C54.7861 195.267 54.9461 195.891 54.9461 196.584C54.9461 196.733 54.9461 196.851 54.9461 196.936C54.9461 197.021 54.9407 197.155 54.9301 197.336H48.6101C48.6421 197.859 48.7647 198.328 48.9781 198.744C49.2021 199.149 49.5007 199.469 49.8741 199.704C50.2581 199.939 50.6954 200.056 51.1861 200.056C51.7407 200.056 52.2047 199.928 52.5781 199.672C52.9514 199.416 53.2234 199.069 53.3941 198.632H54.7221C54.5834 199.123 54.3541 199.56 54.0341 199.944C53.7141 200.328 53.3141 200.632 52.8341 200.856C52.3647 201.08 51.8154 201.192 51.1861 201.192ZM48.6261 196.296H53.6181C53.5861 195.581 53.3407 195.021 52.8821 194.616C52.4234 194.211 51.8581 194.008 51.1861 194.008C50.5461 194.008 49.9754 194.205 49.4741 194.6C48.9834 194.984 48.7007 195.549 48.6261 196.296ZM55.9914 193.368L56.9194 189.8H58.4234L56.9514 193.368H55.9914ZM62.1017 201L59.0937 193.064H60.5017L62.8857 199.704L65.2857 193.064H66.6617L63.6537 201H62.1017ZM71.1592 201.192C70.4232 201.192 69.7565 201.021 69.1592 200.68C68.5725 200.339 68.1085 199.859 67.7672 199.24C67.4258 198.611 67.2552 197.875 67.2552 197.032C67.2552 196.2 67.4152 195.475 67.7352 194.856C68.0658 194.227 68.5245 193.741 69.1112 193.4C69.7085 193.048 70.4018 192.872 71.1912 192.872C71.9378 192.872 72.5885 193.037 73.1432 193.368C73.6978 193.699 74.1298 194.147 74.4392 194.712C74.7592 195.267 74.9192 195.891 74.9192 196.584C74.9192 196.733 74.9192 196.851 74.9192 196.936C74.9192 197.021 74.9138 197.155 74.9032 197.336H68.5832C68.6152 197.859 68.7378 198.328 68.9512 198.744C69.1752 199.149 69.4738 199.469 69.8472 199.704C70.2312 199.939 70.6685 200.056 71.1592 200.056C71.7138 200.056 72.1778 199.928 72.5512 199.672C72.9245 199.416 73.1965 199.069 73.3672 198.632H74.6952C74.5565 199.123 74.3272 199.56 74.0072 199.944C73.6872 200.328 73.2872 200.632 72.8072 200.856C72.3378 201.08 71.7885 201.192 71.1592 201.192ZM68.5992 196.296H73.5912C73.5592 195.581 73.3138 195.021 72.8552 194.616C72.3965 194.211 71.8312 194.008 71.1592 194.008C70.5192 194.008 69.9485 194.205 69.4472 194.6C68.9565 194.984 68.6738 195.549 68.5992 196.296ZM83.6549 201.192C83.0256 201.192 82.4603 201.085 81.9589 200.872C81.4576 200.648 81.0523 200.339 80.7429 199.944C80.4443 199.539 80.2576 199.064 80.1829 198.52H81.5589C81.6443 198.936 81.8629 199.299 82.2149 199.608C82.5776 199.907 83.0629 200.056 83.6709 200.056C84.2363 200.056 84.6523 199.939 84.9189 199.704C85.1856 199.459 85.3189 199.171 85.3189 198.84C85.3189 198.52 85.2389 198.275 85.0789 198.104C84.9296 197.933 84.7056 197.805 84.4069 197.72C84.1189 197.624 83.7616 197.533 83.3349 197.448C82.8869 197.352 82.4496 197.224 82.0229 197.064C81.5963 196.893 81.2443 196.664 80.9669 196.376C80.6896 196.088 80.5509 195.709 80.5509 195.24C80.5509 194.771 80.6683 194.36 80.9029 194.008C81.1376 193.656 81.4683 193.379 81.8949 193.176C82.3323 192.973 82.8443 192.872 83.4309 192.872C84.2736 192.872 84.9616 193.085 85.4949 193.512C86.0389 193.928 86.3536 194.525 86.4389 195.304H85.1109C85.0576 194.899 84.8816 194.584 84.5829 194.36C84.2949 194.125 83.9056 194.008 83.4149 194.008C82.9349 194.008 82.5616 194.109 82.2949 194.312C82.0389 194.515 81.9109 194.781 81.9109 195.112C81.9109 195.325 81.9856 195.507 82.1349 195.656C82.2843 195.805 82.4976 195.933 82.7749 196.04C83.0629 196.147 83.3989 196.243 83.7829 196.328C84.3163 196.435 84.8016 196.568 85.2389 196.728C85.6763 196.888 86.0283 197.123 86.2949 197.432C86.5616 197.731 86.6949 198.163 86.6949 198.728C86.7056 199.197 86.5829 199.619 86.3269 199.992C86.0816 200.365 85.7296 200.659 85.2709 200.872C84.8229 201.085 84.2843 201.192 83.6549 201.192ZM92.0229 201.192C91.2869 201.192 90.6203 201.021 90.0229 200.68C89.4363 200.339 88.9723 199.859 88.6309 199.24C88.2896 198.611 88.1189 197.875 88.1189 197.032C88.1189 196.2 88.2789 195.475 88.5989 194.856C88.9296 194.227 89.3883 193.741 89.9749 193.4C90.5723 193.048 91.2656 192.872 92.0549 192.872C92.8016 192.872 93.4523 193.037 94.0069 193.368C94.5616 193.699 94.9936 194.147 95.3029 194.712C95.6229 195.267 95.7829 195.891 95.7829 196.584C95.7829 196.733 95.7829 196.851 95.7829 196.936C95.7829 197.021 95.7776 197.155 95.7669 197.336H89.4469C89.4789 197.859 89.6016 198.328 89.8149 198.744C90.0389 199.149 90.3376 199.469 90.7109 199.704C91.0949 199.939 91.5323 200.056 92.0229 200.056C92.5776 200.056 93.0416 199.928 93.4149 199.672C93.7883 199.416 94.0603 199.069 94.2309 198.632H95.5589C95.4203 199.123 95.1909 199.56 94.8709 199.944C94.5509 200.328 94.1509 200.632 93.6709 200.856C93.2016 201.08 92.6523 201.192 92.0229 201.192ZM89.4629 196.296H94.4549C94.4229 195.581 94.1776 195.021 93.7189 194.616C93.2603 194.211 92.6949 194.008 92.0229 194.008C91.3829 194.008 90.8123 194.205 90.3109 194.6C89.8203 194.984 89.5376 195.549 89.4629 196.296ZM97.4043 201V193.064H98.6203L98.7003 194.488C98.9563 193.987 99.3243 193.592 99.8043 193.304C100.284 193.016 100.828 192.872 101.436 192.872C102.375 192.872 103.122 193.16 103.676 193.736C104.242 194.301 104.524 195.176 104.524 196.36V201H103.18V196.504C103.18 195.683 103.01 195.064 102.668 194.648C102.327 194.232 101.815 194.024 101.132 194.024C100.45 194.024 99.879 194.275 99.4203 194.776C98.9723 195.267 98.7483 195.971 98.7483 196.888V201H97.4043ZM109.552 201C108.827 201 108.256 200.824 107.84 200.472C107.424 200.12 107.216 199.485 107.216 198.568V194.2H105.84V193.064H107.216V191.16H108.56V193.064H110.784V194.2H108.56V198.568C108.56 199.069 108.662 199.411 108.864 199.592C109.067 199.763 109.424 199.848 109.936 199.848H110.784V201H109.552ZM119.158 201.192C118.614 201.192 118.118 201.101 117.67 200.92C117.222 200.739 116.865 200.467 116.598 200.104C116.342 199.731 116.214 199.277 116.214 198.744C116.214 198.125 116.374 197.635 116.694 197.272C117.014 196.899 117.435 196.632 117.958 196.472C118.491 196.301 119.062 196.216 119.67 196.216H121.814C121.814 195.661 121.718 195.224 121.526 194.904C121.345 194.584 121.105 194.355 120.806 194.216C120.507 194.077 120.177 194.008 119.814 194.008C119.291 194.008 118.838 194.136 118.454 194.392C118.081 194.637 117.846 195.021 117.75 195.544H116.374C116.427 194.968 116.619 194.483 116.95 194.088C117.281 193.693 117.697 193.395 118.198 193.192C118.71 192.979 119.249 192.872 119.814 192.872C120.614 192.872 121.259 193.021 121.75 193.32C122.241 193.608 122.598 193.997 122.822 194.488C123.046 194.979 123.158 195.523 123.158 196.12V198.552C123.158 198.947 123.206 199.245 123.302 199.448C123.398 199.651 123.643 199.773 124.038 199.816V201C123.686 201 123.366 200.957 123.078 200.872C122.79 200.776 122.545 200.627 122.342 200.424C122.15 200.211 122.011 199.933 121.926 199.592C121.659 200.04 121.291 200.419 120.822 200.728C120.363 201.037 119.809 201.192 119.158 201.192ZM119.366 200.056C119.899 200.056 120.347 199.923 120.71 199.656C121.073 199.379 121.345 199.027 121.526 198.6C121.718 198.173 121.814 197.731 121.814 197.272V197.256H119.782C119.409 197.256 119.057 197.299 118.726 197.384C118.395 197.459 118.129 197.603 117.926 197.816C117.723 198.019 117.622 198.307 117.622 198.68C117.622 199.16 117.793 199.512 118.134 199.736C118.475 199.949 118.886 200.056 119.366 200.056ZM129.573 201V193.064H130.789L130.885 194.216C131.141 193.789 131.482 193.459 131.909 193.224C132.336 192.989 132.816 192.872 133.349 192.872C133.978 192.872 134.517 193 134.965 193.256C135.424 193.512 135.776 193.901 136.021 194.424C136.298 193.944 136.677 193.565 137.157 193.288C137.648 193.011 138.176 192.872 138.741 192.872C139.381 192.872 139.93 193 140.389 193.256C140.858 193.501 141.221 193.885 141.477 194.408C141.733 194.92 141.861 195.571 141.861 196.36V201H140.533V196.504C140.533 195.683 140.368 195.064 140.037 194.648C139.706 194.232 139.232 194.024 138.613 194.024C137.973 194.024 137.44 194.275 137.013 194.776C136.597 195.267 136.389 195.971 136.389 196.888V201H135.045V196.504C135.045 195.683 134.88 195.064 134.549 194.648C134.218 194.232 133.744 194.024 133.125 194.024C132.496 194.024 131.968 194.275 131.541 194.776C131.125 195.267 130.917 195.971 130.917 196.888V201H129.573ZM146.366 201.192C145.822 201.192 145.326 201.101 144.878 200.92C144.43 200.739 144.072 200.467 143.806 200.104C143.55 199.731 143.422 199.277 143.422 198.744C143.422 198.125 143.582 197.635 143.902 197.272C144.222 196.899 144.643 196.632 145.166 196.472C145.699 196.301 146.27 196.216 146.878 196.216H149.022C149.022 195.661 148.926 195.224 148.734 194.904C148.552 194.584 148.312 194.355 148.014 194.216C147.715 194.077 147.384 194.008 147.022 194.008C146.499 194.008 146.046 194.136 145.662 194.392C145.288 194.637 145.054 195.021 144.958 195.544H143.582C143.635 194.968 143.827 194.483 144.158 194.088C144.488 193.693 144.904 193.395 145.406 193.192C145.918 192.979 146.456 192.872 147.022 192.872C147.822 192.872 148.467 193.021 148.958 193.32C149.448 193.608 149.806 193.997 150.03 194.488C150.254 194.979 150.366 195.523 150.366 196.12V198.552C150.366 198.947 150.414 199.245 150.51 199.448C150.606 199.651 150.851 199.773 151.246 199.816V201C150.894 201 150.574 200.957 150.286 200.872C149.998 200.776 149.752 200.627 149.55 200.424C149.358 200.211 149.219 199.933 149.134 199.592C148.867 200.04 148.499 200.419 148.03 200.728C147.571 201.037 147.016 201.192 146.366 201.192ZM146.574 200.056C147.107 200.056 147.555 199.923 147.918 199.656C148.28 199.379 148.552 199.027 148.734 198.6C148.926 198.173 149.022 197.731 149.022 197.272V197.256H146.99C146.616 197.256 146.264 197.299 145.934 197.384C145.603 197.459 145.336 197.603 145.134 197.816C144.931 198.019 144.83 198.307 144.83 198.68C144.83 199.16 145 199.512 145.342 199.736C145.683 199.949 146.094 200.056 146.574 200.056ZM155.858 204.712C155.229 204.712 154.626 204.632 154.05 204.472C153.474 204.312 153.005 204.04 152.642 203.656C152.29 203.283 152.114 202.781 152.114 202.152C152.114 201.715 152.216 201.352 152.418 201.064C152.621 200.776 152.888 200.557 153.218 200.408C152.962 200.259 152.754 200.072 152.594 199.848C152.434 199.624 152.354 199.368 152.354 199.08C152.354 198.44 152.642 197.923 153.218 197.528C153.005 197.283 152.834 197.011 152.706 196.712C152.589 196.403 152.53 196.061 152.53 195.688C152.53 195.101 152.664 194.6 152.93 194.184C153.208 193.757 153.581 193.432 154.05 193.208C154.53 192.984 155.074 192.872 155.682 192.872C156.13 192.872 156.552 192.936 156.946 193.064H159.65V194.2H158.418C158.557 194.413 158.658 194.648 158.722 194.904C158.797 195.149 158.834 195.411 158.834 195.688C158.834 196.296 158.69 196.808 158.402 197.224C158.125 197.64 157.746 197.96 157.266 198.184C156.797 198.397 156.269 198.504 155.682 198.504C155.384 198.504 155.112 198.472 154.866 198.408C154.621 198.344 154.376 198.253 154.13 198.136C153.853 198.275 153.714 198.488 153.714 198.776C153.714 199.309 154.162 199.576 155.058 199.576H156.386C156.984 199.576 157.512 199.656 157.97 199.816C158.429 199.965 158.786 200.216 159.042 200.568C159.309 200.909 159.442 201.379 159.442 201.976C159.442 202.584 159.272 203.091 158.93 203.496C158.589 203.901 158.146 204.205 157.602 204.408C157.058 204.611 156.477 204.712 155.858 204.712ZM155.826 203.592C156.466 203.592 157.01 203.469 157.458 203.224C157.906 202.989 158.13 202.627 158.13 202.136C158.13 201.219 157.576 200.76 156.466 200.76H155.106C154.584 200.76 154.173 200.872 153.874 201.096C153.576 201.331 153.426 201.677 153.426 202.136C153.426 202.488 153.538 202.771 153.762 202.984C153.986 203.197 154.28 203.352 154.642 203.448C155.005 203.544 155.4 203.592 155.826 203.592ZM155.65 197.384C156.205 197.384 156.658 197.224 157.01 196.904C157.362 196.584 157.538 196.179 157.538 195.688C157.538 195.197 157.362 194.792 157.01 194.472C156.658 194.152 156.205 193.992 155.65 193.992C155.096 193.992 154.648 194.152 154.306 194.472C153.976 194.792 153.81 195.197 153.81 195.688C153.81 196.179 153.97 196.584 154.29 196.904C154.621 197.224 155.074 197.384 155.65 197.384ZM161.831 191.304C161.564 191.304 161.34 191.219 161.159 191.048C160.988 190.867 160.903 190.643 160.903 190.376C160.903 190.12 160.988 189.907 161.159 189.736C161.34 189.565 161.564 189.48 161.831 189.48C162.087 189.48 162.306 189.565 162.487 189.736C162.668 189.907 162.759 190.12 162.759 190.376C162.759 190.643 162.668 190.867 162.487 191.048C162.306 191.219 162.087 191.304 161.831 191.304ZM161.159 201V193.064H162.503V201H161.159ZM168.331 201.192C167.584 201.192 166.907 201.021 166.299 200.68C165.702 200.339 165.227 199.859 164.875 199.24C164.523 198.611 164.347 197.875 164.347 197.032C164.347 196.211 164.518 195.491 164.859 194.872C165.2 194.243 165.67 193.752 166.267 193.4C166.864 193.048 167.552 192.872 168.331 192.872C169.27 192.872 170.059 193.117 170.699 193.608C171.35 194.099 171.76 194.755 171.931 195.576H170.555C170.448 195.085 170.187 194.707 169.771 194.44C169.355 194.163 168.87 194.024 168.315 194.024C167.75 194.024 167.275 194.163 166.891 194.44C166.507 194.717 166.214 195.085 166.011 195.544C165.819 196.003 165.723 196.499 165.723 197.032C165.723 197.619 165.835 198.141 166.059 198.6C166.283 199.059 166.587 199.416 166.971 199.672C167.366 199.928 167.814 200.056 168.315 200.056C168.87 200.056 169.355 199.923 169.771 199.656C170.187 199.379 170.448 198.989 170.555 198.488H171.931C171.824 199.021 171.606 199.491 171.275 199.896C170.944 200.301 170.528 200.621 170.027 200.856C169.526 201.08 168.96 201.192 168.331 201.192ZM177.722 201V189.8H179.066V201H177.722ZM181.925 191.304C181.659 191.304 181.435 191.219 181.253 191.048C181.083 190.867 180.997 190.643 180.997 190.376C180.997 190.12 181.083 189.907 181.253 189.736C181.435 189.565 181.659 189.48 181.925 189.48C182.181 189.48 182.4 189.565 182.581 189.736C182.763 189.907 182.853 190.12 182.853 190.376C182.853 190.643 182.763 190.867 182.581 191.048C182.4 191.219 182.181 191.304 181.925 191.304ZM181.253 201V193.064H182.597V201H181.253ZM184.777 201V193.064H185.993L186.073 194.488C186.329 193.987 186.697 193.592 187.177 193.304C187.657 193.016 188.201 192.872 188.809 192.872C189.748 192.872 190.495 193.16 191.049 193.736C191.615 194.301 191.897 195.176 191.897 196.36V201H190.553V196.504C190.553 195.683 190.383 195.064 190.041 194.648C189.7 194.232 189.188 194.024 188.505 194.024C187.823 194.024 187.252 194.275 186.793 194.776C186.345 195.267 186.121 195.971 186.121 196.888V201H184.777ZM193.789 201V189.8H195.133V196.408L198.381 193.064H200.029L196.509 196.648L200.477 201H198.765L195.133 196.888V201H193.789ZM208.902 201C208.177 201 207.606 200.824 207.19 200.472C206.774 200.12 206.566 199.485 206.566 198.568V194.2H205.19V193.064H206.566V191.16H207.91V193.064H210.134V194.2H207.91V198.568C207.91 199.069 208.012 199.411 208.214 199.592C208.417 199.763 208.774 199.848 209.286 199.848H210.134V201H208.902ZM215.239 201.192C214.514 201.192 213.847 201.032 213.239 200.712C212.631 200.381 212.146 199.907 211.783 199.288C211.42 198.659 211.239 197.901 211.239 197.016C211.239 196.173 211.415 195.443 211.767 194.824C212.13 194.205 212.615 193.725 213.223 193.384C213.842 193.043 214.535 192.872 215.303 192.872C216.039 192.872 216.711 193.032 217.319 193.352C217.938 193.672 218.434 194.141 218.807 194.76C219.18 195.379 219.367 196.131 219.367 197.016C219.367 197.827 219.191 198.547 218.839 199.176C218.487 199.805 217.996 200.301 217.367 200.664C216.748 201.016 216.039 201.192 215.239 201.192ZM215.239 200.024C215.762 200.024 216.231 199.901 216.647 199.656C217.063 199.4 217.394 199.048 217.639 198.6C217.884 198.152 218.007 197.624 218.007 197.016C218.007 196.44 217.9 195.928 217.687 195.48C217.474 195.032 217.164 194.68 216.759 194.424C216.354 194.168 215.863 194.04 215.287 194.04C214.7 194.04 214.204 194.173 213.799 194.44C213.404 194.707 213.106 195.064 212.903 195.512C212.7 195.96 212.599 196.461 212.599 197.016C212.599 197.72 212.727 198.296 212.983 198.744C213.239 199.181 213.57 199.507 213.975 199.72C214.38 199.923 214.802 200.024 215.239 200.024ZM226.01 204.52L227.77 200.68L224.362 193.064H225.818L228.442 199.24L231.226 193.064H232.618L227.418 204.52H226.01ZM236.79 201.192C236.065 201.192 235.398 201.032 234.79 200.712C234.182 200.381 233.697 199.907 233.334 199.288C232.972 198.659 232.79 197.901 232.79 197.016C232.79 196.173 232.966 195.443 233.318 194.824C233.681 194.205 234.166 193.725 234.774 193.384C235.393 193.043 236.086 192.872 236.854 192.872C237.59 192.872 238.262 193.032 238.87 193.352C239.489 193.672 239.985 194.141 240.358 194.76C240.732 195.379 240.918 196.131 240.918 197.016C240.918 197.827 240.742 198.547 240.39 199.176C240.038 199.805 239.548 200.301 238.918 200.664C238.3 201.016 237.59 201.192 236.79 201.192ZM236.79 200.024C237.313 200.024 237.782 199.901 238.198 199.656C238.614 199.4 238.945 199.048 239.19 198.6C239.436 198.152 239.558 197.624 239.558 197.016C239.558 196.44 239.452 195.928 239.238 195.48C239.025 195.032 238.716 194.68 238.31 194.424C237.905 194.168 237.414 194.04 236.838 194.04C236.252 194.04 235.756 194.173 235.35 194.44C234.956 194.707 234.657 195.064 234.454 195.512C234.252 195.96 234.15 196.461 234.15 197.016C234.15 197.72 234.278 198.296 234.534 198.744C234.79 199.181 235.121 199.507 235.526 199.72C235.932 199.923 236.353 200.024 236.79 200.024ZM245.534 201.192C244.916 201.192 244.372 201.069 243.902 200.824C243.444 200.568 243.086 200.184 242.83 199.672C242.574 199.149 242.446 198.493 242.446 197.704V193.064H243.79V197.56C243.79 198.381 243.961 199 244.302 199.416C244.644 199.832 245.156 200.04 245.838 200.04C246.521 200.04 247.086 199.795 247.534 199.304C247.993 198.803 248.222 198.093 248.222 197.176V193.064H249.566V201H248.35L248.27 199.576C248.014 200.077 247.646 200.472 247.166 200.76C246.686 201.048 246.142 201.192 245.534 201.192ZM251.619 201V193.064H252.835L252.947 194.584C253.192 194.061 253.565 193.645 254.067 193.336C254.568 193.027 255.187 192.872 255.923 192.872V194.28H255.555C254.68 194.28 254.029 194.515 253.603 194.984C253.176 195.453 252.963 196.125 252.963 197V201H251.619ZM264.914 201.192C264.178 201.192 263.511 201.021 262.914 200.68C262.327 200.339 261.863 199.859 261.522 199.24C261.18 198.611 261.01 197.875 261.01 197.032C261.01 196.2 261.17 195.475 261.49 194.856C261.82 194.227 262.279 193.741 262.866 193.4C263.463 193.048 264.156 192.872 264.946 192.872C265.692 192.872 266.343 193.037 266.898 193.368C267.452 193.699 267.884 194.147 268.194 194.712C268.514 195.267 268.674 195.891 268.674 196.584C268.674 196.733 268.674 196.851 268.674 196.936C268.674 197.021 268.668 197.155 268.658 197.336H262.338C262.37 197.859 262.492 198.328 262.706 198.744C262.93 199.149 263.228 199.469 263.602 199.704C263.986 199.939 264.423 200.056 264.914 200.056C265.468 200.056 265.932 199.928 266.306 199.672C266.679 199.416 266.951 199.069 267.122 198.632H268.45C268.311 199.123 268.082 199.56 267.762 199.944C267.442 200.328 267.042 200.632 266.562 200.856C266.092 201.08 265.543 201.192 264.914 201.192ZM262.354 196.296H267.346C267.314 195.581 267.068 195.021 266.61 194.616C266.151 194.211 265.586 194.008 264.914 194.008C264.274 194.008 263.703 194.205 263.202 194.6C262.711 194.984 262.428 195.549 262.354 196.296ZM270.295 201V193.064H271.511L271.607 194.216C271.863 193.789 272.204 193.459 272.631 193.224C273.058 192.989 273.538 192.872 274.071 192.872C274.7 192.872 275.239 193 275.687 193.256C276.146 193.512 276.498 193.901 276.743 194.424C277.02 193.944 277.399 193.565 277.879 193.288C278.37 193.011 278.898 192.872 279.463 192.872C280.103 192.872 280.652 193 281.111 193.256C281.58 193.501 281.943 193.885 282.199 194.408C282.455 194.92 282.583 195.571 282.583 196.36V201H281.255V196.504C281.255 195.683 281.09 195.064 280.759 194.648C280.428 194.232 279.954 194.024 279.335 194.024C278.695 194.024 278.162 194.275 277.735 194.776C277.319 195.267 277.111 195.971 277.111 196.888V201H275.767V196.504C275.767 195.683 275.602 195.064 275.271 194.648C274.94 194.232 274.466 194.024 273.847 194.024C273.218 194.024 272.69 194.275 272.263 194.776C271.847 195.267 271.639 195.971 271.639 196.888V201H270.295ZM287.087 201.192C286.543 201.192 286.047 201.101 285.599 200.92C285.151 200.739 284.794 200.467 284.527 200.104C284.271 199.731 284.143 199.277 284.143 198.744C284.143 198.125 284.303 197.635 284.623 197.272C284.943 196.899 285.365 196.632 285.887 196.472C286.421 196.301 286.991 196.216 287.599 196.216H289.743C289.743 195.661 289.647 195.224 289.455 194.904C289.274 194.584 289.034 194.355 288.735 194.216C288.437 194.077 288.106 194.008 287.743 194.008C287.221 194.008 286.767 194.136 286.383 194.392C286.01 194.637 285.775 195.021 285.679 195.544H284.303C284.357 194.968 284.549 194.483 284.879 194.088C285.21 193.693 285.626 193.395 286.127 193.192C286.639 192.979 287.178 192.872 287.743 192.872C288.543 192.872 289.189 193.021 289.679 193.32C290.17 193.608 290.527 193.997 290.751 194.488C290.975 194.979 291.087 195.523 291.087 196.12V198.552C291.087 198.947 291.135 199.245 291.231 199.448C291.327 199.651 291.573 199.773 291.967 199.816V201C291.615 201 291.295 200.957 291.007 200.872C290.719 200.776 290.474 200.627 290.271 200.424C290.079 200.211 289.941 199.933 289.855 199.592C289.589 200.04 289.221 200.419 288.751 200.728C288.293 201.037 287.738 201.192 287.087 201.192ZM287.295 200.056C287.829 200.056 288.277 199.923 288.639 199.656C289.002 199.379 289.274 199.027 289.455 198.6C289.647 198.173 289.743 197.731 289.743 197.272V197.256H287.711C287.338 197.256 286.986 197.299 286.655 197.384C286.325 197.459 286.058 197.603 285.855 197.816C285.653 198.019 285.551 198.307 285.551 198.68C285.551 199.16 285.722 199.512 286.063 199.736C286.405 199.949 286.815 200.056 287.295 200.056ZM294.244 191.304C293.977 191.304 293.753 191.219 293.572 191.048C293.401 190.867 293.316 190.643 293.316 190.376C293.316 190.12 293.401 189.907 293.572 189.736C293.753 189.565 293.977 189.48 294.244 189.48C294.5 189.48 294.719 189.565 294.9 189.736C295.081 189.907 295.172 190.12 295.172 190.376C295.172 190.643 295.081 190.867 294.9 191.048C294.719 191.219 294.5 191.304 294.244 191.304ZM293.572 201V193.064H294.916V201H293.572ZM297.096 201V189.8H298.44V201H297.096ZM300.947 201.08C300.68 201.08 300.456 200.995 300.275 200.824C300.104 200.643 300.019 200.424 300.019 200.168C300.019 199.912 300.104 199.699 300.275 199.528C300.456 199.347 300.68 199.256 300.947 199.256C301.203 199.256 301.416 199.347 301.587 199.528C301.768 199.699 301.859 199.912 301.859 200.168C301.859 200.424 301.768 200.643 301.587 200.824C301.416 200.995 301.203 201.08 300.947 201.08ZM311.65 201.192C310.669 201.192 309.874 200.995 309.266 200.6C308.658 200.195 308.21 199.667 307.922 199.016C307.645 198.355 307.506 197.64 307.506 196.872V189.8H308.85V196.888C308.85 197.976 309.112 198.765 309.634 199.256C310.157 199.747 310.84 199.992 311.682 199.992C312.525 199.992 313.202 199.747 313.714 199.256C314.226 198.765 314.482 197.976 314.482 196.888V189.8H315.826V196.872C315.826 197.693 315.704 198.381 315.458 198.936C315.213 199.491 314.882 199.933 314.466 200.264C314.061 200.595 313.613 200.835 313.122 200.984C312.632 201.123 312.141 201.192 311.65 201.192ZM320.902 201.192C320.273 201.192 319.708 201.085 319.206 200.872C318.705 200.648 318.3 200.339 317.99 199.944C317.692 199.539 317.505 199.064 317.43 198.52H318.806C318.892 198.936 319.11 199.299 319.462 199.608C319.825 199.907 320.31 200.056 320.918 200.056C321.484 200.056 321.9 199.939 322.166 199.704C322.433 199.459 322.566 199.171 322.566 198.84C322.566 198.52 322.486 198.275 322.326 198.104C322.177 197.933 321.953 197.805 321.654 197.72C321.366 197.624 321.009 197.533 320.582 197.448C320.134 197.352 319.697 197.224 319.27 197.064C318.844 196.893 318.492 196.664 318.214 196.376C317.937 196.088 317.798 195.709 317.798 195.24C317.798 194.771 317.916 194.36 318.15 194.008C318.385 193.656 318.716 193.379 319.142 193.176C319.58 192.973 320.092 192.872 320.678 192.872C321.521 192.872 322.209 193.085 322.742 193.512C323.286 193.928 323.601 194.525 323.686 195.304H322.358C322.305 194.899 322.129 194.584 321.83 194.36C321.542 194.125 321.153 194.008 320.662 194.008C320.182 194.008 319.809 194.109 319.542 194.312C319.286 194.515 319.158 194.781 319.158 195.112C319.158 195.325 319.233 195.507 319.382 195.656C319.532 195.805 319.745 195.933 320.022 196.04C320.31 196.147 320.646 196.243 321.03 196.328C321.564 196.435 322.049 196.568 322.486 196.728C322.924 196.888 323.276 197.123 323.542 197.432C323.809 197.731 323.942 198.163 323.942 198.728C323.953 199.197 323.83 199.619 323.574 199.992C323.329 200.365 322.977 200.659 322.518 200.872C322.07 201.085 321.532 201.192 320.902 201.192ZM329.27 201.192C328.534 201.192 327.868 201.021 327.27 200.68C326.684 200.339 326.22 199.859 325.878 199.24C325.537 198.611 325.366 197.875 325.366 197.032C325.366 196.2 325.526 195.475 325.846 194.856C326.177 194.227 326.636 193.741 327.222 193.4C327.82 193.048 328.513 192.872 329.302 192.872C330.049 192.872 330.7 193.037 331.254 193.368C331.809 193.699 332.241 194.147 332.55 194.712C332.87 195.267 333.03 195.891 333.03 196.584C333.03 196.733 333.03 196.851 333.03 196.936C333.03 197.021 333.025 197.155 333.014 197.336H326.694C326.726 197.859 326.849 198.328 327.062 198.744C327.286 199.149 327.585 199.469 327.958 199.704C328.342 199.939 328.78 200.056 329.27 200.056C329.825 200.056 330.289 199.928 330.662 199.672C331.036 199.416 331.308 199.069 331.478 198.632H332.806C332.668 199.123 332.438 199.56 332.118 199.944C331.798 200.328 331.398 200.632 330.918 200.856C330.449 201.08 329.9 201.192 329.27 201.192ZM326.71 196.296H331.702C331.67 195.581 331.425 195.021 330.966 194.616C330.508 194.211 329.942 194.008 329.27 194.008C328.63 194.008 328.06 194.205 327.558 194.6C327.068 194.984 326.785 195.549 326.71 196.296ZM341.862 201C341.137 201 340.566 200.824 340.15 200.472C339.734 200.12 339.526 199.485 339.526 198.568V194.2H338.15V193.064H339.526V191.16H340.87V193.064H343.094V194.2H340.87V198.568C340.87 199.069 340.972 199.411 341.174 199.592C341.377 199.763 341.734 199.848 342.246 199.848H343.094V201H341.862ZM344.754 201V189.8H346.098V194.424C346.364 193.933 346.743 193.555 347.234 193.288C347.724 193.011 348.258 192.872 348.834 192.872C349.751 192.872 350.487 193.16 351.042 193.736C351.596 194.301 351.874 195.176 351.874 196.36V201H350.546V196.504C350.546 195.683 350.375 195.064 350.034 194.648C349.703 194.232 349.207 194.024 348.546 194.024C347.852 194.024 347.271 194.275 346.802 194.776C346.332 195.267 346.098 195.971 346.098 196.888V201H344.754ZM356.39 201.192C355.846 201.192 355.35 201.101 354.902 200.92C354.454 200.739 354.097 200.467 353.83 200.104C353.574 199.731 353.446 199.277 353.446 198.744C353.446 198.125 353.606 197.635 353.926 197.272C354.246 196.899 354.667 196.632 355.19 196.472C355.723 196.301 356.294 196.216 356.902 196.216H359.046C359.046 195.661 358.95 195.224 358.758 194.904C358.577 194.584 358.337 194.355 358.038 194.216C357.739 194.077 357.409 194.008 357.046 194.008C356.523 194.008 356.07 194.136 355.686 194.392C355.313 194.637 355.078 195.021 354.982 195.544H353.606C353.659 194.968 353.851 194.483 354.182 194.088C354.513 193.693 354.929 193.395 355.43 193.192C355.942 192.979 356.481 192.872 357.046 192.872C357.846 192.872 358.491 193.021 358.982 193.32C359.473 193.608 359.83 193.997 360.054 194.488C360.278 194.979 360.39 195.523 360.39 196.12V198.552C360.39 198.947 360.438 199.245 360.534 199.448C360.63 199.651 360.875 199.773 361.27 199.816V201C360.918 201 360.598 200.957 360.31 200.872C360.022 200.776 359.777 200.627 359.574 200.424C359.382 200.211 359.243 199.933 359.158 199.592C358.891 200.04 358.523 200.419 358.054 200.728C357.595 201.037 357.041 201.192 356.39 201.192ZM356.598 200.056C357.131 200.056 357.579 199.923 357.942 199.656C358.305 199.379 358.577 199.027 358.758 198.6C358.95 198.173 359.046 197.731 359.046 197.272V197.256H357.014C356.641 197.256 356.289 197.299 355.958 197.384C355.627 197.459 355.361 197.603 355.158 197.816C354.955 198.019 354.854 198.307 354.854 198.68C354.854 199.16 355.025 199.512 355.366 199.736C355.707 199.949 356.118 200.056 356.598 200.056ZM365.648 201C364.923 201 364.352 200.824 363.936 200.472C363.52 200.12 363.312 199.485 363.312 198.568V194.2H361.936V193.064H363.312V191.16H364.656V193.064H366.88V194.2H364.656V198.568C364.656 199.069 364.757 199.411 364.96 199.592C365.163 199.763 365.52 199.848 366.032 199.848H366.88V201H365.648ZM118.229 221V209.8H119.573V221H118.229ZM122.432 211.304C122.165 211.304 121.941 211.219 121.76 211.048C121.589 210.867 121.504 210.643 121.504 210.376C121.504 210.12 121.589 209.907 121.76 209.736C121.941 209.565 122.165 209.48 122.432 209.48C122.688 209.48 122.907 209.565 123.088 209.736C123.269 209.907 123.36 210.12 123.36 210.376C123.36 210.643 123.269 210.867 123.088 211.048C122.907 211.219 122.688 211.304 122.432 211.304ZM121.76 221V213.064H123.104V221H121.76ZM125.284 221V213.064H126.5L126.58 214.488C126.836 213.987 127.204 213.592 127.684 213.304C128.164 213.016 128.708 212.872 129.316 212.872C130.255 212.872 131.001 213.16 131.556 213.736C132.121 214.301 132.404 215.176 132.404 216.36V221H131.06V216.504C131.06 215.683 130.889 215.064 130.548 214.648C130.207 214.232 129.695 214.024 129.012 214.024C128.329 214.024 127.759 214.275 127.3 214.776C126.852 215.267 126.628 215.971 126.628 216.888V221H125.284ZM134.296 221V209.8H135.64V216.408L138.888 213.064H140.536L137.016 216.648L140.984 221H139.272L135.64 216.888V221H134.296ZM149.409 221C148.683 221 148.113 220.824 147.697 220.472C147.281 220.12 147.073 219.485 147.073 218.568V214.2H145.697V213.064H147.073V211.16H148.417V213.064H150.641V214.2H148.417V218.568C148.417 219.069 148.518 219.411 148.721 219.592C148.923 219.763 149.281 219.848 149.793 219.848H150.641V221H149.409ZM155.746 221.192C155.02 221.192 154.354 221.032 153.746 220.712C153.138 220.381 152.652 219.907 152.29 219.288C151.927 218.659 151.746 217.901 151.746 217.016C151.746 216.173 151.922 215.443 152.274 214.824C152.636 214.205 153.122 213.725 153.73 213.384C154.348 213.043 155.042 212.872 155.81 212.872C156.546 212.872 157.218 213.032 157.826 213.352C158.444 213.672 158.94 214.141 159.314 214.76C159.687 215.379 159.874 216.131 159.874 217.016C159.874 217.827 159.698 218.547 159.346 219.176C158.994 219.805 158.503 220.301 157.874 220.664C157.255 221.016 156.546 221.192 155.746 221.192ZM155.746 220.024C156.268 220.024 156.738 219.901 157.154 219.656C157.57 219.4 157.9 219.048 158.146 218.6C158.391 218.152 158.514 217.624 158.514 217.016C158.514 216.44 158.407 215.928 158.194 215.48C157.98 215.032 157.671 214.68 157.266 214.424C156.86 214.168 156.37 214.04 155.794 214.04C155.207 214.04 154.711 214.173 154.306 214.44C153.911 214.707 153.612 215.064 153.41 215.512C153.207 215.96 153.106 216.461 153.106 217.016C153.106 217.72 153.234 218.296 153.49 218.744C153.746 219.181 154.076 219.507 154.482 219.72C154.887 219.923 155.308 220.024 155.746 220.024ZM166.084 221V214.2H164.884V213.064H166.084V212.008C166.084 211.24 166.276 210.68 166.66 210.328C167.044 209.976 167.604 209.8 168.34 209.8H169.14V210.952H168.548C168.143 210.952 167.855 211.037 167.684 211.208C167.513 211.368 167.428 211.645 167.428 212.04V213.064H169.38V214.2H167.428V221H166.084ZM171.636 211.304C171.37 211.304 171.146 211.219 170.964 211.048C170.794 210.867 170.708 210.643 170.708 210.376C170.708 210.12 170.794 209.907 170.964 209.736C171.146 209.565 171.37 209.48 171.636 209.48C171.892 209.48 172.111 209.565 172.292 209.736C172.474 209.907 172.564 210.12 172.564 210.376C172.564 210.643 172.474 210.867 172.292 211.048C172.111 211.219 171.892 211.304 171.636 211.304ZM170.964 221V213.064H172.308V221H170.964ZM174.488 221V213.064H175.704L175.784 214.488C176.04 213.987 176.408 213.592 176.888 213.304C177.368 213.016 177.912 212.872 178.52 212.872C179.459 212.872 180.206 213.16 180.76 213.736C181.326 214.301 181.608 215.176 181.608 216.36V221H180.264V216.504C180.264 215.683 180.094 215.064 179.752 214.648C179.411 214.232 178.899 214.024 178.216 214.024C177.534 214.024 176.963 214.275 176.504 214.776C176.056 215.267 175.832 215.971 175.832 216.888V221H174.488ZM184.316 211.304C184.05 211.304 183.826 211.219 183.644 211.048C183.474 210.867 183.388 210.643 183.388 210.376C183.388 210.12 183.474 209.907 183.644 209.736C183.826 209.565 184.05 209.48 184.316 209.48C184.572 209.48 184.791 209.565 184.972 209.736C185.154 209.907 185.244 210.12 185.244 210.376C185.244 210.643 185.154 210.867 184.972 211.048C184.791 211.219 184.572 211.304 184.316 211.304ZM183.644 221V213.064H184.988V221H183.644ZM190.208 221.192C189.579 221.192 189.014 221.085 188.512 220.872C188.011 220.648 187.606 220.339 187.296 219.944C186.998 219.539 186.811 219.064 186.736 218.52H188.112C188.198 218.936 188.416 219.299 188.768 219.608C189.131 219.907 189.616 220.056 190.224 220.056C190.79 220.056 191.206 219.939 191.472 219.704C191.739 219.459 191.872 219.171 191.872 218.84C191.872 218.52 191.792 218.275 191.632 218.104C191.483 217.933 191.259 217.805 190.96 217.72C190.672 217.624 190.315 217.533 189.888 217.448C189.44 217.352 189.003 217.224 188.576 217.064C188.15 216.893 187.798 216.664 187.52 216.376C187.243 216.088 187.104 215.709 187.104 215.24C187.104 214.771 187.222 214.36 187.456 214.008C187.691 213.656 188.022 213.379 188.448 213.176C188.886 212.973 189.398 212.872 189.984 212.872C190.827 212.872 191.515 213.085 192.048 213.512C192.592 213.928 192.907 214.525 192.992 215.304H191.664C191.611 214.899 191.435 214.584 191.136 214.36C190.848 214.125 190.459 214.008 189.968 214.008C189.488 214.008 189.115 214.109 188.848 214.312C188.592 214.515 188.464 214.781 188.464 215.112C188.464 215.325 188.539 215.507 188.688 215.656C188.838 215.805 189.051 215.933 189.328 216.04C189.616 216.147 189.952 216.243 190.336 216.328C190.87 216.435 191.355 216.568 191.792 216.728C192.23 216.888 192.582 217.123 192.848 217.432C193.115 217.731 193.248 218.163 193.248 218.728C193.259 219.197 193.136 219.619 192.88 219.992C192.635 220.365 192.283 220.659 191.824 220.872C191.376 221.085 190.838 221.192 190.208 221.192ZM195.008 221V209.8H196.352V214.424C196.619 213.933 196.998 213.555 197.488 213.288C197.979 213.011 198.512 212.872 199.088 212.872C200.006 212.872 200.742 213.16 201.296 213.736C201.851 214.301 202.128 215.176 202.128 216.36V221H200.8V216.504C200.8 215.683 200.63 215.064 200.288 214.648C199.958 214.232 199.462 214.024 198.8 214.024C198.107 214.024 197.526 214.275 197.056 214.776C196.587 215.267 196.352 215.971 196.352 216.888V221H195.008ZM211.119 221.192C210.49 221.192 209.924 221.085 209.423 220.872C208.922 220.648 208.516 220.339 208.207 219.944C207.908 219.539 207.722 219.064 207.647 218.52H209.023C209.108 218.936 209.327 219.299 209.679 219.608C210.042 219.907 210.527 220.056 211.135 220.056C211.7 220.056 212.116 219.939 212.383 219.704C212.65 219.459 212.783 219.171 212.783 218.84C212.783 218.52 212.703 218.275 212.543 218.104C212.394 217.933 212.17 217.805 211.871 217.72C211.583 217.624 211.226 217.533 210.799 217.448C210.351 217.352 209.914 217.224 209.487 217.064C209.06 216.893 208.708 216.664 208.431 216.376C208.154 216.088 208.015 215.709 208.015 215.24C208.015 214.771 208.132 214.36 208.367 214.008C208.602 213.656 208.932 213.379 209.359 213.176C209.796 212.973 210.308 212.872 210.895 212.872C211.738 212.872 212.426 213.085 212.959 213.512C213.503 213.928 213.818 214.525 213.903 215.304H212.575C212.522 214.899 212.346 214.584 212.047 214.36C211.759 214.125 211.37 214.008 210.879 214.008C210.399 214.008 210.026 214.109 209.759 214.312C209.503 214.515 209.375 214.781 209.375 215.112C209.375 215.325 209.45 215.507 209.599 215.656C209.748 215.805 209.962 215.933 210.239 216.04C210.527 216.147 210.863 216.243 211.247 216.328C211.78 216.435 212.266 216.568 212.703 216.728C213.14 216.888 213.492 217.123 213.759 217.432C214.026 217.731 214.159 218.163 214.159 218.728C214.17 219.197 214.047 219.619 213.791 219.992C213.546 220.365 213.194 220.659 212.735 220.872C212.287 221.085 211.748 221.192 211.119 221.192ZM216.735 211.304C216.468 211.304 216.244 211.219 216.063 211.048C215.892 210.867 215.807 210.643 215.807 210.376C215.807 210.12 215.892 209.907 216.063 209.736C216.244 209.565 216.468 209.48 216.735 209.48C216.991 209.48 217.21 209.565 217.391 209.736C217.572 209.907 217.663 210.12 217.663 210.376C217.663 210.643 217.572 210.867 217.391 211.048C217.21 211.219 216.991 211.304 216.735 211.304ZM216.063 221V213.064H217.407V221H216.063ZM222.739 224.712C222.11 224.712 221.507 224.632 220.931 224.472C220.355 224.312 219.886 224.04 219.523 223.656C219.171 223.283 218.995 222.781 218.995 222.152C218.995 221.715 219.096 221.352 219.299 221.064C219.502 220.776 219.768 220.557 220.099 220.408C219.843 220.259 219.635 220.072 219.475 219.848C219.315 219.624 219.235 219.368 219.235 219.08C219.235 218.44 219.523 217.923 220.099 217.528C219.886 217.283 219.715 217.011 219.587 216.712C219.47 216.403 219.411 216.061 219.411 215.688C219.411 215.101 219.544 214.6 219.811 214.184C220.088 213.757 220.462 213.432 220.931 213.208C221.411 212.984 221.955 212.872 222.563 212.872C223.011 212.872 223.432 212.936 223.827 213.064H226.531V214.2H225.299C225.438 214.413 225.539 214.648 225.603 214.904C225.678 215.149 225.715 215.411 225.715 215.688C225.715 216.296 225.571 216.808 225.283 217.224C225.006 217.64 224.627 217.96 224.147 218.184C223.678 218.397 223.15 218.504 222.563 218.504C222.264 218.504 221.992 218.472 221.747 218.408C221.502 218.344 221.256 218.253 221.011 218.136C220.734 218.275 220.595 218.488 220.595 218.776C220.595 219.309 221.043 219.576 221.939 219.576H223.267C223.864 219.576 224.392 219.656 224.851 219.816C225.31 219.965 225.667 220.216 225.923 220.568C226.19 220.909 226.323 221.379 226.323 221.976C226.323 222.584 226.152 223.091 225.811 223.496C225.47 223.901 225.027 224.205 224.483 224.408C223.939 224.611 223.358 224.712 222.739 224.712ZM222.707 223.592C223.347 223.592 223.891 223.469 224.339 223.224C224.787 222.989 225.011 222.627 225.011 222.136C225.011 221.219 224.456 220.76 223.347 220.76H221.987C221.464 220.76 221.054 220.872 220.755 221.096C220.456 221.331 220.307 221.677 220.307 222.136C220.307 222.488 220.419 222.771 220.643 222.984C220.867 223.197 221.16 223.352 221.523 223.448C221.886 223.544 222.28 223.592 222.707 223.592ZM222.531 217.384C223.086 217.384 223.539 217.224 223.891 216.904C224.243 216.584 224.419 216.179 224.419 215.688C224.419 215.197 224.243 214.792 223.891 214.472C223.539 214.152 223.086 213.992 222.531 213.992C221.976 213.992 221.528 214.152 221.187 214.472C220.856 214.792 220.691 215.197 220.691 215.688C220.691 216.179 220.851 216.584 221.171 216.904C221.502 217.224 221.955 217.384 222.531 217.384ZM227.896 221V213.064H229.112L229.192 214.488C229.448 213.987 229.816 213.592 230.296 213.304C230.776 213.016 231.32 212.872 231.928 212.872C232.867 212.872 233.613 213.16 234.168 213.736C234.733 214.301 235.016 215.176 235.016 216.36V221H233.672V216.504C233.672 215.683 233.501 215.064 233.16 214.648C232.819 214.232 232.307 214.024 231.624 214.024C230.941 214.024 230.371 214.275 229.912 214.776C229.464 215.267 229.24 215.971 229.24 216.888V221H227.896ZM237.724 211.304C237.457 211.304 237.233 211.219 237.052 211.048C236.881 210.867 236.796 210.643 236.796 210.376C236.796 210.12 236.881 209.907 237.052 209.736C237.233 209.565 237.457 209.48 237.724 209.48C237.98 209.48 238.198 209.565 238.38 209.736C238.561 209.907 238.652 210.12 238.652 210.376C238.652 210.643 238.561 210.867 238.38 211.048C238.198 211.219 237.98 211.304 237.724 211.304ZM237.052 221V213.064H238.396V221H237.052ZM240.576 221V213.064H241.792L241.872 214.488C242.128 213.987 242.496 213.592 242.976 213.304C243.456 213.016 244 212.872 244.608 212.872C245.547 212.872 246.293 213.16 246.848 213.736C247.413 214.301 247.696 215.176 247.696 216.36V221H246.352V216.504C246.352 215.683 246.181 215.064 245.84 214.648C245.499 214.232 244.987 214.024 244.304 214.024C243.621 214.024 243.051 214.275 242.592 214.776C242.144 215.267 241.92 215.971 241.92 216.888V221H240.576ZM252.74 224.712C252.11 224.712 251.508 224.632 250.932 224.472C250.356 224.312 249.886 224.04 249.524 223.656C249.172 223.283 248.996 222.781 248.996 222.152C248.996 221.715 249.097 221.352 249.3 221.064C249.502 220.776 249.769 220.557 250.1 220.408C249.844 220.259 249.636 220.072 249.476 219.848C249.316 219.624 249.236 219.368 249.236 219.08C249.236 218.44 249.524 217.923 250.1 217.528C249.886 217.283 249.716 217.011 249.588 216.712C249.47 216.403 249.412 216.061 249.412 215.688C249.412 215.101 249.545 214.6 249.812 214.184C250.089 213.757 250.462 213.432 250.932 213.208C251.412 212.984 251.956 212.872 252.564 212.872C253.012 212.872 253.433 212.936 253.828 213.064H256.532V214.2H255.3C255.438 214.413 255.54 214.648 255.604 214.904C255.678 215.149 255.716 215.411 255.716 215.688C255.716 216.296 255.572 216.808 255.284 217.224C255.006 217.64 254.628 217.96 254.148 218.184C253.678 218.397 253.15 218.504 252.564 218.504C252.265 218.504 251.993 218.472 251.748 218.408C251.502 218.344 251.257 218.253 251.012 218.136C250.734 218.275 250.596 218.488 250.596 218.776C250.596 219.309 251.044 219.576 251.94 219.576H253.268C253.865 219.576 254.393 219.656 254.852 219.816C255.31 219.965 255.668 220.216 255.924 220.568C256.19 220.909 256.324 221.379 256.324 221.976C256.324 222.584 256.153 223.091 255.812 223.496C255.47 223.901 255.028 224.205 254.484 224.408C253.94 224.611 253.358 224.712 252.74 224.712ZM252.708 223.592C253.348 223.592 253.892 223.469 254.34 223.224C254.788 222.989 255.012 222.627 255.012 222.136C255.012 221.219 254.457 220.76 253.348 220.76H251.988C251.465 220.76 251.054 220.872 250.756 221.096C250.457 221.331 250.308 221.677 250.308 222.136C250.308 222.488 250.42 222.771 250.644 222.984C250.868 223.197 251.161 223.352 251.524 223.448C251.886 223.544 252.281 223.592 252.708 223.592ZM252.532 217.384C253.086 217.384 253.54 217.224 253.892 216.904C254.244 216.584 254.42 216.179 254.42 215.688C254.42 215.197 254.244 214.792 253.892 214.472C253.54 214.152 253.086 213.992 252.532 213.992C251.977 213.992 251.529 214.152 251.188 214.472C250.857 214.792 250.692 215.197 250.692 215.688C250.692 216.179 250.852 216.584 251.172 216.904C251.502 217.224 251.956 217.384 252.532 217.384ZM264.883 221.192C264.264 221.192 263.72 221.069 263.251 220.824C262.792 220.568 262.435 220.184 262.179 219.672C261.923 219.149 261.795 218.493 261.795 217.704V213.064H263.139V217.56C263.139 218.381 263.31 219 263.651 219.416C263.992 219.832 264.504 220.04 265.187 220.04C265.87 220.04 266.435 219.795 266.883 219.304C267.342 218.803 267.571 218.093 267.571 217.176V213.064H268.915V221H267.699L267.619 219.576C267.363 220.077 266.995 220.472 266.515 220.76C266.035 221.048 265.491 221.192 264.883 221.192ZM270.967 224.52V213.064H272.183L272.311 214.376C272.567 213.992 272.93 213.645 273.399 213.336C273.879 213.027 274.487 212.872 275.223 212.872C276.023 212.872 276.716 213.053 277.303 213.416C277.89 213.779 278.343 214.275 278.663 214.904C278.983 215.533 279.143 216.248 279.143 217.048C279.143 217.837 278.983 218.547 278.663 219.176C278.343 219.805 277.884 220.301 277.287 220.664C276.7 221.016 276.007 221.192 275.207 221.192C274.556 221.192 273.975 221.059 273.463 220.792C272.962 220.525 272.578 220.152 272.311 219.672V224.52H270.967ZM275.063 220.024C275.607 220.024 276.082 219.901 276.487 219.656C276.892 219.4 277.207 219.048 277.431 218.6C277.666 218.141 277.783 217.619 277.783 217.032C277.783 216.467 277.671 215.96 277.447 215.512C277.234 215.053 276.924 214.696 276.519 214.44C276.114 214.173 275.628 214.04 275.063 214.04C274.53 214.04 274.055 214.168 273.639 214.424C273.234 214.669 272.914 215.016 272.679 215.464C272.455 215.912 272.343 216.435 272.343 217.032C272.343 217.587 272.455 218.093 272.679 218.552C272.903 219 273.218 219.357 273.623 219.624C274.028 219.891 274.508 220.024 275.063 220.024ZM281.318 221.08C281.051 221.08 280.827 220.995 280.646 220.824C280.475 220.643 280.39 220.424 280.39 220.168C280.39 219.912 280.475 219.699 280.646 219.528C280.827 219.347 281.051 219.256 281.318 219.256C281.574 219.256 281.787 219.347 281.958 219.528C282.139 219.699 282.23 219.912 282.23 220.168C282.23 220.424 282.139 220.643 281.958 220.824C281.787 220.995 281.574 221.08 281.318 221.08Z" fill="#525252"/>
<mask id="path-18-outside-5_7893_30144" maskUnits="userSpaceOnUse" x="0" y="250" width="400" height="67" fill="black">
<rect fill="white" y="250" width="400" height="67"/>
<path d="M0 250H400V316H0V250Z"/>
</mask>
<path d="M400 316V315H0V316V317H400V316Z" fill="#EBEBEB" mask="url(#path-18-outside-5_7893_30144)"/>
<path d="M93.92 288L97.532 278.2H98.778L102.376 288H101.13L100.234 285.48H96.062L95.152 288H93.92ZM96.412 284.528H99.884L98.148 279.684L96.412 284.528ZM103.623 288V278.2H104.799V288H103.623ZM106.586 288V281.056H107.65L107.748 282.386C107.963 281.929 108.29 281.565 108.728 281.294C109.167 281.023 109.708 280.888 110.352 280.888V282.12H110.03C109.265 282.12 108.696 282.325 108.322 282.736C107.949 283.147 107.762 283.735 107.762 284.5V288H106.586ZM114.395 288.168C113.751 288.168 113.167 288.019 112.645 287.72C112.131 287.421 111.725 287.001 111.427 286.46C111.128 285.909 110.979 285.265 110.979 284.528C110.979 283.8 111.119 283.165 111.399 282.624C111.688 282.073 112.089 281.649 112.603 281.35C113.125 281.042 113.732 280.888 114.423 280.888C115.076 280.888 115.645 281.033 116.131 281.322C116.616 281.611 116.994 282.003 117.265 282.498C117.545 282.983 117.685 283.529 117.685 284.136C117.685 284.267 117.685 284.369 117.685 284.444C117.685 284.519 117.68 284.635 117.671 284.794H112.141C112.169 285.251 112.276 285.662 112.463 286.026C112.659 286.381 112.92 286.661 113.247 286.866C113.583 287.071 113.965 287.174 114.395 287.174C114.88 287.174 115.286 287.062 115.613 286.838C115.939 286.614 116.177 286.311 116.327 285.928H117.489C117.367 286.357 117.167 286.74 116.887 287.076C116.607 287.412 116.257 287.678 115.837 287.874C115.426 288.07 114.945 288.168 114.395 288.168ZM112.155 283.884H116.523C116.495 283.259 116.28 282.769 115.879 282.414C115.477 282.059 114.983 281.882 114.395 281.882C113.835 281.882 113.335 282.055 112.897 282.4C112.467 282.736 112.22 283.231 112.155 283.884ZM121.413 288.168C120.937 288.168 120.503 288.089 120.111 287.93C119.719 287.771 119.407 287.533 119.173 287.216C118.949 286.889 118.837 286.493 118.837 286.026C118.837 285.485 118.977 285.055 119.257 284.738C119.537 284.411 119.906 284.178 120.363 284.038C120.83 283.889 121.329 283.814 121.861 283.814H123.737C123.737 283.329 123.653 282.946 123.485 282.666C123.327 282.386 123.117 282.185 122.855 282.064C122.594 281.943 122.305 281.882 121.987 281.882C121.53 281.882 121.133 281.994 120.797 282.218C120.471 282.433 120.265 282.769 120.181 283.226H118.977C119.024 282.722 119.192 282.297 119.481 281.952C119.771 281.607 120.135 281.345 120.573 281.168C121.021 280.981 121.493 280.888 121.987 280.888C122.687 280.888 123.252 281.019 123.681 281.28C124.111 281.532 124.423 281.873 124.619 282.302C124.815 282.731 124.913 283.207 124.913 283.73V285.858C124.913 286.203 124.955 286.465 125.039 286.642C125.123 286.819 125.338 286.927 125.683 286.964V288C125.375 288 125.095 287.963 124.843 287.888C124.591 287.804 124.377 287.673 124.199 287.496C124.031 287.309 123.91 287.067 123.835 286.768C123.602 287.16 123.28 287.491 122.869 287.762C122.468 288.033 121.983 288.168 121.413 288.168ZM121.595 287.174C122.062 287.174 122.454 287.057 122.771 286.824C123.089 286.581 123.327 286.273 123.485 285.9C123.653 285.527 123.737 285.139 123.737 284.738V284.724H121.959C121.633 284.724 121.325 284.761 121.035 284.836C120.746 284.901 120.513 285.027 120.335 285.214C120.158 285.391 120.069 285.643 120.069 285.97C120.069 286.39 120.219 286.698 120.517 286.894C120.816 287.081 121.175 287.174 121.595 287.174ZM129.947 288.168C129.238 288.168 128.627 288.005 128.113 287.678C127.6 287.351 127.203 286.913 126.923 286.362C126.643 285.811 126.503 285.195 126.503 284.514C126.503 283.842 126.639 283.231 126.909 282.68C127.189 282.129 127.586 281.695 128.099 281.378C128.613 281.051 129.233 280.888 129.961 280.888C130.531 280.888 131.035 281.005 131.473 281.238C131.912 281.471 132.253 281.798 132.495 282.218V278.2H133.671V288H132.607L132.495 286.852C132.271 287.188 131.949 287.491 131.529 287.762C131.109 288.033 130.582 288.168 129.947 288.168ZM130.073 287.146C130.587 287.146 131.021 287.029 131.375 286.796C131.73 286.553 131.996 286.236 132.173 285.844C132.36 285.443 132.453 285.004 132.453 284.528C132.453 284.024 132.36 283.576 132.173 283.184C131.987 282.792 131.716 282.484 131.361 282.26C131.007 282.027 130.577 281.91 130.073 281.91C129.625 281.91 129.224 282.017 128.869 282.232C128.515 282.447 128.23 282.75 128.015 283.142C127.81 283.525 127.707 283.987 127.707 284.528C127.707 285.069 127.815 285.536 128.029 285.928C128.244 286.32 128.529 286.623 128.883 286.838C129.247 287.043 129.644 287.146 130.073 287.146ZM136.204 291.08L137.744 287.72L134.762 281.056H136.036L138.332 286.46L140.768 281.056H141.986L137.436 291.08H136.204ZM146.653 288V278.2H147.829V282.246C148.062 281.817 148.393 281.485 148.823 281.252C149.252 281.009 149.719 280.888 150.223 280.888C151.025 280.888 151.669 281.14 152.155 281.644C152.64 282.139 152.883 282.904 152.883 283.94V288H151.721V284.066C151.721 283.347 151.571 282.806 151.273 282.442C150.983 282.078 150.549 281.896 149.971 281.896C149.364 281.896 148.855 282.115 148.445 282.554C148.034 282.983 147.829 283.599 147.829 284.402V288H146.653ZM156.834 288.168C156.358 288.168 155.924 288.089 155.532 287.93C155.14 287.771 154.828 287.533 154.594 287.216C154.37 286.889 154.258 286.493 154.258 286.026C154.258 285.485 154.398 285.055 154.678 284.738C154.958 284.411 155.327 284.178 155.784 284.038C156.251 283.889 156.75 283.814 157.282 283.814H159.158C159.158 283.329 159.074 282.946 158.906 282.666C158.748 282.386 158.538 282.185 158.276 282.064C158.015 281.943 157.726 281.882 157.408 281.882C156.951 281.882 156.554 281.994 156.218 282.218C155.892 282.433 155.686 282.769 155.602 283.226H154.398C154.445 282.722 154.613 282.297 154.902 281.952C155.192 281.607 155.556 281.345 155.994 281.168C156.442 280.981 156.914 280.888 157.408 280.888C158.108 280.888 158.673 281.019 159.102 281.28C159.532 281.532 159.844 281.873 160.04 282.302C160.236 282.731 160.334 283.207 160.334 283.73V285.858C160.334 286.203 160.376 286.465 160.46 286.642C160.544 286.819 160.759 286.927 161.104 286.964V288C160.796 288 160.516 287.963 160.264 287.888C160.012 287.804 159.798 287.673 159.62 287.496C159.452 287.309 159.331 287.067 159.256 286.768C159.023 287.16 158.701 287.491 158.29 287.762C157.889 288.033 157.404 288.168 156.834 288.168ZM157.016 287.174C157.483 287.174 157.875 287.057 158.192 286.824C158.51 286.581 158.748 286.273 158.906 285.9C159.074 285.527 159.158 285.139 159.158 284.738V284.724H157.38C157.054 284.724 156.746 284.761 156.456 284.836C156.167 284.901 155.934 285.027 155.756 285.214C155.579 285.391 155.49 285.643 155.49 285.97C155.49 286.39 155.64 286.698 155.938 286.894C156.237 287.081 156.596 287.174 157.016 287.174ZM164.111 288L161.479 281.056H162.711L164.797 286.866L166.897 281.056H168.101L165.469 288H164.111ZM172.036 288.168C171.392 288.168 170.809 288.019 170.286 287.72C169.773 287.421 169.367 287.001 169.068 286.46C168.77 285.909 168.62 285.265 168.62 284.528C168.62 283.8 168.76 283.165 169.04 282.624C169.33 282.073 169.731 281.649 170.244 281.35C170.767 281.042 171.374 280.888 172.064 280.888C172.718 280.888 173.287 281.033 173.772 281.322C174.258 281.611 174.636 282.003 174.906 282.498C175.186 282.983 175.326 283.529 175.326 284.136C175.326 284.267 175.326 284.369 175.326 284.444C175.326 284.519 175.322 284.635 175.312 284.794H169.782C169.81 285.251 169.918 285.662 170.104 286.026C170.3 286.381 170.562 286.661 170.888 286.866C171.224 287.071 171.607 287.174 172.036 287.174C172.522 287.174 172.928 287.062 173.254 286.838C173.581 286.614 173.819 286.311 173.968 285.928H175.13C175.009 286.357 174.808 286.74 174.528 287.076C174.248 287.412 173.898 287.678 173.478 287.874C173.068 288.07 172.587 288.168 172.036 288.168ZM169.796 283.884H174.164C174.136 283.259 173.922 282.769 173.52 282.414C173.119 282.059 172.624 281.882 172.036 281.882C171.476 281.882 170.977 282.055 170.538 282.4C170.109 282.736 169.862 283.231 169.796 283.884ZM182.62 288.168C182.144 288.168 181.71 288.089 181.318 287.93C180.926 287.771 180.613 287.533 180.38 287.216C180.156 286.889 180.044 286.493 180.044 286.026C180.044 285.485 180.184 285.055 180.464 284.738C180.744 284.411 181.113 284.178 181.57 284.038C182.037 283.889 182.536 283.814 183.068 283.814H184.944C184.944 283.329 184.86 282.946 184.692 282.666C184.533 282.386 184.323 282.185 184.062 282.064C183.801 281.943 183.511 281.882 183.194 281.882C182.737 281.882 182.34 281.994 182.004 282.218C181.677 282.433 181.472 282.769 181.388 283.226H180.184C180.231 282.722 180.399 282.297 180.688 281.952C180.977 281.607 181.341 281.345 181.78 281.168C182.228 280.981 182.699 280.888 183.194 280.888C183.894 280.888 184.459 281.019 184.888 281.28C185.317 281.532 185.63 281.873 185.826 282.302C186.022 282.731 186.12 283.207 186.12 283.73V285.858C186.12 286.203 186.162 286.465 186.246 286.642C186.33 286.819 186.545 286.927 186.89 286.964V288C186.582 288 186.302 287.963 186.05 287.888C185.798 287.804 185.583 287.673 185.406 287.496C185.238 287.309 185.117 287.067 185.042 286.768C184.809 287.16 184.487 287.491 184.076 287.762C183.675 288.033 183.189 288.168 182.62 288.168ZM182.802 287.174C183.269 287.174 183.661 287.057 183.978 286.824C184.295 286.581 184.533 286.273 184.692 285.9C184.86 285.527 184.944 285.139 184.944 284.738V284.724H183.166C182.839 284.724 182.531 284.761 182.242 284.836C181.953 284.901 181.719 285.027 181.542 285.214C181.365 285.391 181.276 285.643 181.276 285.97C181.276 286.39 181.425 286.698 181.724 286.894C182.023 287.081 182.382 287.174 182.802 287.174ZM188.168 288V281.056H189.232L189.302 282.302C189.526 281.863 189.848 281.518 190.268 281.266C190.688 281.014 191.164 280.888 191.696 280.888C192.517 280.888 193.171 281.14 193.656 281.644C194.151 282.139 194.398 282.904 194.398 283.94V288H193.222V284.066C193.222 283.347 193.073 282.806 192.774 282.442C192.475 282.078 192.027 281.896 191.43 281.896C190.833 281.896 190.333 282.115 189.932 282.554C189.54 282.983 189.344 283.599 189.344 284.402V288H188.168ZM201.929 288.168C201.453 288.168 201.019 288.089 200.627 287.93C200.235 287.771 199.922 287.533 199.689 287.216C199.465 286.889 199.353 286.493 199.353 286.026C199.353 285.485 199.493 285.055 199.773 284.738C200.053 284.411 200.421 284.178 200.879 284.038C201.345 283.889 201.845 283.814 202.377 283.814H204.253C204.253 283.329 204.169 282.946 204.001 282.666C203.842 282.386 203.632 282.185 203.371 282.064C203.109 281.943 202.82 281.882 202.503 281.882C202.045 281.882 201.649 281.994 201.313 282.218C200.986 282.433 200.781 282.769 200.697 283.226H199.493C199.539 282.722 199.707 282.297 199.997 281.952C200.286 281.607 200.65 281.345 201.089 281.168C201.537 280.981 202.008 280.888 202.503 280.888C203.203 280.888 203.767 281.019 204.197 281.28C204.626 281.532 204.939 281.873 205.135 282.302C205.331 282.731 205.429 283.207 205.429 283.73V285.858C205.429 286.203 205.471 286.465 205.555 286.642C205.639 286.819 205.853 286.927 206.199 286.964V288C205.891 288 205.611 287.963 205.359 287.888C205.107 287.804 204.892 287.673 204.715 287.496C204.547 287.309 204.425 287.067 204.351 286.768C204.117 287.16 203.795 287.491 203.385 287.762C202.983 288.033 202.498 288.168 201.929 288.168ZM202.111 287.174C202.577 287.174 202.969 287.057 203.287 286.824C203.604 286.581 203.842 286.273 204.001 285.9C204.169 285.527 204.253 285.139 204.253 284.738V284.724H202.475C202.148 284.724 201.84 284.761 201.551 284.836C201.261 284.901 201.028 285.027 200.851 285.214C200.673 285.391 200.585 285.643 200.585 285.97C200.585 286.39 200.734 286.698 201.033 286.894C201.331 287.081 201.691 287.174 202.111 287.174ZM210.505 288.168C209.851 288.168 209.259 288.019 208.727 287.72C208.204 287.421 207.789 287.001 207.481 286.46C207.173 285.909 207.019 285.265 207.019 284.528C207.019 283.809 207.168 283.179 207.467 282.638C207.765 282.087 208.176 281.658 208.699 281.35C209.221 281.042 209.823 280.888 210.505 280.888C211.326 280.888 212.017 281.103 212.577 281.532C213.146 281.961 213.505 282.535 213.655 283.254H212.451C212.357 282.825 212.129 282.493 211.765 282.26C211.401 282.017 210.976 281.896 210.491 281.896C209.996 281.896 209.581 282.017 209.245 282.26C208.909 282.503 208.652 282.825 208.475 283.226C208.307 283.627 208.223 284.061 208.223 284.528C208.223 285.041 208.321 285.499 208.517 285.9C208.713 286.301 208.979 286.614 209.315 286.838C209.66 287.062 210.052 287.174 210.491 287.174C210.976 287.174 211.401 287.057 211.765 286.824C212.129 286.581 212.357 286.241 212.451 285.802H213.655C213.561 286.269 213.37 286.679 213.081 287.034C212.791 287.389 212.427 287.669 211.989 287.874C211.55 288.07 211.055 288.168 210.505 288.168ZM218.349 288.168C217.696 288.168 217.103 288.019 216.571 287.72C216.048 287.421 215.633 287.001 215.325 286.46C215.017 285.909 214.863 285.265 214.863 284.528C214.863 283.809 215.012 283.179 215.311 282.638C215.61 282.087 216.02 281.658 216.543 281.35C217.066 281.042 217.668 280.888 218.349 280.888C219.17 280.888 219.861 281.103 220.421 281.532C220.99 281.961 221.35 282.535 221.499 283.254H220.295C220.202 282.825 219.973 282.493 219.609 282.26C219.245 282.017 218.82 281.896 218.335 281.896C217.84 281.896 217.425 282.017 217.089 282.26C216.753 282.503 216.496 282.825 216.319 283.226C216.151 283.627 216.067 284.061 216.067 284.528C216.067 285.041 216.165 285.499 216.361 285.9C216.557 286.301 216.823 286.614 217.159 286.838C217.504 287.062 217.896 287.174 218.335 287.174C218.82 287.174 219.245 287.057 219.609 286.824C219.973 286.581 220.202 286.241 220.295 285.802H221.499C221.406 286.269 221.214 286.679 220.925 287.034C220.636 287.389 220.272 287.669 219.833 287.874C219.394 288.07 218.9 288.168 218.349 288.168ZM226.207 288.168C225.573 288.168 224.989 288.028 224.457 287.748C223.925 287.459 223.501 287.043 223.183 286.502C222.866 285.951 222.707 285.289 222.707 284.514C222.707 283.777 222.861 283.137 223.169 282.596C223.487 282.055 223.911 281.635 224.443 281.336C224.985 281.037 225.591 280.888 226.263 280.888C226.907 280.888 227.495 281.028 228.027 281.308C228.569 281.588 229.003 281.999 229.329 282.54C229.656 283.081 229.819 283.739 229.819 284.514C229.819 285.223 229.665 285.853 229.357 286.404C229.049 286.955 228.62 287.389 228.069 287.706C227.528 288.014 226.907 288.168 226.207 288.168ZM226.207 287.146C226.665 287.146 227.075 287.039 227.439 286.824C227.803 286.6 228.093 286.292 228.307 285.9C228.522 285.508 228.629 285.046 228.629 284.514C228.629 284.01 228.536 283.562 228.349 283.17C228.163 282.778 227.892 282.47 227.537 282.246C227.183 282.022 226.753 281.91 226.249 281.91C225.736 281.91 225.302 282.027 224.947 282.26C224.602 282.493 224.341 282.806 224.163 283.198C223.986 283.59 223.897 284.029 223.897 284.514C223.897 285.13 224.009 285.634 224.233 286.026C224.457 286.409 224.747 286.693 225.101 286.88C225.456 287.057 225.825 287.146 226.207 287.146ZM233.859 288.168C233.317 288.168 232.841 288.061 232.431 287.846C232.029 287.622 231.717 287.286 231.493 286.838C231.269 286.381 231.157 285.807 231.157 285.116V281.056H232.333V284.99C232.333 285.709 232.482 286.25 232.781 286.614C233.079 286.978 233.527 287.16 234.125 287.16C234.722 287.16 235.217 286.945 235.609 286.516C236.01 286.077 236.211 285.457 236.211 284.654V281.056H237.387V288H236.323L236.253 286.754C236.029 287.193 235.707 287.538 235.287 287.79C234.867 288.042 234.391 288.168 233.859 288.168ZM239.182 288V281.056H240.246L240.316 282.302C240.54 281.863 240.862 281.518 241.282 281.266C241.702 281.014 242.178 280.888 242.71 280.888C243.532 280.888 244.185 281.14 244.67 281.644C245.165 282.139 245.412 282.904 245.412 283.94V288H244.236V284.066C244.236 283.347 244.087 282.806 243.788 282.442C243.49 282.078 243.042 281.896 242.444 281.896C241.847 281.896 241.348 282.115 240.946 282.554C240.554 282.983 240.358 283.599 240.358 284.402V288H239.182ZM249.812 288C249.177 288 248.678 287.846 248.314 287.538C247.95 287.23 247.768 286.675 247.768 285.872V282.05H246.564V281.056H247.768V279.39H248.944V281.056H250.89V282.05H248.944V285.872C248.944 286.311 249.032 286.609 249.21 286.768C249.387 286.917 249.7 286.992 250.148 286.992H250.89V288H249.812ZM253.49 285.256L253.434 283.002H253.868C254.39 283.002 254.876 282.951 255.324 282.848C255.781 282.745 256.15 282.545 256.43 282.246C256.71 281.947 256.85 281.499 256.85 280.902C256.85 280.323 256.668 279.866 256.304 279.53C255.949 279.194 255.478 279.026 254.89 279.026C254.292 279.026 253.821 279.189 253.476 279.516C253.13 279.843 252.958 280.281 252.958 280.832H251.838C251.838 280.272 251.964 279.782 252.216 279.362C252.477 278.942 252.836 278.615 253.294 278.382C253.527 278.261 253.774 278.172 254.036 278.116C254.306 278.06 254.591 278.032 254.89 278.032C255.496 278.032 256.033 278.149 256.5 278.382C256.966 278.615 257.33 278.947 257.592 279.376C257.722 279.591 257.82 279.824 257.886 280.076C257.951 280.328 257.984 280.603 257.984 280.902C257.984 281.593 257.839 282.153 257.55 282.582C257.26 283.011 256.854 283.324 256.332 283.52C256.07 283.613 255.79 283.688 255.492 283.744C255.193 283.791 254.88 283.814 254.554 283.814L254.512 285.256H253.49ZM253.994 288.07C253.76 288.07 253.564 287.995 253.406 287.846C253.256 287.687 253.182 287.496 253.182 287.272C253.182 287.048 253.256 286.861 253.406 286.712C253.564 286.553 253.76 286.474 253.994 286.474C254.227 286.474 254.418 286.553 254.568 286.712C254.717 286.861 254.792 287.048 254.792 287.272C254.792 287.496 254.717 287.687 254.568 287.846C254.418 287.995 254.227 288.07 253.994 288.07Z" fill="#141414"/>
<path d="M269.742 288.168C269.061 288.168 268.44 288.051 267.88 287.818C267.329 287.585 266.891 287.239 266.564 286.782C266.237 286.315 266.065 285.737 266.046 285.046H267.936C267.955 285.503 268.118 285.886 268.426 286.194C268.743 286.502 269.177 286.656 269.728 286.656C270.204 286.656 270.582 286.544 270.862 286.32C271.142 286.096 271.282 285.793 271.282 285.41C271.282 285.214 271.249 285.041 271.184 284.892C271.128 284.743 271.016 284.603 270.848 284.472C270.68 284.341 270.442 284.215 270.134 284.094C269.835 283.963 269.439 283.819 268.944 283.66C268.3 283.445 267.782 283.198 267.39 282.918C266.998 282.638 266.713 282.325 266.536 281.98C266.368 281.625 266.284 281.243 266.284 280.832C266.284 280.216 266.429 279.703 266.718 279.292C267.017 278.872 267.413 278.559 267.908 278.354C268.412 278.139 268.967 278.032 269.574 278.032C270.19 278.032 270.745 278.139 271.24 278.354C271.744 278.569 272.15 278.886 272.458 279.306C272.766 279.726 272.925 280.244 272.934 280.86H271.016C271.007 280.505 270.867 280.197 270.596 279.936C270.335 279.675 269.971 279.544 269.504 279.544C269.131 279.544 268.813 279.642 268.552 279.838C268.291 280.034 268.16 280.323 268.16 280.706C268.16 280.986 268.263 281.224 268.468 281.42C268.683 281.616 268.967 281.789 269.322 281.938C269.686 282.078 270.087 282.227 270.526 282.386C270.769 282.47 271.039 282.577 271.338 282.708C271.646 282.839 271.94 283.016 272.22 283.24C272.5 283.455 272.729 283.73 272.906 284.066C273.093 284.393 273.186 284.799 273.186 285.284C273.186 285.881 273.032 286.395 272.724 286.824C272.425 287.253 272.015 287.585 271.492 287.818C270.979 288.051 270.395 288.168 269.742 288.168ZM275.2 280.16C274.883 280.16 274.607 280.048 274.374 279.824C274.15 279.591 274.038 279.315 274.038 278.998C274.038 278.671 274.15 278.396 274.374 278.172C274.607 277.948 274.883 277.836 275.2 277.836C275.527 277.836 275.802 277.948 276.026 278.172C276.25 278.396 276.362 278.671 276.362 278.998C276.362 279.315 276.25 279.591 276.026 279.824C275.802 280.048 275.527 280.16 275.2 280.16ZM274.304 288V281.056H276.096V288H274.304ZM280.264 291.248C279.629 291.248 279.06 291.178 278.556 291.038C278.052 290.898 277.65 290.669 277.352 290.352C277.062 290.044 276.918 289.638 276.918 289.134C276.918 288.807 276.988 288.523 277.128 288.28C277.268 288.047 277.482 287.841 277.772 287.664C277.529 287.524 277.347 287.347 277.226 287.132C277.104 286.917 277.044 286.67 277.044 286.39C277.044 285.774 277.333 285.298 277.912 284.962C277.706 284.747 277.548 284.505 277.436 284.234C277.324 283.954 277.268 283.665 277.268 283.366C277.268 282.862 277.389 282.428 277.632 282.064C277.874 281.691 278.21 281.401 278.64 281.196C279.069 280.991 279.559 280.888 280.11 280.888C280.511 280.888 280.88 280.944 281.216 281.056H283.708V282.4H282.742C282.798 282.559 282.844 282.717 282.882 282.876C282.928 283.035 282.952 283.198 282.952 283.366C282.952 283.851 282.826 284.281 282.574 284.654C282.322 285.027 281.981 285.321 281.552 285.536C281.132 285.741 280.651 285.844 280.11 285.844C279.876 285.844 279.662 285.825 279.466 285.788C279.27 285.741 279.078 285.671 278.892 285.578C278.686 285.681 278.584 285.844 278.584 286.068C278.584 286.479 278.924 286.684 279.606 286.684H280.88C281.44 286.684 281.916 286.763 282.308 286.922C282.709 287.071 283.012 287.309 283.218 287.636C283.423 287.963 283.526 288.378 283.526 288.882C283.526 289.367 283.381 289.787 283.092 290.142C282.802 290.497 282.41 290.767 281.916 290.954C281.421 291.15 280.87 291.248 280.264 291.248ZM280.264 289.848C280.712 289.848 281.09 289.773 281.398 289.624C281.715 289.484 281.874 289.269 281.874 288.98C281.874 288.429 281.491 288.154 280.726 288.154H279.718C279.344 288.154 279.055 288.224 278.85 288.364C278.654 288.504 278.556 288.709 278.556 288.98C278.556 289.195 278.635 289.363 278.794 289.484C278.952 289.615 279.162 289.708 279.424 289.764C279.685 289.82 279.965 289.848 280.264 289.848ZM280.096 284.444C280.45 284.444 280.74 284.346 280.964 284.15C281.197 283.945 281.314 283.683 281.314 283.366C281.314 283.058 281.197 282.801 280.964 282.596C280.74 282.391 280.45 282.288 280.096 282.288C279.741 282.288 279.452 282.391 279.228 282.596C279.013 282.801 278.906 283.058 278.906 283.366C278.906 283.683 279.008 283.945 279.214 284.15C279.428 284.346 279.722 284.444 280.096 284.444ZM284.44 288V281.056H286.218V281.868C286.461 281.541 286.783 281.299 287.184 281.14C287.595 280.972 288.006 280.888 288.416 280.888C289.219 280.888 289.877 281.149 290.39 281.672C290.904 282.185 291.16 282.932 291.16 283.912V288H289.382V284.15C289.382 283.627 289.247 283.207 288.976 282.89C288.715 282.563 288.328 282.4 287.814 282.4C287.301 282.4 286.904 282.563 286.624 282.89C286.354 283.207 286.218 283.627 286.218 284.15V288H284.44ZM296.214 280.16C295.897 280.16 295.622 280.048 295.388 279.824C295.164 279.591 295.052 279.315 295.052 278.998C295.052 278.671 295.164 278.396 295.388 278.172C295.622 277.948 295.897 277.836 296.214 277.836C296.541 277.836 296.816 277.948 297.04 278.172C297.264 278.396 297.376 278.671 297.376 278.998C297.376 279.315 297.264 279.591 297.04 279.824C296.816 280.048 296.541 280.16 296.214 280.16ZM295.318 288V281.056H297.11V288H295.318ZM298.28 288V281.056H300.058V281.868C300.301 281.541 300.623 281.299 301.024 281.14C301.435 280.972 301.846 280.888 302.256 280.888C303.059 280.888 303.717 281.149 304.23 281.672C304.744 282.185 305 282.932 305 283.912V288H303.222V284.15C303.222 283.627 303.087 283.207 302.816 282.89C302.555 282.563 302.168 282.4 301.654 282.4C301.141 282.4 300.744 282.563 300.464 282.89C300.194 283.207 300.058 283.627 300.058 284.15V288H298.28Z" fill="#0A7350"/>
</g>
<path d="M0 0H400H0ZM400 316H0H400ZM0 316V0V316ZM384 0C393.389 0 401 7.61116 401 17V299C401 308.389 393.389 316 384 316C392.284 316 399 308.837 399 300V16C399 7.16344 392.284 0 384 0Z" fill="#EBEBEB" mask="url(#path-1-inside-1_7893_30144)"/>
<defs>
<clipPath id="clip0_7893_30144">
<path d="M0 16C0 7.16344 7.16344 0 16 0H384C392.837 0 400 7.16344 400 16V300C400 308.837 392.837 316 384 316H16C7.16345 316 0 308.837 0 300V16Z" fill="white"/>
</clipPath>
</defs>
</svg>
